{
.appVersion = "1352";
DisplayStrings = (
abcdefghijklmnopqrstuvwxyz,
ABCDEFGHIJKLMNOPQRSTUVWXYZ,
ABCDEFGHRSTUVXY,
"a/Placeholder a/space b/Placeholder b/space c/Placeholder c/space d/Placeholder d/space e/Placeholder e/space f/Placeholder f/space g/Placeholder g/space h/Placeholder h/space i/Placeholder i/space jjj/space k/Placeholder k/space l/Placeholder l/space m/Placeholder m/space n/Placeholder n/space o/Placeholder o/space p/Placeholder p/space q/Placeholder q/space r/Placeholder r/space s/Placeholder s/space t/Placeholder t/space u/Placeholder u/space v/Placeholder v/space w/Placeholder w/space x/Placeholder x/space y/Placeholder y/space z/Placeholder z\012nn/Placeholder no/Placeholder oo\012abcdefghijklmnopqrstuvwxyz\012fear/space fall/space kilo/space long/space ovoide/space want/space wind/space oxo/space zapato\012Twombli/space Tgmaiwan/space Taiwan/space Tomato/space Temperture/space Tiro/space Twardock/space Walking/space Wonder/space Wc/space Wd/space/space Wrcnder/space/space You/space Family/space Fear/space Furor/space Vocal/space Viajar/space Zusam/space Pearl/space Point/space Pain/space Ayuda/space \012Kilo/space Londres/space Leon/space Lio/space Month/space \012Th/uhorn/ohorn ng/space T/ocircumflexacute t/space t/acircumflexacute t/space Nh/acircumflexacute t/space V/ocircumflexgrave ng/space/Dcroat/uhornacute ng/space B/uhornacute t/space/Dcroat/ocircumflexacute c/space k/ydotbelow ./space ng/uhorn/ohorngrave i/space Ng/uhorn/ohorntilde ng",

glyphs = (
{
glyphname = .notdef;
lastChange = "2021-12-03 01:38:01 +0000";
layers = (
{
layerId = "04A772B0-FA71-43EE-BB43-CAC7F0EBD631";
paths = (
{
closed = 1;
nodes = (
"479 0 LINE",
"488 8 LINE",
"488 621 LINE",
"479 630 LINE",
"58 630 LINE",
"50 620 LINE",
"50 9 LINE",
"58 0 LINE"
);
},
{
closed = 1;
nodes = (
"154 150 LINE",
"244 316 LINE",
"154 479 LINE",
"173 514 LINE",
"263 350 LINE",
"354 514 LINE",
"373 479 LINE",
"283 314 LINE",
"373 150 LINE",
"354 116 LINE",
"263 279 LINE",
"173 116 LINE"
);
},
{
closed = 1;
nodes = (
"67 613 LINE",
"471 613 LINE",
"471 16 LINE",
"67 16 LINE"
);
},
{
closed = 1;
nodes = (
"437 49 LINE",
"437 577 LINE",
"102 577 LINE",
"102 49 LINE"
);
}
);
userData = {
assembly = "SVTCA[0]	/* SetFreedomAndProjectionVectorToAxis */\012PUSHW[ ]	/* 1 value pushed */\0122 \012MDAP[1]	/* MoveDirectAbsPt */\012PUSHW[ ]	/* 1 value pushed */\0120 \012RCVT[ ]	/* ReadCVT */\012IF[ ]	/* If */\012PUSHW[ ]	/* 1 value pushed */\0126 \012MDAP[1]	/* MoveDirectAbsPt */\012ELSE[ ]	/* Else */\012PUSHW[ ]	/* 2 values pushed */\0126 7 \012MIAP[0]	/* MoveIndirectAbsPt */\012EIF[ ]	/* EndIf */\012PUSHW[ ]	/* 3 values pushed */\01216 6 2 \012SRP1[ ]	/* SetRefPoint1 */\012SRP2[ ]	/* SetRefPoint2 */\012IP[ ]	/* InterpolatePts */\012PUSHW[ ]	/* 3 values pushed */\01217 6 2 \012SRP1[ ]	/* SetRefPoint1 */\012SRP2[ ]	/* SetRefPoint2 */\012IP[ ]	/* InterpolatePts */\012PUSHW[ ]	/* 3 values pushed */\01218 6 2 \012SRP1[ ]	/* SetRefPoint1 */\012SRP2[ ]	/* SetRefPoint2 */\012IP[ ]	/* InterpolatePts */\012PUSHW[ ]	/* 3 values pushed */\01222 6 2 \012SRP1[ ]	/* SetRefPoint1 */\012SRP2[ ]	/* SetRefPoint2 */\012IP[ ]	/* InterpolatePts */\012PUSHW[ ]	/* 3 values pushed */\01223 6 2 \012SRP1[ ]	/* SetRefPoint1 */\012SRP2[ ]	/* SetRefPoint2 */\012IP[ ]	/* InterpolatePts */\012PUSHW[ ]	/* 3 values pushed */\01224 6 2 \012SRP1[ ]	/* SetRefPoint1 */\012SRP2[ ]	/* SetRefPoint2 */\012IP[ ]	/* InterpolatePts */\012IUP[0]	/* InterpolateUntPts */\012IUP[1]	/* InterpolateUntPts */";
};
width = 538;
}
);
note = .notdef;
},
{
glyphname = A;
lastChange = "2021-12-06 10:21:32 +0000";
layers = (
{
anchors = (
{
name = bottom;
position = "{204, 0}";
},
{
name = ogonek;
position = "{412, 0}";
},
{
name = top;
position = "{204, 591}";
}
);
guideLines = (
{
position = "{2913, -291}";
}
);
layerId = "04A772B0-FA71-43EE-BB43-CAC7F0EBD631";
paths = (
{
closed = 1;
nodes = (
"413 0 LINE",
"333 591 LINE",
"83 591 LINE",
"1 0 LINE"
);
},
{
closed = 1;
nodes = (
"211 184 LINE",
"204 291 LINE",
"197 184 LINE"
);
},
{
closed = 1;
nodes = (
"98 573 LINE",
"318 573 LINE",
"393 18 LINE",
"219 18 LINE",
"211 96 LINE",
"196 96 LINE",
"190 18 LINE",
"21 18 LINE"
);
},
{
closed = 1;
nodes = (
"182 27 LINE",
"187 105 LINE",
"219 105 LINE",
"226 27 LINE",
"382 27 LINE",
"310 564 LINE",
"105 564 LINE",
"31 27 LINE"
);
},
{
closed = 1;
nodes = (
"204 450 LINE",
"219 175 LINE",
"188 175 LINE"
);
}
);
userData = {
assembly = "SVTCA[0]	/* SetFreedomAndProjectionVectorToAxis */\012PUSHW[ ]	/* 4 values pushed */\0129 4 2 4 \012CALL[ ]	/* CallFunction */\012PUSHW[ ]	/* 1 value pushed */\0129 \012SRP0[ ]	/* SetRefPoint0 */\012PUSHW[ ]	/* 2 values pushed */\0123 2 \012MIRP[10100]	/* MoveIndirectRelPt */\012PUSHW[ ]	/* 1 value pushed */\0122 \012SRP0[ ]	/* SetRefPoint0 */\012PUSHW[ ]	/* 1 value pushed */\0125 \012MDRP[10000]	/* MoveDirectRelPt */\012IUP[0]	/* InterpolateUntPts */\012IUP[1]	/* InterpolateUntPts */";
};
width = 414;
}
);
leftKerningGroup = A;
note = A;
rightKerningGroup = A;
unicode = 0041;
},
{
color = 8;
glyphname = Aogonek;
lastChange = "2021-12-06 10:01:10 +0000";
layers = (
{
anchors = (
{
name = bottom;
position = "{204, 0}";
},
{
name = ogonek;
position = "{405, 0}";
},
{
name = top;
position = "{204, 591}";
}
);
background = {
components = (
{
name = A;
transform = "{1, 0, 0, 1, -1, 0}";
},
{
name = ogonek;
transform = "{1, 0, 0, 1, 90, 0}";
}
);
};
layerId = "04A772B0-FA71-43EE-BB43-CAC7F0EBD631";
paths = (
{
closed = 1;
nodes = (
"406 -96 OFFCURVE",
"400 -99 OFFCURVE",
"391 -99 CURVE SMOOTH",
"375 -99 OFFCURVE",
"354 -85 OFFCURVE",
"354 -61 CURVE SMOOTH",
"354 -39 OFFCURVE",
"369 -10 OFFCURVE",
"405 0 CURVE",
"322 591 LINE",
"87 591 LINE",
"2 0 LINE",
"175 0 LINE",
"181 86 LINE",
"218 86 LINE",
"226 0 LINE",
"333 0 LINE",
"285 -10 OFFCURVE",
"256 -49 OFFCURVE",
"256 -83 CURVE SMOOTH",
"256 -117 OFFCURVE",
"291 -151 OFFCURVE",
"349 -151 CURVE SMOOTH",
"399 -151 OFFCURVE",
"419 -137 OFFCURVE",
"426 -133 CURVE",
"409 -96 LINE"
);
},
{
closed = 1;
nodes = (
"218 163 LINE",
"182 163 LINE",
"200 466 LINE"
);
}
);
width = 408;
}
);
leftKerningGroup = A;
leftMetricsKey = A;
rightKerningGroup = A;
unicode = 0104;
},
{
glyphname = AE;
lastChange = "2021-12-06 10:21:32 +0000";
layers = (
{
anchors = (
{
name = bottom;
position = "{263, 0}";
},
{
name = top;
position = "{304, 591}";
}
);
layerId = "04A772B0-FA71-43EE-BB43-CAC7F0EBD631";
paths = (
{
closed = 1;
nodes = (
"515 0 LINE",
"515 153 LINE",
"400 153 LINE",
"392 218 LINE",
"506 218 LINE",
"506 386 LINE",
"369 386 LINE",
"368 397 OFFCURVE",
"366 406 OFFCURVE",
"365 413 CURVE SMOOTH",
"361 436 LINE",
"515 436 LINE",
"515 591 LINE",
"84 591 LINE",
"-2 0 LINE"
);
},
{
closed = 1;
nodes = (
"215 184 LINE",
"208 302 LINE",
"201 184 LINE"
);
},
{
closed = 1;
nodes = (
"206 428 LINE",
"208 450 LINE",
"209 428 LINE",
"224 175 LINE",
"192 175 LINE"
);
},
{
closed = 1;
nodes = (
"99 573 LINE",
"497 573 LINE",
"497 454 LINE",
"340 454 LINE",
"342 439 OFFCURVE",
"344 424 OFFCURVE",
"347 411 CURVE SMOOTH",
"349 398 OFFCURVE",
"351 383 OFFCURVE",
"353 368 CURVE",
"488 368 LINE",
"488 236 LINE",
"371 236 LINE",
"373 219 OFFCURVE",
"375 202 OFFCURVE",
"378 186 CURVE SMOOTH",
"381 170 OFFCURVE",
"383 153 OFFCURVE",
"385 134 CURVE",
"497 134 LINE",
"497 18 LINE",
"223 18 LINE",
"215 96 LINE",
"200 96 LINE",
"194 18 LINE",
"20 18 LINE"
);
},
{
closed = 1;
nodes = (
"186 27 LINE",
"191 105 LINE",
"224 105 LINE",
"231 27 LINE",
"488 27 LINE",
"488 125 LINE",
"377 125 LINE",
"361 245 LINE",
"479 245 LINE",
"479 359 LINE",
"345 359 LINE",
"331 463 LINE",
"488 463 LINE",
"488 564 LINE",
"107 564 LINE",
"31 27 LINE"
);
}
);
userData = {
assembly = "SVTCA[0]	/* SetFreedomAndProjectionVectorToAxis */\012PUSHW[ ]	/* 4 values pushed */\01227 3 14 4 \012CALL[ ]	/* CallFunction */\012PUSHW[ ]	/* 1 value pushed */\01214 \012SRP0[ ]	/* SetRefPoint0 */\012PUSHW[ ]	/* 1 value pushed */\0122 \012MDRP[10000]	/* MoveDirectRelPt */\012IUP[0]	/* InterpolateUntPts */\012IUP[1]	/* InterpolateUntPts */";
};
width = 521;
}
);
leftKerningGroup = AE;
note = AE;
rightKerningGroup = E;
rightMetricsKey = E;
unicode = 00C6;
},
{
glyphname = B;
lastChange = "2021-12-06 10:22:08 +0000";
layers = (
{
layerId = "04A772B0-FA71-43EE-BB43-CAC7F0EBD631";
paths = (
{
closed = 1;
nodes = (
"226 0 LINE SMOOTH",
"323 0 OFFCURVE",
"381 34 OFFCURVE",
"381 141 CURVE SMOOTH",
"381 211 LINE SMOOTH",
"381 263 OFFCURVE",
"366 299 OFFCURVE",
"337 320 CURVE",
"358 344 OFFCURVE",
"368 375 OFFCURVE",
"368 414 CURVE SMOOTH",
"368 472 LINE SMOOTH",
"368 543 OFFCURVE",
"329 591 OFFCURVE",
"234 591 CURVE SMOOTH",
"9 591 LINE",
"9 0 LINE"
);
},
{
closed = 1;
nodes = (
"177 253 LINE",
"190 253 LINE SMOOTH",
"198 253 OFFCURVE",
"203 246 OFFCURVE",
"204 231 CURVE SMOOTH",
"205 216 OFFCURVE",
"206 198 OFFCURVE",
"206 177 CURVE SMOOTH",
"206 156 OFFCURVE",
"205 138 OFFCURVE",
"203 123 CURVE SMOOTH",
"200 108 OFFCURVE",
"196 101 OFFCURVE",
"190 101 CURVE SMOOTH",
"177 101 LINE"
);
},
{
closed = 1;
nodes = (
"190 110 LINE SMOOTH",
"193 110 OFFCURVE",
"195 117 OFFCURVE",
"196 130 CURVE SMOOTH",
"197 143 OFFCURVE",
"197 158 OFFCURVE",
"197 177 CURVE SMOOTH",
"197 196 OFFCURVE",
"197 212 OFFCURVE",
"196 225 CURVE SMOOTH",
"195 238 OFFCURVE",
"193 244 OFFCURVE",
"190 244 CURVE SMOOTH",
"186 244 LINE",
"186 110 LINE"
);
},
{
closed = 1;
nodes = (
"26 573 LINE",
"234 573 LINE SMOOTH",
"317 573 OFFCURVE",
"350 532 OFFCURVE",
"350 472 CURVE SMOOTH",
"350 414 LINE SMOOTH",
"350 371 OFFCURVE",
"336 336 OFFCURVE",
"303 317 CURVE",
"342 305 OFFCURVE",
"363 271 OFFCURVE",
"363 211 CURVE SMOOTH",
"363 141 LINE SMOOTH",
"363 49 OFFCURVE",
"314 18 OFFCURVE",
"226 18 CURVE SMOOTH",
"26 18 LINE"
);
},
{
closed = 1;
nodes = (
"226 27 LINE SMOOTH",
"306 27 OFFCURVE",
"355 54 OFFCURVE",
"355 141 CURVE SMOOTH",
"355 211 LINE SMOOTH",
"355 282 OFFCURVE",
"315 314 OFFCURVE",
"266 314 CURVE",
"266 316 LINE",
"321 323 OFFCURVE",
"342 363 OFFCURVE",
"342 414 CURVE SMOOTH",
"342 472 LINE SMOOTH",
"342 527 OFFCURVE",
"310 564 OFFCURVE",
"234 564 CURVE SMOOTH",
"34 564 LINE",
"34 27 LINE"
);
},
{
closed = 1;
nodes = (
"177 488 LINE",
"190 488 LINE SMOOTH",
"198 488 OFFCURVE",
"203 481 OFFCURVE",
"204 467 CURVE SMOOTH",
"205 453 OFFCURVE",
"206 436 OFFCURVE",
"206 415 CURVE SMOOTH",
"206 395 OFFCURVE",
"205 378 OFFCURVE",
"202 364 CURVE SMOOTH",
"199 350 OFFCURVE",
"194 343 OFFCURVE",
"188 343 CURVE SMOOTH",
"177 343 LINE"
);
},
{
closed = 1;
nodes = (
"188 352 LINE SMOOTH",
"191 352 OFFCURVE",
"194 358 OFFCURVE",
"195 371 CURVE SMOOTH",
"196 383 OFFCURVE",
"197 398 OFFCURVE",
"197 415 CURVE SMOOTH",
"197 432 OFFCURVE",
"197 447 OFFCURVE",
"196 460 CURVE SMOOTH",
"195 472 OFFCURVE",
"193 478 OFFCURVE",
"190 478 CURVE SMOOTH",
"186 478 LINE",
"186 352 LINE"
);
}
);
userData = {
assembly = "SVTCA[0]	/* SetFreedomAndProjectionVectorToAxis */\012PUSHW[ ]	/* 4 values pushed */\01219 2 16 4 \012CALL[ ]	/* CallFunction */\012PUSHW[ ]	/* 4 values pushed */\01228 1 25 4 \012CALL[ ]	/* CallFunction */\012PUSHW[ ]	/* 3 values pushed */\0129 25 28 \012SRP1[ ]	/* SetRefPoint1 */\012SRP2[ ]	/* SetRefPoint2 */\012IP[ ]	/* InterpolatePts */\012PUSHW[ ]	/* 3 values pushed */\01264 25 28 \012SRP1[ ]	/* SetRefPoint1 */\012SRP2[ ]	/* SetRefPoint2 */\012IP[ ]	/* InterpolatePts */\012IUP[0]	/* InterpolateUntPts */\012IUP[1]	/* InterpolateUntPts */";
};
width = 383;
}
);
leftKerningGroup = H;
leftMetricsKey = H;
note = B;
rightKerningGroup = B;
rightMetricsKey = "=O-5";
unicode = 0042;
},
{
glyphname = C;
lastChange = "2021-12-06 10:21:32 +0000";
layers = (
{
anchors = (
{
name = bottom;
position = "{192, 0}";
},
{
name = top;
position = "{189, 591}";
}
);
layerId = "04A772B0-FA71-43EE-BB43-CAC7F0EBD631";
paths = (
{
closed = 1;
nodes = (
"311 -10 OFFCURVE",
"364 30 OFFCURVE",
"364 187 CURVE SMOOTH",
"364 280 LINE",
"201 280 LINE",
"201 298 LINE",
"364 298 LINE",
"364 450 LINE SMOOTH",
"364 559 OFFCURVE",
"298 600 OFFCURVE",
"189 600 CURVE SMOOTH",
"79 600 OFFCURVE",
"7 558 OFFCURVE",
"7 450 CURVE SMOOTH",
"7 186 LINE SMOOTH",
"7 30 OFFCURVE",
"67 -10 OFFCURVE",
"189 -10 CURVE SMOOTH"
);
},
{
closed = 1;
nodes = (
"79 8 OFFCURVE",
"24 45 OFFCURVE",
"24 186 CURVE SMOOTH",
"24 450 LINE SMOOTH",
"24 546 OFFCURVE",
"90 582 OFFCURVE",
"189 582 CURVE SMOOTH",
"288 582 OFFCURVE",
"347 546 OFFCURVE",
"347 450 CURVE SMOOTH",
"347 316 LINE",
"194 316 LINE",
"194 457 LINE SMOOTH",
"194 471 OFFCURVE",
"194 475 OFFCURVE",
"189 475 CURVE SMOOTH",
"185 475 OFFCURVE",
"183 471 OFFCURVE",
"183 457 CURVE SMOOTH",
"183 128 LINE SMOOTH",
"183 116 OFFCURVE",
"185 110 OFFCURVE",
"189 110 CURVE SMOOTH",
"192 110 OFFCURVE",
"194 116 OFFCURVE",
"194 128 CURVE SMOOTH",
"194 262 LINE",
"347 262 LINE",
"347 187 LINE SMOOTH",
"347 45 OFFCURVE",
"298 8 OFFCURVE",
"189 8 CURVE SMOOTH"
);
},
{
closed = 1;
nodes = (
"294 17 OFFCURVE",
"338 52 OFFCURVE",
"338 187 CURVE SMOOTH",
"338 253 LINE",
"202 253 LINE",
"202 128 LINE SMOOTH",
"202 118 OFFCURVE",
"201 111 OFFCURVE",
"198 107 CURVE SMOOTH",
"195 103 OFFCURVE",
"192 101 OFFCURVE",
"189 101 CURVE SMOOTH",
"184 101 OFFCURVE",
"181 103 OFFCURVE",
"179 107 CURVE SMOOTH",
"176 111 OFFCURVE",
"175 118 OFFCURVE",
"175 128 CURVE SMOOTH",
"175 457 LINE SMOOTH",
"175 472 OFFCURVE",
"177 484 OFFCURVE",
"189 484 CURVE SMOOTH",
"200 484 OFFCURVE",
"202 472 OFFCURVE",
"202 457 CURVE SMOOTH",
"202 325 LINE",
"338 325 LINE",
"338 450 LINE SMOOTH",
"338 541 OFFCURVE",
"282 573 OFFCURVE",
"189 573 CURVE SMOOTH",
"94 573 OFFCURVE",
"33 539 OFFCURVE",
"33 450 CURVE SMOOTH",
"33 186 LINE SMOOTH",
"33 51 OFFCURVE",
"83 17 OFFCURVE",
"189 17 CURVE SMOOTH"
);
}
);
width = 370;
}
);
leftKerningGroup = O;
leftMetricsKey = O;
note = C;
rightKerningGroup = C;
unicode = 0043;
},
{
color = 8;
glyphname = Ccedilla;
lastChange = "2021-12-06 10:01:19 +0000";
layers = (
{
anchors = (
{
name = bottom;
position = "{202, -168}";
},
{
name = top;
position = "{188, 591}";
}
);
background = {
components = (
{
name = C;
transform = "{1, 0, 0, 1, -10, 0}";
},
{
name = cedilla;
transform = "{1, 0, 0, 1, -10, 0}";
}
);
};
layerId = "04A772B0-FA71-43EE-BB43-CAC7F0EBD631";
paths = (
{
closed = 1;
nodes = (
"367 564 OFFCURVE",
"301 600 OFFCURVE",
"192 600 CURVE SMOOTH",
"83 600 OFFCURVE",
"10 564 OFFCURVE",
"10 465 CURVE SMOOTH",
"10 173 LINE SMOOTH",
"10 32 OFFCURVE",
"67 -4 OFFCURVE",
"156 -11 CURVE",
"130 -64 LINE",
"171 -86 LINE",
"173 -84 OFFCURVE",
"178 -80 OFFCURVE",
"186 -80 CURVE SMOOTH",
"195 -80 OFFCURVE",
"203 -86 OFFCURVE",
"203 -96 CURVE SMOOTH",
"203 -112 OFFCURVE",
"193 -121 OFFCURVE",
"176 -121 CURVE SMOOTH",
"163 -121 OFFCURVE",
"143 -114 OFFCURVE",
"134 -106 CURVE",
"116 -153 LINE",
"125 -159 OFFCURVE",
"154 -174 OFFCURVE",
"183 -174 CURVE SMOOTH",
"249 -174 OFFCURVE",
"287 -139 OFFCURVE",
"287 -99 CURVE SMOOTH",
"287 -70 OFFCURVE",
"264 -39 OFFCURVE",
"224 -39 CURVE SMOOTH",
"212 -39 OFFCURVE",
"203 -41 OFFCURVE",
"195 -44 CURVE",
"211 -12 LINE",
"309 -8 OFFCURVE",
"367 24 OFFCURVE",
"367 174 CURVE SMOOTH",
"367 248 LINE",
"208 248 LINE",
"208 110 LINE SMOOTH",
"208 87 OFFCURVE",
"201 80 OFFCURVE",
"192 80 CURVE SMOOTH",
"182 80 OFFCURVE",
"176 87 OFFCURVE",
"176 110 CURVE SMOOTH",
"176 473 LINE SMOOTH",
"176 496 OFFCURVE",
"182 503 OFFCURVE",
"192 503 CURVE SMOOTH",
"201 503 OFFCURVE",
"208 496 OFFCURVE",
"208 473 CURVE SMOOTH",
"208 327 LINE",
"367 327 LINE",
"367 465 LINE SMOOTH"
);
}
);
width = 376;
}
);
leftKerningGroup = O;
leftMetricsKey = C;
rightKerningGroup = C;
rightMetricsKey = C;
unicode = 00C7;
},
{
glyphname = D;
lastChange = "2021-12-06 10:21:32 +0000";
layers = (
{
anchors = (
{
name = bottom;
position = "{190, 0}";
},
{
name = center;
position = "{61, 296}";
},
{
name = top;
position = "{178, 591}";
}
);
layerId = "04A772B0-FA71-43EE-BB43-CAC7F0EBD631";
paths = (
{
closed = 1;
nodes = (
"213 0 LINE SMOOTH",
"309 0 OFFCURVE",
"366 34 OFFCURVE",
"366 141 CURVE SMOOTH",
"366 472 LINE SMOOTH",
"366 543 OFFCURVE",
"327 591 OFFCURVE",
"234 591 CURVE SMOOTH",
"9 591 LINE",
"9 0 LINE"
);
},
{
closed = 1;
nodes = (
"177 484 LINE",
"190 484 LINE SMOOTH",
"194 484 OFFCURVE",
"198 482 OFFCURVE",
"201 479 CURVE SMOOTH",
"203 475 OFFCURVE",
"205 468 OFFCURVE",
"205 457 CURVE SMOOTH",
"205 127 LINE SMOOTH",
"205 116 OFFCURVE",
"203 109 OFFCURVE",
"201 106 CURVE SMOOTH",
"198 102 OFFCURVE",
"194 100 OFFCURVE",
"190 100 CURVE SMOOTH",
"177 100 LINE"
);
},
{
closed = 1;
nodes = (
"190 109 LINE SMOOTH",
"191 109 OFFCURVE",
"192 110 OFFCURVE",
"194 113 CURVE SMOOTH",
"195 115 OFFCURVE",
"196 120 OFFCURVE",
"196 127 CURVE SMOOTH",
"196 457 LINE SMOOTH",
"196 469 OFFCURVE",
"194 475 OFFCURVE",
"190 475 CURVE SMOOTH",
"186 475 LINE",
"186 109 LINE"
);
},
{
closed = 1;
nodes = (
"27 573 LINE",
"234 573 LINE SMOOTH",
"315 573 OFFCURVE",
"349 532 OFFCURVE",
"349 472 CURVE SMOOTH",
"349 141 LINE SMOOTH",
"349 50 OFFCURVE",
"300 18 OFFCURVE",
"213 18 CURVE SMOOTH",
"27 18 LINE"
);
},
{
closed = 1;
nodes = (
"213 27 LINE SMOOTH",
"293 27 OFFCURVE",
"341 54 OFFCURVE",
"341 141 CURVE SMOOTH",
"341 472 LINE SMOOTH",
"341 527 OFFCURVE",
"310 564 OFFCURVE",
"234 564 CURVE SMOOTH",
"35 564 LINE",
"35 27 LINE"
);
}
);
userData = {
assembly = "PUSHW[ ]	/* 4 values pushed */\01235 6 8 4 \012CALL[ ]	/* CallFunction */\012PUSHW[ ]	/* 1 value pushed */\01235 \012SRP0[ ]	/* SetRefPoint0 */\012PUSHW[ ]	/* 1 value pushed */\01252 \012MDRP[11100]	/* MoveDirectRelPt */\012SVTCA[0]	/* SetFreedomAndProjectionVectorToAxis */\012PUSHW[ ]	/* 4 values pushed */\01216 2 8 4 \012CALL[ ]	/* CallFunction */\012IUP[0]	/* InterpolateUntPts */\012IUP[1]	/* InterpolateUntPts */";
};
width = 373;
}
);
leftKerningGroup = H;
leftMetricsKey = H;
note = D;
rightKerningGroup = O;
rightMetricsKey = O;
unicode = 0044;
},
{
glyphname = Eth;
lastChange = "2021-12-06 10:21:32 +0000";
layers = (
{
layerId = "04A772B0-FA71-43EE-BB43-CAC7F0EBD631";
paths = (
{
closed = 1;
nodes = (
"251 0 LINE SMOOTH",
"408 0 OFFCURVE",
"419 64 OFFCURVE",
"419 232 CURVE SMOOTH",
"419 380 LINE SMOOTH",
"419 544 OFFCURVE",
"414 591 OFFCURVE",
"258 591 CURVE SMOOTH",
"35 591 LINE",
"35 300 LINE",
"3 300 LINE",
"3 163 LINE",
"35 163 LINE",
"35 0 LINE"
);
},
{
closed = 1;
nodes = (
"52 182 LINE",
"21 182 LINE",
"21 282 LINE",
"52 282 LINE",
"52 573 LINE",
"258 573 LINE SMOOTH",
"399 573 OFFCURVE",
"402 527 OFFCURVE",
"402 380 CURVE SMOOTH",
"402 232 LINE SMOOTH",
"402 77 OFFCURVE",
"391 18 OFFCURVE",
"251 18 CURVE SMOOTH",
"52 18 LINE"
);
},
{
closed = 1;
nodes = (
"251 27 LINE SMOOTH",
"384 27 OFFCURVE",
"393 85 OFFCURVE",
"393 232 CURVE SMOOTH",
"393 380 LINE SMOOTH",
"393 521 OFFCURVE",
"390 564 OFFCURVE",
"258 564 CURVE SMOOTH",
"61 564 LINE",
"61 273 LINE",
"29 273 LINE",
"29 191 LINE",
"61 191 LINE",
"61 27 LINE"
);
},
{
closed = 1;
nodes = (
"208 191 LINE",
"225 191 LINE",
"225 273 LINE",
"208 273 LINE",
"208 488 LINE",
"228 488 LINE SMOOTH",
"241 488 OFFCURVE",
"250 482 OFFCURVE",
"250 461 CURVE SMOOTH",
"250 129 LINE SMOOTH",
"250 106 OFFCURVE",
"241 101 OFFCURVE",
"228 101 CURVE SMOOTH",
"208 101 LINE"
);
},
{
closed = 1;
nodes = (
"228 110 LINE SMOOTH",
"236 110 OFFCURVE",
"241 114 OFFCURVE",
"241 129 CURVE SMOOTH",
"241 326 LINE SMOOTH",
"241 342 OFFCURVE",
"241 362 OFFCURVE",
"242 386 CURVE SMOOTH",
"242 461 LINE SMOOTH",
"242 476 OFFCURVE",
"236 479 OFFCURVE",
"228 479 CURVE SMOOTH",
"216 479 LINE",
"216 282 LINE",
"234 282 LINE",
"234 182 LINE",
"216 182 LINE",
"216 110 LINE"
);
}
);
userData = {
assembly = "PUSHW[ ]	/* 4 values pushed */\0127 6 18 4 \012CALL[ ]	/* CallFunction */\012PUSHW[ ]	/* 1 value pushed */\01218 \012SRP0[ ]	/* SetRefPoint0 */\012PUSHW[ ]	/* 1 value pushed */\01231 \012MDRP[10000]	/* MoveDirectRelPt */\012PUSHW[ ]	/* 1 value pushed */\0127 \012SRP0[ ]	/* SetRefPoint0 */\012PUSHW[ ]	/* 1 value pushed */\01287 \012MDRP[11100]	/* MoveDirectRelPt */\012SVTCA[0]	/* SetFreedomAndProjectionVectorToAxis */\012PUSHW[ ]	/* 4 values pushed */\01228 2 13 4 \012CALL[ ]	/* CallFunction */\012PUSHW[ ]	/* 4 values pushed */\0120 2 15 4 \012CALL[ ]	/* CallFunction */\012PUSHW[ ]	/* 1 value pushed */\0120 \012SRP0[ ]	/* SetRefPoint0 */\012PUSHW[ ]	/* 1 value pushed */\01223 \012MDRP[10000]	/* MoveDirectRelPt */\012PUSHW[ ]	/* 1 value pushed */\01215 \012SRP0[ ]	/* SetRefPoint0 */\012PUSHW[ ]	/* 1 value pushed */\01225 \012MDRP[10000]	/* MoveDirectRelPt */\012IUP[0]	/* InterpolateUntPts */\012IUP[1]	/* InterpolateUntPts */";
};
width = 426;
}
);
leftKerningGroup = H;
note = Eth;
rightKerningGroup = O;
rightMetricsKey = O;
unicode = 00D0;
},
{
glyphname = Dcroat;
lastChange = "2021-12-06 10:21:32 +0000";
layers = (
{
layerId = "04A772B0-FA71-43EE-BB43-CAC7F0EBD631";
paths = (
{
closed = 1;
nodes = (
"251 0 LINE SMOOTH",
"408 0 OFFCURVE",
"419 64 OFFCURVE",
"419 232 CURVE SMOOTH",
"419 380 LINE SMOOTH",
"419 544 OFFCURVE",
"414 591 OFFCURVE",
"258 591 CURVE SMOOTH",
"35 591 LINE",
"35 300 LINE",
"3 300 LINE",
"3 163 LINE",
"35 163 LINE",
"35 0 LINE"
);
},
{
closed = 1;
nodes = (
"52 182 LINE",
"21 182 LINE",
"21 282 LINE",
"52 282 LINE",
"52 573 LINE",
"258 573 LINE SMOOTH",
"399 573 OFFCURVE",
"402 527 OFFCURVE",
"402 380 CURVE SMOOTH",
"402 232 LINE SMOOTH",
"402 77 OFFCURVE",
"391 18 OFFCURVE",
"251 18 CURVE SMOOTH",
"52 18 LINE"
);
},
{
closed = 1;
nodes = (
"251 27 LINE SMOOTH",
"384 27 OFFCURVE",
"393 85 OFFCURVE",
"393 232 CURVE SMOOTH",
"393 380 LINE SMOOTH",
"393 521 OFFCURVE",
"390 564 OFFCURVE",
"258 564 CURVE SMOOTH",
"61 564 LINE",
"61 273 LINE",
"29 273 LINE",
"29 191 LINE",
"61 191 LINE",
"61 27 LINE"
);
},
{
closed = 1;
nodes = (
"208 191 LINE",
"225 191 LINE",
"225 273 LINE",
"208 273 LINE",
"208 488 LINE",
"228 488 LINE SMOOTH",
"241 488 OFFCURVE",
"250 482 OFFCURVE",
"250 461 CURVE SMOOTH",
"250 129 LINE SMOOTH",
"250 106 OFFCURVE",
"241 101 OFFCURVE",
"228 101 CURVE SMOOTH",
"208 101 LINE"
);
},
{
closed = 1;
nodes = (
"228 110 LINE SMOOTH",
"236 110 OFFCURVE",
"241 114 OFFCURVE",
"241 129 CURVE SMOOTH",
"241 326 LINE SMOOTH",
"241 342 OFFCURVE",
"241 362 OFFCURVE",
"242 386 CURVE SMOOTH",
"242 461 LINE SMOOTH",
"242 476 OFFCURVE",
"236 479 OFFCURVE",
"228 479 CURVE SMOOTH",
"216 479 LINE",
"216 282 LINE",
"234 282 LINE",
"234 182 LINE",
"216 182 LINE",
"216 110 LINE"
);
}
);
userData = {
assembly = "PUSHW[ ]	/* 4 values pushed */\0127 6 18 4 \012CALL[ ]	/* CallFunction */\012PUSHW[ ]	/* 1 value pushed */\01218 \012SRP0[ ]	/* SetRefPoint0 */\012PUSHW[ ]	/* 1 value pushed */\01231 \012MDRP[10000]	/* MoveDirectRelPt */\012PUSHW[ ]	/* 1 value pushed */\0127 \012SRP0[ ]	/* SetRefPoint0 */\012PUSHW[ ]	/* 1 value pushed */\01287 \012MDRP[11100]	/* MoveDirectRelPt */\012SVTCA[0]	/* SetFreedomAndProjectionVectorToAxis */\012PUSHW[ ]	/* 4 values pushed */\01228 2 13 4 \012CALL[ ]	/* CallFunction */\012PUSHW[ ]	/* 4 values pushed */\0120 2 15 4 \012CALL[ ]	/* CallFunction */\012PUSHW[ ]	/* 1 value pushed */\0120 \012SRP0[ ]	/* SetRefPoint0 */\012PUSHW[ ]	/* 1 value pushed */\01223 \012MDRP[10000]	/* MoveDirectRelPt */\012PUSHW[ ]	/* 1 value pushed */\01215 \012SRP0[ ]	/* SetRefPoint0 */\012PUSHW[ ]	/* 1 value pushed */\01225 \012MDRP[10000]	/* MoveDirectRelPt */\012IUP[0]	/* InterpolateUntPts */\012IUP[1]	/* InterpolateUntPts */";
};
width = 426;
}
);
leftKerningGroup = H;
note = Dcroat;
rightKerningGroup = O;
unicode = 0110;
},
{
glyphname = E;
lastChange = "2021-12-06 10:21:32 +0000";
layers = (
{
anchors = (
{
name = bottom;
position = "{155, 0}";
},
{
name = ogonek;
position = "{292, 10}";
},
{
name = top;
position = "{155, 591}";
},
{
name = topleft;
position = "{4, 591}";
}
);
layerId = "04A772B0-FA71-43EE-BB43-CAC7F0EBD631";
paths = (
{
closed = 1;
nodes = (
"295 0 LINE",
"295 153 LINE",
"195 153 LINE",
"195 218 LINE",
"286 218 LINE",
"286 386 LINE",
"195 386 LINE",
"195 436 LINE",
"295 436 LINE",
"295 591 LINE",
"9 591 LINE",
"9 0 LINE"
);
},
{
closed = 1;
nodes = (
"25 573 LINE",
"278 573 LINE",
"278 454 LINE",
"179 454 LINE",
"179 368 LINE",
"270 368 LINE",
"270 236 LINE",
"179 236 LINE",
"179 134 LINE",
"278 134 LINE",
"278 18 LINE",
"25 18 LINE"
);
},
{
closed = 1;
nodes = (
"270 27 LINE",
"270 125 LINE",
"171 125 LINE",
"171 245 LINE",
"262 245 LINE",
"262 359 LINE",
"171 359 LINE",
"171 463 LINE",
"270 463 LINE",
"270 564 LINE",
"33 564 LINE",
"33 27 LINE"
);
}
);
userData = {
assembly = "SVTCA[0]	/* SetFreedomAndProjectionVectorToAxis */\012PUSHW[ ]	/* 4 values pushed */\0129 3 10 4 \012CALL[ ]	/* CallFunction */\012IUP[0]	/* InterpolateUntPts */\012IUP[1]	/* InterpolateUntPts */";
};
width = 301;
}
);
leftKerningGroup = H;
leftMetricsKey = H;
note = E;
rightKerningGroup = E;
unicode = 0045;
},
{
color = 8;
glyphname = Eogonek;
lastChange = "2021-12-06 10:01:27 +0000";
layers = (
{
anchors = (
{
name = bottom;
position = "{152, 0}";
},
{
name = ogonek;
position = "{275, 0}";
},
{
name = top;
position = "{155, 591}";
},
{
name = topleft;
position = "{8, 591}";
}
);
background = {
components = (
{
name = E;
transform = "{1, 0, 0, 1, -12, 0}";
},
{
name = ogonek;
transform = "{1, 0, 0, 1, -12, 0}";
}
);
};
layerId = "04A772B0-FA71-43EE-BB43-CAC7F0EBD631";
paths = (
{
closed = 1;
nodes = (
"13 591 LINE",
"13 0 LINE",
"203 0 LINE",
"155 -10 OFFCURVE",
"126 -49 OFFCURVE",
"126 -83 CURVE SMOOTH",
"126 -117 OFFCURVE",
"161 -151 OFFCURVE",
"219 -151 CURVE SMOOTH",
"269 -151 OFFCURVE",
"289 -137 OFFCURVE",
"296 -133 CURVE",
"279 -96 LINE",
"276 -96 OFFCURVE",
"270 -99 OFFCURVE",
"261 -99 CURVE SMOOTH",
"245 -99 OFFCURVE",
"224 -85 OFFCURVE",
"224 -61 CURVE SMOOTH",
"224 -39 OFFCURVE",
"239 -10 OFFCURVE",
"275 0 CURVE",
"299 0 LINE",
"299 108 LINE",
"179 108 LINE",
"179 240 LINE",
"289 240 LINE",
"289 365 LINE",
"179 365 LINE",
"179 480 LINE",
"299 480 LINE",
"299 591 LINE"
);
}
);
width = 308;
}
);
leftKerningGroup = H;
leftMetricsKey = E;
rightKerningGroup = E;
rightMetricsKey = E;
unicode = 0118;
},
{
glyphname = F;
lastChange = "2021-12-06 10:21:32 +0000";
layers = (
{
layerId = "04A772B0-FA71-43EE-BB43-CAC7F0EBD631";
paths = (
{
closed = 1;
nodes = (
"195 0 LINE",
"195 218 LINE",
"286 218 LINE",
"286 386 LINE",
"195 386 LINE",
"195 436 LINE",
"295 436 LINE",
"295 591 LINE",
"9 591 LINE",
"9 0 LINE"
);
},
{
closed = 1;
nodes = (
"25 573 LINE",
"278 573 LINE",
"278 454 LINE",
"179 454 LINE",
"179 368 LINE",
"270 368 LINE",
"270 236 LINE",
"179 236 LINE",
"179 18 LINE",
"25 18 LINE"
);
},
{
closed = 1;
nodes = (
"171 27 LINE",
"171 245 LINE",
"262 245 LINE",
"262 359 LINE",
"171 359 LINE",
"171 463 LINE",
"270 463 LINE",
"270 564 LINE",
"33 564 LINE",
"33 27 LINE"
);
}
);
userData = {
assembly = "SVTCA[0]	/* SetFreedomAndProjectionVectorToAxis */\012PUSHW[ ]	/* 1 value pushed */\0128 \012MDAP[1]	/* MoveDirectAbsPt */\012IUP[0]	/* InterpolateUntPts */\012IUP[1]	/* InterpolateUntPts */";
};
width = 301;
}
);
leftKerningGroup = H;
leftMetricsKey = H;
note = F;
rightKerningGroup = F;
unicode = 0046;
},
{
glyphname = G;
lastChange = "2021-12-06 10:21:32 +0000";
layers = (
{
anchors = (
{
name = bottom;
position = "{215, 0}";
},
{
name = top;
position = "{192, 591}";
}
);
layerId = "04A772B0-FA71-43EE-BB43-CAC7F0EBD631";
paths = (
{
closed = 1;
nodes = (
"174 -9 OFFCURVE",
"195 1 OFFCURVE",
"212 16 CURVE",
"215 0 LINE",
"364 0 LINE",
"364 339 LINE",
"364 449 LINE SMOOTH",
"364 557 OFFCURVE",
"292 599 OFFCURVE",
"183 599 CURVE SMOOTH",
"76 599 OFFCURVE",
"7 558 OFFCURVE",
"7 449 CURVE SMOOTH",
"7 165 LINE SMOOTH",
"7 33 OFFCURVE",
"62 -9 OFFCURVE",
"143 -9 CURVE SMOOTH"
);
},
{
closed = 1;
nodes = (
"195 109 OFFCURVE",
"198 115 OFFCURVE",
"198 127 CURVE SMOOTH",
"198 221 LINE",
"177 221 LINE",
"177 127 LINE SMOOTH",
"177 115 OFFCURVE",
"181 109 OFFCURVE",
"188 109 CURVE SMOOTH"
);
},
{
closed = 1;
nodes = (
"72 9 OFFCURVE",
"24 47 OFFCURVE",
"24 165 CURVE SMOOTH",
"24 449 LINE SMOOTH",
"24 544 OFFCURVE",
"87 581 OFFCURVE",
"183 581 CURVE SMOOTH",
"280 581 OFFCURVE",
"347 544 OFFCURVE",
"347 449 CURVE SMOOTH",
"347 358 LINE",
"198 358 LINE",
"198 458 LINE SMOOTH",
"198 470 OFFCURVE",
"195 476 OFFCURVE",
"188 476 CURVE SMOOTH",
"181 476 OFFCURVE",
"177 470 OFFCURVE",
"177 458 CURVE SMOOTH",
"177 320 LINE",
"347 320 LINE",
"347 18 LINE",
"229 18 LINE",
"220 55 LINE",
"208 31 OFFCURVE",
"186 9 OFFCURVE",
"143 9 CURVE SMOOTH"
);
},
{
closed = 1;
nodes = (
"192 18 OFFCURVE",
"213 54 OFFCURVE",
"224 84 CURVE",
"236 27 LINE",
"338 27 LINE",
"338 311 LINE",
"185 311 LINE",
"185 230 LINE",
"207 230 LINE",
"207 127 LINE SMOOTH",
"207 106 OFFCURVE",
"199 100 OFFCURVE",
"188 100 CURVE SMOOTH",
"177 100 OFFCURVE",
"169 106 OFFCURVE",
"169 127 CURVE SMOOTH",
"169 458 LINE SMOOTH",
"169 479 OFFCURVE",
"177 485 OFFCURVE",
"188 485 CURVE SMOOTH",
"199 485 OFFCURVE",
"207 479 OFFCURVE",
"207 458 CURVE SMOOTH",
"207 367 LINE",
"338 367 LINE",
"338 449 LINE SMOOTH",
"338 538 OFFCURVE",
"275 572 OFFCURVE",
"183 572 CURVE SMOOTH",
"92 572 OFFCURVE",
"33 538 OFFCURVE",
"33 449 CURVE SMOOTH",
"33 165 LINE SMOOTH",
"33 56 OFFCURVE",
"75 18 OFFCURVE",
"143 18 CURVE SMOOTH"
);
}
);
userData = {
assembly = "PUSHW[ ]	/* 4 values pushed */\01231 6 66 4 \012CALL[ ]	/* CallFunction */\012SVTCA[0]	/* SetFreedomAndProjectionVectorToAxis */\012PUSHW[ ]	/* 1 value pushed */\0121 \012MDAP[1]	/* MoveDirectAbsPt */\012PUSHW[ ]	/* 4 values pushed */\01235 2 8 4 \012CALL[ ]	/* CallFunction */\012PUSHW[ ]	/* 3 values pushed */\0123 8 35 \012SRP1[ ]	/* SetRefPoint1 */\012SRP2[ ]	/* SetRefPoint2 */\012IP[ ]	/* InterpolatePts */\012PUSHW[ ]	/* 3 values pushed */\01275 8 35 \012SRP1[ ]	/* SetRefPoint1 */\012SRP2[ ]	/* SetRefPoint2 */\012IP[ ]	/* InterpolatePts */\012PUSHW[ ]	/* 1 value pushed */\0128 \012SRP0[ ]	/* SetRefPoint0 */\012PUSHW[ ]	/* 1 value pushed */\01276 \012MDRP[10000]	/* MoveDirectRelPt */\012IUP[0]	/* InterpolateUntPts */\012IUP[1]	/* InterpolateUntPts */";
};
width = 370;
}
);
leftKerningGroup = O;
leftMetricsKey = O;
note = G;
rightKerningGroup = G;
unicode = 0047;
},
{
glyphname = H;
lastChange = "2021-12-06 10:21:32 +0000";
layers = (
{
anchors = (
{
name = bottom;
position = "{186, 0}";
},
{
name = center;
position = "{191, 296}";
},
{
name = top;
position = "{186, 591}";
},
{
name = topleft;
position = "{4, 591}";
}
);
layerId = "04A772B0-FA71-43EE-BB43-CAC7F0EBD631";
paths = (
{
closed = 1;
nodes = (
"363 0 LINE",
"363 591 LINE",
"9 591 LINE",
"9 0 LINE"
);
},
{
closed = 1;
nodes = (
"26 573 LINE",
"180 573 LINE",
"180 365 LINE",
"193 365 LINE",
"193 573 LINE",
"346 573 LINE",
"346 18 LINE",
"193 18 LINE",
"193 241 LINE",
"180 241 LINE",
"180 18 LINE",
"26 18 LINE"
);
},
{
closed = 1;
nodes = (
"171 27 LINE",
"171 250 LINE",
"202 250 LINE",
"202 27 LINE",
"338 27 LINE",
"338 564 LINE",
"202 564 LINE",
"202 356 LINE",
"171 356 LINE",
"171 564 LINE",
"35 564 LINE",
"35 27 LINE"
);
}
);
userData = {
assembly = "SVTCA[0]	/* SetFreedomAndProjectionVectorToAxis */\012PUSHW[ ]	/* 1 value pushed */\0121 \012MDAP[1]	/* MoveDirectAbsPt */\012PUSHW[ ]	/* 1 value pushed */\0129 \012MDAP[1]	/* MoveDirectAbsPt */\012PUSHW[ ]	/* 4 values pushed */\0125 3 0 4 \012CALL[ ]	/* CallFunction */\012IUP[0]	/* InterpolateUntPts */\012IUP[1]	/* InterpolateUntPts */";
};
width = 372;
}
);
leftKerningGroup = H;
note = H;
rightKerningGroup = H;
unicode = 0048;
},
{
color = 8;
glyphname = Hbar;
lastChange = "2021-12-03 03:56:40 +0000";
layers = (
{
anchors = (
{
name = bottom;
position = "{202, 0}";
},
{
name = center;
position = "{202, 296}";
},
{
name = top;
position = "{202, 591}";
},
{
name = topleft;
position = "{20, 591}";
}
);
background = {
components = (
{
name = H;
},
{
name = hyphen;
transform = "{1.91197, 0, 0, 0.69208, -57, 307}";
}
);
};
layerId = "04A772B0-FA71-43EE-BB43-CAC7F0EBD631";
paths = (
{
closed = 1;
nodes = (
"184 0 LINE",
"184 245 LINE",
"220 245 LINE",
"220 0 LINE",
"379 0 LINE",
"379 591 LINE",
"220 591 LINE",
"220 362 LINE",
"184 362 LINE",
"184 591 LINE",
"25 591 LINE",
"25 0 LINE"
);
},
{
closed = 1;
nodes = (
"406 435 LINE",
"406 507 LINE",
"0 507 LINE",
"0 435 LINE"
);
}
);
width = 404;
}
);
leftKerningGroup = H;
rightKerningGroup = H;
unicode = 0126;
},
{
glyphname = I;
lastChange = "2021-12-06 10:21:32 +0000";
layers = (
{
anchors = (
{
name = bottom;
position = "{87, 0}";
},
{
name = ogonek;
position = "{156, 0}";
},
{
name = top;
position = "{87, 591}";
},
{
name = topleft;
position = "{-8, 591}";
}
);
layerId = "04A772B0-FA71-43EE-BB43-CAC7F0EBD631";
paths = (
{
closed = 1;
nodes = (
"168 0 LINE",
"168 591 LINE",
"9 591 LINE",
"9 0 LINE"
);
},
{
closed = 1;
nodes = (
"23 573 LINE",
"153 573 LINE",
"153 18 LINE",
"23 18 LINE"
);
},
{
closed = 1;
nodes = (
"146 27 LINE",
"146 564 LINE",
"31 564 LINE",
"31 27 LINE"
);
}
);
userData = {
assembly = "SVTCA[0]	/* SetFreedomAndProjectionVectorToAxis */\012PUSHW[ ]	/* 1 value pushed */\0120 \012MDAP[1]	/* MoveDirectAbsPt */\012IUP[0]	/* InterpolateUntPts */\012IUP[1]	/* InterpolateUntPts */";
};
width = 177;
}
);
leftKerningGroup = H;
leftMetricsKey = H;
note = I;
rightKerningGroup = H;
rightMetricsKey = H;
unicode = 0049;
},
{
color = 8;
glyphname = Iogonek;
lastChange = "2021-12-06 10:02:09 +0000";
layers = (
{
anchors = (
{
name = bottom;
position = "{93, 0}";
},
{
name = ogonek;
position = "{172, 0}";
},
{
name = top;
position = "{93, 591}";
},
{
name = topleft;
position = "{8, 591}";
}
);
background = {
components = (
{
name = I;
transform = "{1, 0, 0, 1, -12, 0}";
},
{
name = ogonek;
transform = "{1, 0, 0, 1, -117, 0}";
}
);
};
layerId = "04A772B0-FA71-43EE-BB43-CAC7F0EBD631";
paths = (
{
closed = 1;
nodes = (
"173 -96 OFFCURVE",
"167 -99 OFFCURVE",
"158 -99 CURVE SMOOTH",
"142 -99 OFFCURVE",
"121 -85 OFFCURVE",
"121 -61 CURVE SMOOTH",
"121 -39 OFFCURVE",
"136 -10 OFFCURVE",
"172 0 CURVE",
"172 591 LINE",
"13 591 LINE",
"13 0 LINE",
"100 0 LINE",
"52 -10 OFFCURVE",
"23 -49 OFFCURVE",
"23 -83 CURVE SMOOTH",
"23 -117 OFFCURVE",
"58 -151 OFFCURVE",
"116 -151 CURVE SMOOTH",
"166 -151 OFFCURVE",
"186 -137 OFFCURVE",
"193 -133 CURVE",
"176 -96 LINE"
);
}
);
width = 186;
}
);
leftMetricsKey = I;
unicode = 012E;
},
{
glyphname = J;
lastChange = "2021-12-06 10:22:08 +0000";
layers = (
{
anchors = (
{
name = bottom;
position = "{133, 0}";
},
{
name = top;
position = "{149, 591}";
}
);
layerId = "04A772B0-FA71-43EE-BB43-CAC7F0EBD631";
paths = (
{
closed = 1;
nodes = (
"191 -1 OFFCURVE",
"236 41 OFFCURVE",
"236 172 CURVE SMOOTH",
"236 591 LINE",
"62 591 LINE",
"62 169 LINE SMOOTH",
"62 154 OFFCURVE",
"60 153 OFFCURVE",
"49 153 CURVE SMOOTH",
"2 153 LINE",
"2 3 LINE",
"34 -1 OFFCURVE",
"60 -1 OFFCURVE",
"69 -1 CURVE SMOOTH"
);
},
{
closed = 1;
nodes = (
"35 17 OFFCURVE",
"26 18 OFFCURVE",
"18 19 CURVE",
"18 134 LINE",
"49 134 LINE SMOOTH",
"73 134 OFFCURVE",
"78 141 OFFCURVE",
"78 169 CURVE SMOOTH",
"78 573 LINE",
"220 573 LINE",
"220 172 LINE SMOOTH",
"220 53 OFFCURVE",
"179 17 OFFCURVE",
"69 17 CURVE SMOOTH",
"46 17 LINE SMOOTH"
);
},
{
closed = 1;
nodes = (
"69 26 LINE SMOOTH",
"174 26 OFFCURVE",
"212 60 OFFCURVE",
"212 172 CURVE SMOOTH",
"212 564 LINE",
"86 564 LINE",
"86 169 LINE SMOOTH",
"86 133 OFFCURVE",
"80 125 OFFCURVE",
"49 125 CURVE SMOOTH",
"26 125 LINE",
"26 27 LINE",
"30 26 OFFCURVE",
"37 26 OFFCURVE",
"47 26 CURVE SMOOTH"
);
}
);
width = 248;
}
);
leftKerningGroup = J;
note = J;
rightKerningGroup = J;
rightMetricsKey = "=O+5";
unicode = 004A;
},
{
glyphname = K;
lastChange = "2021-12-06 10:21:32 +0000";
layers = (
{
anchors = (
{
name = bottom;
position = "{199, 0}";
},
{
name = top;
position = "{203, 591}";
}
);
layerId = "04A772B0-FA71-43EE-BB43-CAC7F0EBD631";
paths = (
{
closed = 1;
nodes = (
"199 0 LINE",
"199 17 LINE",
"202 0 LINE",
"412 0 LINE",
"315 306 LINE",
"411 591 LINE",
"9 591 LINE",
"9 0 LINE"
);
},
{
closed = 1;
nodes = (
"26 573 LINE",
"181 573 LINE",
"181 436 LINE",
"209 573 LINE",
"387 573 LINE",
"297 306 LINE",
"342 162 LINE SMOOTH",
"357 112 OFFCURVE",
"373 64 OFFCURVE",
"388 18 CURVE",
"216 18 LINE",
"181 182 LINE",
"181 18 LINE",
"26 18 LINE"
);
},
{
closed = 1;
nodes = (
"173 27 LINE",
"173 269 LINE",
"223 27 LINE",
"377 27 LINE",
"288 306 LINE",
"375 564 LINE",
"216 564 LINE",
"173 345 LINE",
"173 564 LINE",
"35 564 LINE",
"35 27 LINE"
);
}
);
userData = {
assembly = "PUSHW[ ]	/* 4 values pushed */\0127 6 8 4 \012CALL[ ]	/* CallFunction */\012PUSHW[ ]	/* 1 value pushed */\0127 \012SRP0[ ]	/* SetRefPoint0 */\012PUSHW[ ]	/* 1 value pushed */\0120 \012MDRP[10000]	/* MoveDirectRelPt */\012SVTCA[0]	/* SetFreedomAndProjectionVectorToAxis */\012PUSHW[ ]	/* 1 value pushed */\0124 \012MDAP[1]	/* MoveDirectAbsPt */\012PUSHW[ ]	/* 1 value pushed */\0127 \012MDAP[1]	/* MoveDirectAbsPt */\012IUP[0]	/* InterpolateUntPts */\012IUP[1]	/* InterpolateUntPts */";
};
width = 414;
}
);
leftKerningGroup = H;
leftMetricsKey = H;
note = K;
rightKerningGroup = K;
unicode = 004B;
},
{
glyphname = L;
lastChange = "2021-12-06 10:21:32 +0000";
layers = (
{
anchors = (
{
name = bottom;
position = "{142, 0}";
},
{
name = center;
position = "{142, 296}";
},
{
name = top;
position = "{126, 591}";
},
{
name = topright;
position = "{267, 445}";
}
);
layerId = "04A772B0-FA71-43EE-BB43-CAC7F0EBD631";
paths = (
{
closed = 1;
nodes = (
"275 0 LINE",
"275 153 LINE",
"186 153 LINE",
"186 591 LINE",
"9 591 LINE",
"9 0 LINE"
);
},
{
closed = 1;
nodes = (
"26 573 LINE",
"170 573 LINE",
"170 134 LINE",
"259 134 LINE",
"259 18 LINE",
"26 18 LINE"
);
},
{
closed = 1;
nodes = (
"251 27 LINE",
"251 125 LINE",
"162 125 LINE",
"162 564 LINE",
"34 564 LINE",
"34 27 LINE"
);
}
);
userData = {
assembly = "PUSHW[ ]	/* 4 values pushed */\0121 6 0 4 \012CALL[ ]	/* CallFunction */\012SVTCA[0]	/* SetFreedomAndProjectionVectorToAxis */\012PUSHW[ ]	/* 4 values pushed */\0123 3 4 4 \012CALL[ ]	/* CallFunction */\012IUP[0]	/* InterpolateUntPts */\012IUP[1]	/* InterpolateUntPts */";
};
width = 279;
}
);
leftKerningGroup = H;
leftMetricsKey = H;
note = L;
rightKerningGroup = L;
unicode = 004C;
},
{
glyphname = Lslash;
lastChange = "2021-12-06 10:21:32 +0000";
layers = (
{
layerId = "04A772B0-FA71-43EE-BB43-CAC7F0EBD631";
paths = (
{
closed = 1;
nodes = (
"324 0 LINE",
"324 152 LINE",
"232 152 LINE",
"232 214 LINE",
"284 239 LINE",
"284 356 LINE",
"232 331 LINE",
"232 585 LINE",
"50 585 LINE",
"50 244 LINE",
"6 223 LINE",
"6 106 LINE",
"50 126 LINE",
"50 0 LINE"
);
},
{
closed = 1;
nodes = (
"67 155 LINE",
"23 133 LINE",
"23 211 LINE",
"67 232 LINE",
"67 567 LINE",
"215 567 LINE",
"215 304 LINE",
"223 308 OFFCURVE",
"232 312 OFFCURVE",
"242 316 CURVE SMOOTH",
"267 327 LINE",
"267 251 LINE",
"215 226 LINE",
"215 134 LINE",
"307 134 LINE",
"307 18 LINE",
"67 18 LINE"
);
},
{
closed = 1;
nodes = (
"299 27 LINE",
"299 125 LINE",
"207 125 LINE",
"207 231 LINE",
"258 257 LINE",
"258 314 LINE",
"207 289 LINE",
"207 558 LINE",
"75 558 LINE",
"75 226 LINE",
"31 205 LINE",
"31 147 LINE",
"75 168 LINE",
"75 27 LINE"
);
}
);
userData = {
assembly = "SVTCA[0]	/* SetFreedomAndProjectionVectorToAxis */\012PUSHW[ ]	/* 1 value pushed */\0129 \012MDAP[1]	/* MoveDirectAbsPt */\012PUSHW[ ]	/* 4 values pushed */\0122 3 3 4 \012CALL[ ]	/* CallFunction */\012PUSHW[ ]	/* 3 values pushed */\01236 3 2 \012SRP1[ ]	/* SetRefPoint1 */\012SRP2[ ]	/* SetRefPoint2 */\012IP[ ]	/* InterpolatePts */\012IUP[0]	/* InterpolateUntPts */\012IUP[1]	/* InterpolateUntPts */";
};
width = 331;
}
);
leftKerningGroup = H;
note = Lslash;
rightKerningGroup = L;
unicode = 0141;
},
{
glyphname = M;
lastChange = "2021-12-06 10:21:32 +0000";
layers = (
{
layerId = "04A772B0-FA71-43EE-BB43-CAC7F0EBD631";
paths = (
{
closed = 1;
nodes = (
"499 0 LINE",
"499 591 LINE",
"269 591 LINE",
"254 483 LINE",
"239 591 LINE",
"9 591 LINE",
"9 0 LINE"
);
},
{
closed = 1;
nodes = (
"27 573 LINE",
"224 573 LINE",
"254 357 LINE",
"285 573 LINE",
"481 573 LINE",
"481 18 LINE",
"340 18 LINE",
"340 255 LINE",
"310 18 LINE",
"199 18 LINE",
"169 255 LINE",
"169 18 LINE",
"27 18 LINE"
);
},
{
closed = 1;
nodes = (
"160 27 LINE",
"160 401 LINE",
"207 27 LINE",
"301 27 LINE",
"349 401 LINE",
"349 27 LINE",
"473 27 LINE",
"473 564 LINE",
"293 564 LINE",
"254 290 LINE",
"216 564 LINE",
"36 564 LINE",
"36 27 LINE"
);
}
);
userData = {
assembly = "SVTCA[0]	/* SetFreedomAndProjectionVectorToAxis */\012PUSHW[ ]	/* 1 value pushed */\0121 \012MDAP[1]	/* MoveDirectAbsPt */\012PUSHW[ ]	/* 1 value pushed */\0128 \012MDAP[1]	/* MoveDirectAbsPt */\012PUSHW[ ]	/* 1 value pushed */\01211 \012MDAP[1]	/* MoveDirectAbsPt */\012IUP[0]	/* InterpolateUntPts */\012IUP[1]	/* InterpolateUntPts */";
};
width = 508;
}
);
leftKerningGroup = H;
leftMetricsKey = H;
note = M;
rightKerningGroup = H;
rightMetricsKey = H;
unicode = 004D;
},
{
glyphname = N;
lastChange = "2021-12-06 10:21:32 +0000";
layers = (
{
anchors = (
{
name = bottom;
position = "{188, 0}";
},
{
name = top;
position = "{181, 591}";
}
);
layerId = "04A772B0-FA71-43EE-BB43-CAC7F0EBD631";
paths = (
{
closed = 1;
nodes = (
"179 0 LINE",
"179 63 LINE",
"196 0 LINE",
"358 0 LINE",
"358 591 LINE",
"189 591 LINE",
"189 527 LINE",
"172 591 LINE",
"9 591 LINE",
"9 0 LINE"
);
},
{
closed = 1;
nodes = (
"26 573 LINE",
"160 573 LINE",
"206 384 LINE",
"206 573 LINE",
"341 573 LINE",
"341 18 LINE",
"209 18 LINE",
"162 184 LINE",
"162 18 LINE",
"26 18 LINE"
);
},
{
closed = 1;
nodes = (
"154 27 LINE",
"154 250 LINE",
"216 27 LINE",
"333 27 LINE",
"333 564 LINE",
"214 564 LINE",
"214 314 LINE",
"153 564 LINE",
"35 564 LINE",
"35 27 LINE"
);
}
);
userData = {
assembly = "PUSHW[ ]	/* 4 values pushed */\01224 6 3 4 \012CALL[ ]	/* CallFunction */\012PUSHW[ ]	/* 3 values pushed */\0120 3 24 \012SRP1[ ]	/* SetRefPoint1 */\012SRP2[ ]	/* SetRefPoint2 */\012IP[ ]	/* InterpolatePts */\012PUSHW[ ]	/* 3 values pushed */\01219 3 24 \012SRP1[ ]	/* SetRefPoint1 */\012SRP2[ ]	/* SetRefPoint2 */\012IP[ ]	/* InterpolatePts */\012PUSHW[ ]	/* 1 value pushed */\01224 \012SRP0[ ]	/* SetRefPoint0 */\012PUSHW[ ]	/* 1 value pushed */\01220 \012MDRP[10000]	/* MoveDirectRelPt */\012PUSHW[ ]	/* 1 value pushed */\01220 \012MDAP[1]	/* MoveDirectAbsPt */\012SVTCA[0]	/* SetFreedomAndProjectionVectorToAxis */\012PUSHW[ ]	/* 1 value pushed */\0121 \012MDAP[1]	/* MoveDirectAbsPt */\012PUSHW[ ]	/* 1 value pushed */\0128 \012MDAP[1]	/* MoveDirectAbsPt */\012IUP[0]	/* InterpolateUntPts */\012IUP[1]	/* InterpolateUntPts */";
};
width = 367;
}
);
leftKerningGroup = H;
leftMetricsKey = H;
note = N;
rightKerningGroup = H;
rightMetricsKey = H;
unicode = 004E;
},
{
glyphname = Eng;
lastChange = "2021-12-06 10:21:32 +0000";
layers = (
{
layerId = "04A772B0-FA71-43EE-BB43-CAC7F0EBD631";
paths = (
{
closed = 1;
nodes = (
"306 -233 OFFCURVE",
"358 -193 OFFCURVE",
"358 -56 CURVE SMOOTH",
"358 608 LINE",
"189 608 LINE",
"189 542 LINE",
"172 608 LINE",
"9 608 LINE",
"9 0 LINE",
"171 0 LINE",
"171 -59 LINE SMOOTH",
"171 -74 OFFCURVE",
"168 -76 OFFCURVE",
"158 -76 CURVE SMOOTH",
"107 -76 LINE",
"107 -230 LINE",
"141 -233 OFFCURVE",
"169 -233 OFFCURVE",
"179 -233 CURVE SMOOTH"
);
},
{
closed = 1;
nodes = (
"143 -215 OFFCURVE",
"133 -214 OFFCURVE",
"125 -213 CURVE",
"125 -94 LINE",
"158 -94 LINE SMOOTH",
"183 -94 OFFCURVE",
"189 -88 OFFCURVE",
"189 -59 CURVE SMOOTH",
"189 94 LINE",
"162 190 LINE",
"162 19 LINE",
"26 19 LINE",
"26 589 LINE",
"160 589 LINE",
"206 395 LINE",
"206 589 LINE",
"341 589 LINE",
"341 -56 LINE SMOOTH",
"341 -178 OFFCURVE",
"294 -215 OFFCURVE",
"179 -215 CURVE SMOOTH",
"155 -215 LINE SMOOTH"
);
},
{
closed = 1;
nodes = (
"179 -205 LINE SMOOTH",
"290 -205 OFFCURVE",
"333 -172 OFFCURVE",
"333 -56 CURVE SMOOTH",
"333 580 LINE",
"214 580 LINE",
"214 323 LINE",
"153 580 LINE",
"35 580 LINE",
"35 28 LINE",
"154 28 LINE",
"154 257 LINE",
"197 97 LINE",
"197 -59 LINE SMOOTH",
"197 -95 OFFCURVE",
"190 -104 OFFCURVE",
"158 -104 CURVE SMOOTH",
"133 -104 LINE",
"133 -204 LINE",
"137 -205 OFFCURVE",
"145 -205 OFFCURVE",
"156 -205 CURVE SMOOTH"
);
}
);
userData = {
assembly = "PUSHW[ ]	/* 4 values pushed */\01235 6 8 4 \012CALL[ ]	/* CallFunction */\012PUSHW[ ]	/* 1 value pushed */\01235 \012SRP0[ ]	/* SetRefPoint0 */\012PUSHW[ ]	/* 1 value pushed */\0126 \012MDRP[10000]	/* MoveDirectRelPt */\012PUSHW[ ]	/* 1 value pushed */\0126 \012MDAP[1]	/* MoveDirectAbsPt */\012PUSHW[ ]	/* 1 value pushed */\01235 \012SRP0[ ]	/* SetRefPoint0 */\012PUSHW[ ]	/* 1 value pushed */\01210 \012MDRP[10000]	/* MoveDirectRelPt */\012PUSHW[ ]	/* 1 value pushed */\01210 \012MDAP[1]	/* MoveDirectAbsPt */\012PUSHW[ ]	/* 1 value pushed */\01235 \012SRP0[ ]	/* SetRefPoint0 */\012PUSHW[ ]	/* 1 value pushed */\01238 \012MDRP[10000]	/* MoveDirectRelPt */\012PUSHW[ ]	/* 1 value pushed */\01238 \012MDAP[1]	/* MoveDirectAbsPt */\012PUSHW[ ]	/* 1 value pushed */\0128 \012SRP0[ ]	/* SetRefPoint0 */\012PUSHW[ ]	/* 2 values pushed */\01251 6 \012MIRP[10100]	/* MoveIndirectRelPt */\012PUSHW[ ]	/* 3 values pushed */\01239 8 51 \012SRP1[ ]	/* SetRefPoint1 */\012SRP2[ ]	/* SetRefPoint2 */\012IP[ ]	/* InterpolatePts */\012SVTCA[0]	/* SetFreedomAndProjectionVectorToAxis */\012PUSHW[ ]	/* 1 value pushed */\0127 \012MDAP[1]	/* MoveDirectAbsPt */\012IUP[0]	/* InterpolateUntPts */\012IUP[1]	/* InterpolateUntPts */";
};
width = 367;
}
);
leftKerningGroup = H;
leftMetricsKey = H;
note = Eng;
rightKerningGroup = H;
rightMetricsKey = H;
unicode = 014A;
},
{
glyphname = O;
lastChange = "2021-12-06 10:21:32 +0000";
layers = (
{
anchors = (
{
name = bottom;
position = "{190, 0}";
},
{
name = center;
position = "{190, 296}";
},
{
name = ogonek;
position = "{254, 0}";
},
{
name = top;
position = "{189, 591}";
},
{
name = topleft;
position = "{6, 591}";
},
{
name = topright;
position = "{261, 591}";
}
);
layerId = "04A772B0-FA71-43EE-BB43-CAC7F0EBD631";
paths = (
{
closed = 1;
nodes = (
"311 -11 OFFCURVE",
"364 29 OFFCURVE",
"364 186 CURVE SMOOTH",
"364 451 LINE SMOOTH",
"364 560 OFFCURVE",
"298 601 OFFCURVE",
"189 601 CURVE SMOOTH",
"79 601 OFFCURVE",
"7 559 OFFCURVE",
"7 451 CURVE SMOOTH",
"7 185 LINE SMOOTH",
"7 29 OFFCURVE",
"67 -11 OFFCURVE",
"189 -11 CURVE SMOOTH"
);
},
{
closed = 1;
nodes = (
"79 7 OFFCURVE",
"24 44 OFFCURVE",
"24 185 CURVE SMOOTH",
"24 451 LINE SMOOTH",
"24 547 OFFCURVE",
"90 583 OFFCURVE",
"189 583 CURVE SMOOTH",
"288 583 OFFCURVE",
"347 547 OFFCURVE",
"347 451 CURVE SMOOTH",
"347 186 LINE SMOOTH",
"347 44 OFFCURVE",
"298 7 OFFCURVE",
"189 7 CURVE SMOOTH"
);
},
{
closed = 1;
nodes = (
"294 16 OFFCURVE",
"338 51 OFFCURVE",
"338 186 CURVE SMOOTH",
"338 451 LINE SMOOTH",
"338 542 OFFCURVE",
"282 574 OFFCURVE",
"189 574 CURVE SMOOTH",
"94 574 OFFCURVE",
"33 540 OFFCURVE",
"33 451 CURVE SMOOTH",
"33 185 LINE SMOOTH",
"33 50 OFFCURVE",
"83 16 OFFCURVE",
"189 16 CURVE SMOOTH"
);
},
{
closed = 1;
nodes = (
"184 100 OFFCURVE",
"181 102 OFFCURVE",
"179 106 CURVE SMOOTH",
"176 110 OFFCURVE",
"175 117 OFFCURVE",
"175 127 CURVE SMOOTH",
"175 458 LINE SMOOTH",
"175 469 OFFCURVE",
"176 476 OFFCURVE",
"179 480 CURVE SMOOTH",
"181 483 OFFCURVE",
"184 485 OFFCURVE",
"189 485 CURVE SMOOTH",
"192 485 OFFCURVE",
"195 483 OFFCURVE",
"198 480 CURVE SMOOTH",
"201 476 OFFCURVE",
"202 469 OFFCURVE",
"202 458 CURVE SMOOTH",
"202 127 LINE SMOOTH",
"202 117 OFFCURVE",
"201 110 OFFCURVE",
"198 106 CURVE SMOOTH",
"195 102 OFFCURVE",
"192 100 OFFCURVE",
"189 100 CURVE SMOOTH"
);
},
{
closed = 1;
nodes = (
"192 109 OFFCURVE",
"194 115 OFFCURVE",
"194 127 CURVE SMOOTH",
"194 458 LINE SMOOTH",
"194 465 OFFCURVE",
"194 470 OFFCURVE",
"193 473 CURVE SMOOTH",
"192 475 OFFCURVE",
"190 476 OFFCURVE",
"189 476 CURVE SMOOTH",
"187 476 OFFCURVE",
"186 475 OFFCURVE",
"185 473 CURVE SMOOTH",
"184 470 OFFCURVE",
"183 465 OFFCURVE",
"183 458 CURVE SMOOTH",
"183 127 LINE SMOOTH",
"183 115 OFFCURVE",
"185 109 OFFCURVE",
"189 109 CURVE SMOOTH"
);
}
);
width = 371;
}
);
leftKerningGroup = O;
note = O;
rightKerningGroup = O;
unicode = 004F;
},
{
color = 8;
glyphname = Ohorn;
lastChange = "2021-12-03 03:55:39 +0000";
layers = (
{
anchors = (
{
name = bottom;
position = "{199, 0}";
},
{
name = center;
position = "{199, 296}";
},
{
name = ogonek;
position = "{271, 0}";
},
{
name = top;
position = "{199, 591}";
},
{
name = topleft;
position = "{20, 591}";
},
{
name = topright;
position = "{424, 658}";
}
);
background = {
components = (
{
name = horncomb;
transform = "{1, 0, 0, 1, 202, 119}";
},
{
name = O;
}
);
};
layerId = "04A772B0-FA71-43EE-BB43-CAC7F0EBD631";
paths = (
{
closed = 1;
nodes = (
"304 612 OFFCURVE",
"294 596 OFFCURVE",
"273 592 CURVE",
"251 598 OFFCURVE",
"225 600 OFFCURVE",
"197 600 CURVE SMOOTH",
"91 600 OFFCURVE",
"20 564 OFFCURVE",
"20 465 CURVE SMOOTH",
"20 173 LINE SMOOTH",
"20 14 OFFCURVE",
"91 -12 OFFCURVE",
"197 -12 CURVE SMOOTH",
"303 -12 OFFCURVE",
"377 14 OFFCURVE",
"377 174 CURVE SMOOTH",
"377 465 LINE SMOOTH",
"377 498 OFFCURVE",
"369 524 OFFCURVE",
"354 544 CURVE",
"387 562 OFFCURVE",
"404 591 OFFCURVE",
"404 638 CURVE SMOOTH",
"404 658 LINE",
"304 658 LINE",
"304 638 LINE SMOOTH"
);
},
{
closed = 1;
nodes = (
"218 92 OFFCURVE",
"209 80 OFFCURVE",
"197 80 CURVE SMOOTH",
"185 80 OFFCURVE",
"176 92 OFFCURVE",
"176 110 CURVE SMOOTH",
"176 473 LINE SMOOTH",
"176 491 OFFCURVE",
"185 503 OFFCURVE",
"197 503 CURVE SMOOTH",
"209 503 OFFCURVE",
"218 491 OFFCURVE",
"218 473 CURVE SMOOTH",
"218 110 LINE SMOOTH"
);
}
);
width = 397;
}
);
leftKerningGroup = O;
rightKerningGroup = O;
unicode = 01A0;
},
{
color = 8;
glyphname = Oogonek;
lastChange = "2021-12-03 03:52:48 +0000";
layers = (
{
anchors = (
{
name = bottom;
position = "{199, 0}";
},
{
name = center;
position = "{199, 296}";
},
{
name = ogonek;
position = "{271, 0}";
},
{
name = top;
position = "{199, 591}";
},
{
name = topleft;
position = "{20, 591}";
},
{
name = topright;
position = "{241, 591}";
}
);
layerId = "04A772B0-FA71-43EE-BB43-CAC7F0EBD631";
paths = (
{
closed = 1;
nodes = (
"91 600 OFFCURVE",
"20 564 OFFCURVE",
"20 465 CURVE SMOOTH",
"20 173 LINE SMOOTH",
"20 29 OFFCURVE",
"79 -6 OFFCURVE",
"169 -11 CURVE",
"139 -28 OFFCURVE",
"122 -57 OFFCURVE",
"122 -83 CURVE SMOOTH",
"122 -117 OFFCURVE",
"157 -151 OFFCURVE",
"215 -151 CURVE SMOOTH",
"265 -151 OFFCURVE",
"285 -137 OFFCURVE",
"292 -133 CURVE",
"275 -96 LINE",
"272 -96 OFFCURVE",
"266 -99 OFFCURVE",
"257 -99 CURVE SMOOTH",
"241 -99 OFFCURVE",
"220 -85 OFFCURVE",
"220 -61 CURVE SMOOTH",
"220 -44 OFFCURVE",
"229 -22 OFFCURVE",
"251 -9 CURVE",
"327 2 OFFCURVE",
"377 43 OFFCURVE",
"377 174 CURVE SMOOTH",
"377 465 LINE SMOOTH",
"377 564 OFFCURVE",
"303 600 OFFCURVE",
"197 600 CURVE SMOOTH"
);
},
{
closed = 1;
nodes = (
"176 491 OFFCURVE",
"185 503 OFFCURVE",
"197 503 CURVE SMOOTH",
"209 503 OFFCURVE",
"218 491 OFFCURVE",
"218 473 CURVE SMOOTH",
"218 110 LINE SMOOTH",
"218 92 OFFCURVE",
"209 80 OFFCURVE",
"197 80 CURVE SMOOTH",
"185 80 OFFCURVE",
"176 92 OFFCURVE",
"176 110 CURVE SMOOTH",
"176 473 LINE SMOOTH"
);
}
);
width = 397;
}
);
leftKerningGroup = O;
rightKerningGroup = O;
unicode = 01EA;
},
{
glyphname = Oslash;
lastChange = "2021-12-06 10:21:32 +0000";
layers = (
{
anchors = (
{
name = bottom;
position = "{230, 0}";
},
{
name = top;
position = "{230, 591}";
}
);
layerId = "04A772B0-FA71-43EE-BB43-CAC7F0EBD631";
paths = (
{
closed = 1;
nodes = (
"122 -40 LINE",
"142 1 LINE",
"169 -8 OFFCURVE",
"196 -11 OFFCURVE",
"229 -11 CURVE SMOOTH",
"354 -11 OFFCURVE",
"408 29 OFFCURVE",
"408 187 CURVE SMOOTH",
"408 455 LINE SMOOTH",
"408 480 OFFCURVE",
"403 503 OFFCURVE",
"394 524 CURVE",
"448 634 LINE",
"328 634 LINE",
"310 596 LINE",
"287 603 OFFCURVE",
"260 606 OFFCURVE",
"229 606 CURVE SMOOTH",
"118 606 OFFCURVE",
"44 565 OFFCURVE",
"44 455 CURVE SMOOTH",
"44 186 LINE SMOOTH",
"44 139 OFFCURVE",
"50 106 OFFCURVE",
"62 77 CURVE",
"4 -40 LINE"
);
},
{
closed = 1;
nodes = (
"233 110 OFFCURVE",
"235 116 OFFCURVE",
"235 129 CURVE SMOOTH",
"235 253 LINE",
"224 231 LINE",
"224 129 LINE SMOOTH",
"224 116 OFFCURVE",
"226 110 OFFCURVE",
"229 110 CURVE SMOOTH"
);
},
{
closed = 1;
nodes = (
"225 101 OFFCURVE",
"222 103 OFFCURVE",
"219 107 CURVE SMOOTH",
"216 110 OFFCURVE",
"215 118 OFFCURVE",
"215 129 CURVE SMOOTH",
"215 233 LINE",
"243 291 LINE",
"243 129 LINE SMOOTH",
"243 118 OFFCURVE",
"242 110 OFFCURVE",
"239 107 CURVE SMOOTH",
"236 103 OFFCURVE",
"233 101 OFFCURVE",
"229 101 CURVE SMOOTH"
);
},
{
closed = 1;
nodes = (
"81 76 LINE",
"68 102 OFFCURVE",
"62 139 OFFCURVE",
"62 186 CURVE SMOOTH",
"62 455 LINE SMOOTH",
"62 552 OFFCURVE",
"128 588 OFFCURVE",
"229 588 CURVE SMOOTH",
"264 588 OFFCURVE",
"294 583 OFFCURVE",
"318 573 CURVE",
"339 615 LINE",
"419 615 LINE",
"374 524 LINE",
"383 505 OFFCURVE",
"391 480 OFFCURVE",
"391 455 CURVE SMOOTH",
"391 187 LINE SMOOTH",
"391 44 OFFCURVE",
"342 7 OFFCURVE",
"229 7 CURVE SMOOTH",
"190 7 OFFCURVE",
"160 10 OFFCURVE",
"133 23 CURVE",
"111 -22 LINE",
"33 -22 LINE"
);
},
{
closed = 1;
nodes = (
"105 -13 LINE",
"129 36 LINE",
"156 21 OFFCURVE",
"189 17 OFFCURVE",
"229 17 CURVE SMOOTH",
"335 17 OFFCURVE",
"382 52 OFFCURVE",
"382 187 CURVE SMOOTH",
"382 455 LINE SMOOTH",
"382 484 OFFCURVE",
"376 507 OFFCURVE",
"364 525 CURVE",
"404 606 LINE",
"344 606 LINE",
"323 561 LINE",
"298 573 OFFCURVE",
"266 579 OFFCURVE",
"229 579 CURVE SMOOTH",
"134 579 OFFCURVE",
"71 544 OFFCURVE",
"71 455 CURVE SMOOTH",
"71 186 LINE SMOOTH",
"71 138 OFFCURVE",
"78 104 OFFCURVE",
"91 77 CURVE",
"47 -13 LINE"
);
},
{
closed = 1;
nodes = (
"215 462 LINE SMOOTH",
"215 473 OFFCURVE",
"216 480 OFFCURVE",
"219 484 CURVE SMOOTH",
"222 487 OFFCURVE",
"225 489 OFFCURVE",
"229 489 CURVE SMOOTH",
"233 489 OFFCURVE",
"236 487 OFFCURVE",
"239 484 CURVE SMOOTH",
"242 480 OFFCURVE",
"243 473 OFFCURVE",
"243 462 CURVE SMOOTH",
"243 376 LINE",
"215 319 LINE"
);
},
{
closed = 1;
nodes = (
"235 378 LINE",
"235 462 LINE SMOOTH",
"235 469 OFFCURVE",
"234 474 OFFCURVE",
"233 477 CURVE SMOOTH",
"232 479 OFFCURVE",
"230 480 OFFCURVE",
"229 480 CURVE SMOOTH",
"228 480 OFFCURVE",
"227 479 OFFCURVE",
"226 477 CURVE SMOOTH",
"225 474 OFFCURVE",
"224 469 OFFCURVE",
"224 462 CURVE SMOOTH",
"224 356 LINE"
);
}
);
userData = {
assembly = "SVTCA[0]	/* SetFreedomAndProjectionVectorToAxis */\012PUSHW[ ]	/* 3 values pushed */\012103 4 3 \012CALL[ ]	/* CallFunction */\012PUSHW[ ]	/* 4 values pushed */\01226 2 85 4 \012CALL[ ]	/* CallFunction */\012PUSHW[ ]	/* 4 values pushed */\01272 2 40 4 \012CALL[ ]	/* CallFunction */\012PUSHW[ ]	/* 1 value pushed */\01285 \012SRP0[ ]	/* SetRefPoint0 */\012PUSHW[ ]	/* 1 value pushed */\0120 \012MDRP[10000]	/* MoveDirectRelPt */\012PUSHW[ ]	/* 1 value pushed */\0120 \012MDAP[1]	/* MoveDirectAbsPt */\012PUSHW[ ]	/* 1 value pushed */\01272 \012SRP0[ ]	/* SetRefPoint0 */\012PUSHW[ ]	/* 1 value pushed */\01213 \012MDRP[10000]	/* MoveDirectRelPt */\012PUSHW[ ]	/* 1 value pushed */\01213 \012MDAP[1]	/* MoveDirectAbsPt */\012PUSHW[ ]	/* 1 value pushed */\012103 \012SRP0[ ]	/* SetRefPoint0 */\012PUSHW[ ]	/* 1 value pushed */\01216 \012MDRP[10000]	/* MoveDirectRelPt */\012PUSHW[ ]	/* 3 values pushed */\01230 4 103 \012SRP1[ ]	/* SetRefPoint1 */\012SRP2[ ]	/* SetRefPoint2 */\012IP[ ]	/* InterpolatePts */\012PUSHW[ ]	/* 3 values pushed */\01235 4 103 \012SRP1[ ]	/* SetRefPoint1 */\012SRP2[ ]	/* SetRefPoint2 */\012IP[ ]	/* InterpolatePts */\012PUSHW[ ]	/* 3 values pushed */\01252 4 103 \012SRP1[ ]	/* SetRefPoint1 */\012SRP2[ ]	/* SetRefPoint2 */\012IP[ ]	/* InterpolatePts */\012PUSHW[ ]	/* 3 values pushed */\01257 4 103 \012SRP1[ ]	/* SetRefPoint1 */\012SRP2[ ]	/* SetRefPoint2 */\012IP[ ]	/* InterpolatePts */\012PUSHW[ ]	/* 1 value pushed */\0124 \012SRP0[ ]	/* SetRefPoint0 */\012PUSHW[ ]	/* 1 value pushed */\01288 \012MDRP[10000]	/* MoveDirectRelPt */\012PUSHW[ ]	/* 1 value pushed */\01288 \012MDAP[1]	/* MoveDirectAbsPt */\012IUP[0]	/* InterpolateUntPts */\012IUP[1]	/* InterpolateUntPts */";
};
width = 447;
}
);
leftKerningGroup = O;
note = Oslash;
rightKerningGroup = O;
unicode = 00D8;
},
{
glyphname = OE;
lastChange = "2021-12-06 10:21:32 +0000";
layers = (
{
layerId = "04A772B0-FA71-43EE-BB43-CAC7F0EBD631";
paths = (
{
closed = 1;
nodes = (
"227 -11 OFFCURVE",
"257 -8 OFFCURVE",
"280 0 CURVE",
"483 0 LINE",
"483 153 LINE",
"376 153 LINE",
"376 219 LINE",
"474 219 LINE",
"474 387 LINE",
"376 387 LINE",
"376 437 LINE",
"483 437 LINE",
"483 593 LINE",
"271 593 LINE",
"248 600 OFFCURVE",
"224 601 OFFCURVE",
"195 601 CURVE SMOOTH",
"82 601 OFFCURVE",
"7 560 OFFCURVE",
"7 451 CURVE SMOOTH",
"7 185 LINE SMOOTH",
"7 28 OFFCURVE",
"70 -11 OFFCURVE",
"195 -11 CURVE SMOOTH"
);
},
{
closed = 1;
nodes = (
"190 100 OFFCURVE",
"187 102 OFFCURVE",
"185 106 CURVE SMOOTH",
"182 110 OFFCURVE",
"181 117 OFFCURVE",
"181 127 CURVE SMOOTH",
"181 458 LINE SMOOTH",
"181 469 OFFCURVE",
"182 476 OFFCURVE",
"185 480 CURVE SMOOTH",
"187 483 OFFCURVE",
"190 485 OFFCURVE",
"195 485 CURVE SMOOTH",
"199 485 OFFCURVE",
"202 483 OFFCURVE",
"205 480 CURVE SMOOTH",
"208 476 OFFCURVE",
"209 469 OFFCURVE",
"209 458 CURVE SMOOTH",
"209 127 LINE SMOOTH",
"209 117 OFFCURVE",
"208 110 OFFCURVE",
"205 106 CURVE SMOOTH",
"202 102 OFFCURVE",
"199 100 OFFCURVE",
"195 100 CURVE SMOOTH"
);
},
{
closed = 1;
nodes = (
"198 109 OFFCURVE",
"200 115 OFFCURVE",
"200 127 CURVE SMOOTH",
"200 458 LINE SMOOTH",
"200 465 OFFCURVE",
"200 470 OFFCURVE",
"199 473 CURVE SMOOTH",
"198 475 OFFCURVE",
"196 476 OFFCURVE",
"195 476 CURVE SMOOTH",
"193 476 OFFCURVE",
"192 475 OFFCURVE",
"191 473 CURVE SMOOTH",
"190 470 OFFCURVE",
"190 465 OFFCURVE",
"190 458 CURVE SMOOTH",
"190 127 LINE SMOOTH",
"190 115 OFFCURVE",
"192 109 OFFCURVE",
"195 109 CURVE SMOOTH"
);
},
{
closed = 1;
nodes = (
"81 7 OFFCURVE",
"25 43 OFFCURVE",
"25 185 CURVE SMOOTH",
"25 451 LINE SMOOTH",
"25 547 OFFCURVE",
"92 583 OFFCURVE",
"195 583 CURVE SMOOTH",
"222 583 OFFCURVE",
"249 579 OFFCURVE",
"268 575 CURVE",
"465 575 LINE",
"465 455 LINE",
"358 455 LINE",
"358 369 LINE",
"456 369 LINE",
"456 237 LINE",
"358 237 LINE",
"358 135 LINE",
"465 135 LINE",
"465 18 LINE",
"276 18 LINE",
"253 10 OFFCURVE",
"226 7 OFFCURVE",
"195 7 CURVE SMOOTH"
);
},
{
closed = 1;
nodes = (
"226 16 OFFCURVE",
"253 19 OFFCURVE",
"274 27 CURVE",
"456 27 LINE",
"456 126 LINE",
"350 126 LINE",
"350 246 LINE",
"447 246 LINE",
"447 360 LINE",
"350 360 LINE",
"350 464 LINE",
"456 464 LINE",
"456 566 LINE",
"265 566 LINE",
"245 571 OFFCURVE",
"222 574 OFFCURVE",
"195 574 CURVE SMOOTH",
"98 574 OFFCURVE",
"33 540 OFFCURVE",
"33 451 CURVE SMOOTH",
"33 185 LINE SMOOTH",
"33 50 OFFCURVE",
"87 16 OFFCURVE",
"195 16 CURVE SMOOTH"
);
}
);
userData = {
assembly = "PUSHW[ ]	/* 4 values pushed */\01236 6 5 4 \012CALL[ ]	/* CallFunction */\012SVTCA[0]	/* SetFreedomAndProjectionVectorToAxis */\012PUSHW[ ]	/* 4 values pushed */\01225 2 54 4 \012CALL[ ]	/* CallFunction */\012PUSHW[ ]	/* 4 values pushed */\01220 3 21 4 \012CALL[ ]	/* CallFunction */\012PUSHW[ ]	/* 4 values pushed */\01211 2 32 4 \012CALL[ ]	/* CallFunction */\012PUSHW[ ]	/* 1 value pushed */\01254 \012SRP0[ ]	/* SetRefPoint0 */\012PUSHW[ ]	/* 1 value pushed */\0120 \012MDRP[10000]	/* MoveDirectRelPt */\012PUSHW[ ]	/* 1 value pushed */\0120 \012MDAP[1]	/* MoveDirectAbsPt */\012PUSHW[ ]	/* 1 value pushed */\01225 \012SRP0[ ]	/* SetRefPoint0 */\012PUSHW[ ]	/* 2 values pushed */\01222 2 \012MIRP[10100]	/* MoveIndirectRelPt */\012IUP[0]	/* InterpolateUntPts */\012IUP[1]	/* InterpolateUntPts */";
};
width = 489;
}
);
leftKerningGroup = O;
leftMetricsKey = O;
note = OE;
rightKerningGroup = E;
rightMetricsKey = E;
unicode = 0152;
},
{
glyphname = P;
lastChange = "2021-12-06 10:21:32 +0000";
layers = (
{
layerId = "04A772B0-FA71-43EE-BB43-CAC7F0EBD631";
paths = (
{
closed = 1;
nodes = (
"203 0 LINE",
"203 203 LINE",
"241 203 LINE SMOOTH",
"337 203 OFFCURVE",
"366 286 OFFCURVE",
"366 383 CURVE SMOOTH",
"366 472 LINE SMOOTH",
"366 543 OFFCURVE",
"327 591 OFFCURVE",
"234 591 CURVE SMOOTH",
"9 591 LINE",
"9 0 LINE"
);
},
{
closed = 1;
nodes = (
"27 573 LINE",
"234 573 LINE SMOOTH",
"315 573 OFFCURVE",
"349 532 OFFCURVE",
"349 472 CURVE SMOOTH",
"349 383 LINE SMOOTH",
"349 295 OFFCURVE",
"324 222 OFFCURVE",
"241 222 CURVE SMOOTH",
"186 222 LINE",
"186 18 LINE",
"27 18 LINE"
);
},
{
closed = 1;
nodes = (
"177 27 LINE",
"177 231 LINE",
"241 231 LINE SMOOTH",
"318 231 OFFCURVE",
"341 301 OFFCURVE",
"341 383 CURVE SMOOTH",
"341 472 LINE SMOOTH",
"341 527 OFFCURVE",
"310 564 OFFCURVE",
"234 564 CURVE SMOOTH",
"35 564 LINE",
"35 27 LINE"
);
},
{
closed = 1;
nodes = (
"177 488 LINE",
"190 488 LINE SMOOTH",
"197 488 OFFCURVE",
"201 481 OFFCURVE",
"203 468 CURVE SMOOTH",
"204 455 OFFCURVE",
"205 431 OFFCURVE",
"205 398 CURVE SMOOTH",
"205 364 OFFCURVE",
"203 341 OFFCURVE",
"200 328 CURVE SMOOTH",
"197 315 OFFCURVE",
"193 309 OFFCURVE",
"187 309 CURVE SMOOTH",
"177 309 LINE"
);
},
{
closed = 1;
nodes = (
"187 318 LINE SMOOTH",
"190 318 OFFCURVE",
"192 324 OFFCURVE",
"194 336 CURVE SMOOTH",
"196 347 OFFCURVE",
"197 368 OFFCURVE",
"197 398 CURVE SMOOTH",
"197 428 OFFCURVE",
"196 449 OFFCURVE",
"196 461 CURVE SMOOTH",
"195 472 OFFCURVE",
"193 478 OFFCURVE",
"190 478 CURVE SMOOTH",
"186 478 LINE",
"186 318 LINE"
);
}
);
userData = {
assembly = "SVTCA[0]	/* SetFreedomAndProjectionVectorToAxis */\012PUSHW[ ]	/* 1 value pushed */\01212 \012MDAP[1]	/* MoveDirectAbsPt */\012PUSHW[ ]	/* 4 values pushed */\01215 1 34 4 \012CALL[ ]	/* CallFunction */\012IUP[0]	/* InterpolateUntPts */\012IUP[1]	/* InterpolateUntPts */";
};
width = 372;
}
);
leftKerningGroup = H;
leftMetricsKey = H;
note = P;
rightKerningGroup = P;
unicode = 0050;
},
{
glyphname = Thorn;
lastChange = "2021-12-06 10:21:32 +0000";
layers = (
{
layerId = "04A772B0-FA71-43EE-BB43-CAC7F0EBD631";
paths = (
{
closed = 1;
nodes = (
"203 0 LINE",
"203 115 LINE",
"241 115 LINE SMOOTH",
"337 115 OFFCURVE",
"366 198 OFFCURVE",
"366 295 CURVE SMOOTH",
"366 384 LINE SMOOTH",
"366 455 OFFCURVE",
"327 503 OFFCURVE",
"234 503 CURVE SMOOTH",
"204 503 LINE",
"204 591 LINE",
"9 591 LINE",
"9 0 LINE"
);
},
{
closed = 1;
nodes = (
"27 573 LINE",
"187 573 LINE",
"187 485 LINE",
"234 485 LINE SMOOTH",
"315 485 OFFCURVE",
"349 444 OFFCURVE",
"349 384 CURVE SMOOTH",
"349 295 LINE SMOOTH",
"349 208 OFFCURVE",
"324 133 OFFCURVE",
"241 133 CURVE SMOOTH",
"186 133 LINE",
"186 18 LINE",
"27 18 LINE"
);
},
{
closed = 1;
nodes = (
"177 27 LINE",
"177 143 LINE",
"241 143 LINE SMOOTH",
"318 143 OFFCURVE",
"341 213 OFFCURVE",
"341 295 CURVE SMOOTH",
"341 384 LINE SMOOTH",
"341 439 OFFCURVE",
"310 476 OFFCURVE",
"234 476 CURVE SMOOTH",
"178 476 LINE",
"178 564 LINE",
"35 564 LINE",
"35 27 LINE"
);
},
{
closed = 1;
nodes = (
"177 399 LINE",
"190 399 LINE SMOOTH",
"197 399 OFFCURVE",
"201 393 OFFCURVE",
"203 380 CURVE SMOOTH",
"204 367 OFFCURVE",
"205 343 OFFCURVE",
"205 310 CURVE SMOOTH",
"205 276 OFFCURVE",
"203 253 OFFCURVE",
"200 240 CURVE SMOOTH",
"197 227 OFFCURVE",
"193 221 OFFCURVE",
"187 221 CURVE SMOOTH",
"177 221 LINE"
);
},
{
closed = 1;
nodes = (
"187 230 LINE SMOOTH",
"190 230 OFFCURVE",
"192 236 OFFCURVE",
"194 248 CURVE SMOOTH",
"196 259 OFFCURVE",
"197 280 OFFCURVE",
"197 310 CURVE SMOOTH",
"197 340 OFFCURVE",
"196 361 OFFCURVE",
"196 373 CURVE SMOOTH",
"195 384 OFFCURVE",
"193 390 OFFCURVE",
"190 390 CURVE SMOOTH",
"186 390 LINE",
"186 230 LINE"
);
}
);
userData = {
assembly = "SVTCA[0]	/* SetFreedomAndProjectionVectorToAxis */\012PUSHW[ ]	/* 1 value pushed */\01214 \012MDAP[1]	/* MoveDirectAbsPt */\012IUP[0]	/* InterpolateUntPts */\012IUP[1]	/* InterpolateUntPts */";
};
width = 375;
}
);
leftKerningGroup = H;
note = Thorn;
rightKerningGroup = P;
unicode = 00DE;
},
{
glyphname = Q;
lastChange = "2021-12-06 10:21:32 +0000";
layers = (
{
layerId = "04A772B0-FA71-43EE-BB43-CAC7F0EBD631";
paths = (
{
closed = 1;
nodes = (
"378 -45 LINE",
"366 -22 OFFCURVE",
"346 15 OFFCURVE",
"330 43 CURVE",
"353 74 OFFCURVE",
"365 120 OFFCURVE",
"365 188 CURVE SMOOTH",
"365 457 LINE SMOOTH",
"365 568 OFFCURVE",
"300 610 OFFCURVE",
"189 610 CURVE SMOOTH",
"78 610 OFFCURVE",
"7 568 OFFCURVE",
"7 457 CURVE SMOOTH",
"7 188 LINE SMOOTH",
"7 32 OFFCURVE",
"63 -8 OFFCURVE",
"180 -11 CURVE",
"244 -129 LINE"
);
},
{
closed = 1;
nodes = (
"189 7 LINE",
"78 7 OFFCURVE",
"24 44 OFFCURVE",
"24 188 CURVE SMOOTH",
"24 457 LINE SMOOTH",
"24 555 OFFCURVE",
"90 591 OFFCURVE",
"189 591 CURVE SMOOTH",
"288 591 OFFCURVE",
"348 554 OFFCURVE",
"348 457 CURVE SMOOTH",
"348 188 LINE SMOOTH",
"348 115 OFFCURVE",
"334 72 OFFCURVE",
"310 45 CURVE",
"317 32 OFFCURVE",
"325 18 OFFCURVE",
"333 3 CURVE SMOOTH",
"354 -39 LINE",
"250 -104 LINE"
);
},
{
closed = 1;
nodes = (
"342 -35 LINE",
"299 46 LINE",
"324 71 OFFCURVE",
"339 113 OFFCURVE",
"339 188 CURVE SMOOTH",
"339 457 LINE SMOOTH",
"339 549 OFFCURVE",
"282 582 OFFCURVE",
"189 582 CURVE SMOOTH",
"94 582 OFFCURVE",
"33 549 OFFCURVE",
"33 457 CURVE SMOOTH",
"33 188 LINE SMOOTH",
"33 52 OFFCURVE",
"84 17 OFFCURVE",
"189 17 CURVE SMOOTH",
"195 17 LINE",
"253 -91 LINE"
);
},
{
closed = 1;
nodes = (
"184 102 OFFCURVE",
"181 104 OFFCURVE",
"179 108 CURVE SMOOTH",
"176 111 OFFCURVE",
"175 118 OFFCURVE",
"175 129 CURVE SMOOTH",
"175 465 LINE SMOOTH",
"175 476 OFFCURVE",
"176 483 OFFCURVE",
"179 487 CURVE SMOOTH",
"181 490 OFFCURVE",
"184 492 OFFCURVE",
"189 492 CURVE SMOOTH",
"193 492 OFFCURVE",
"196 490 OFFCURVE",
"199 487 CURVE SMOOTH",
"202 483 OFFCURVE",
"203 476 OFFCURVE",
"203 465 CURVE SMOOTH",
"203 129 LINE SMOOTH",
"203 118 OFFCURVE",
"202 111 OFFCURVE",
"199 108 CURVE SMOOTH",
"196 104 OFFCURVE",
"193 102 OFFCURVE",
"189 102 CURVE SMOOTH"
);
},
{
closed = 1;
nodes = (
"190 111 OFFCURVE",
"192 112 OFFCURVE",
"193 115 CURVE SMOOTH",
"194 117 OFFCURVE",
"194 122 OFFCURVE",
"194 129 CURVE SMOOTH",
"194 465 LINE SMOOTH",
"194 472 OFFCURVE",
"194 477 OFFCURVE",
"193 480 CURVE SMOOTH",
"192 482 OFFCURVE",
"190 483 OFFCURVE",
"189 483 CURVE SMOOTH",
"188 483 OFFCURVE",
"187 482 OFFCURVE",
"186 480 CURVE SMOOTH",
"185 477 OFFCURVE",
"184 472 OFFCURVE",
"184 465 CURVE SMOOTH",
"184 129 LINE SMOOTH",
"184 122 OFFCURVE",
"185 117 OFFCURVE",
"186 115 CURVE SMOOTH",
"187 112 OFFCURVE",
"188 111 OFFCURVE",
"189 111 CURVE SMOOTH"
);
}
);
width = 385;
}
);
leftKerningGroup = O;
leftMetricsKey = O;
note = Q;
rightKerningGroup = Q;
rightMetricsKey = O;
unicode = 0051;
},
{
glyphname = R;
lastChange = "2021-12-06 10:21:32 +0000";
layers = (
{
anchors = (
{
name = bottom;
position = "{201, 0}";
},
{
name = top;
position = "{187, 591}";
}
);
layerId = "04A772B0-FA71-43EE-BB43-CAC7F0EBD631";
paths = (
{
closed = 1;
nodes = (
"410 0 LINE",
"354 229 LINE",
"345 256 OFFCURVE",
"341 268 OFFCURVE",
"330 280 CURVE",
"362 307 OFFCURVE",
"371 347 OFFCURVE",
"371 390 CURVE SMOOTH",
"371 472 LINE SMOOTH",
"371 541 OFFCURVE",
"331 591 OFFCURVE",
"236 591 CURVE SMOOTH",
"9 591 LINE",
"9 0 LINE"
);
},
{
closed = 1;
nodes = (
"26 573 LINE",
"236 573 LINE SMOOTH",
"319 573 OFFCURVE",
"353 531 OFFCURVE",
"353 472 CURVE SMOOTH",
"353 390 LINE SMOOTH",
"353 347 OFFCURVE",
"339 304 OFFCURVE",
"300 281 CURVE",
"315 272 OFFCURVE",
"326 257 OFFCURVE",
"339 218 CURVE",
"388 18 LINE",
"217 18 LINE",
"187 172 LINE",
"187 18 LINE",
"26 18 LINE"
);
},
{
closed = 1;
nodes = (
"179 27 LINE",
"179 254 LINE",
"225 27 LINE",
"377 27 LINE",
"329 222 LINE",
"315 264 OFFCURVE",
"299 277 OFFCURVE",
"273 280 CURVE",
"329 296 OFFCURVE",
"345 336 OFFCURVE",
"345 390 CURVE SMOOTH",
"345 472 LINE SMOOTH",
"345 527 OFFCURVE",
"312 564 OFFCURVE",
"236 564 CURVE SMOOTH",
"35 564 LINE",
"35 27 LINE"
);
},
{
closed = 1;
nodes = (
"179 488 LINE",
"192 488 LINE SMOOTH",
"199 488 OFFCURVE",
"204 481 OFFCURVE",
"205 468 CURVE SMOOTH",
"206 455 OFFCURVE",
"207 431 OFFCURVE",
"207 398 CURVE SMOOTH",
"207 365 OFFCURVE",
"206 343 OFFCURVE",
"203 333 CURVE SMOOTH",
"200 323 OFFCURVE",
"195 318 OFFCURVE",
"189 318 CURVE SMOOTH",
"179 318 LINE"
);
},
{
closed = 1;
nodes = (
"189 327 LINE SMOOTH",
"192 327 OFFCURVE",
"194 332 OFFCURVE",
"196 341 CURVE SMOOTH",
"198 350 OFFCURVE",
"199 369 OFFCURVE",
"199 398 CURVE SMOOTH",
"199 428 OFFCURVE",
"199 449 OFFCURVE",
"198 461 CURVE SMOOTH",
"197 472 OFFCURVE",
"195 478 OFFCURVE",
"192 478 CURVE SMOOTH",
"187 478 LINE",
"187 327 LINE"
);
}
);
userData = {
assembly = "PUSHW[ ]	/* 4 values pushed */\01261 6 53 4 \012CALL[ ]	/* CallFunction */\012PUSHW[ ]	/* 1 value pushed */\01253 \012SRP0[ ]	/* SetRefPoint0 */\012PUSHW[ ]	/* 2 values pushed */\01255 6 \012MIRP[10100]	/* MoveIndirectRelPt */\012PUSHW[ ]	/* 1 value pushed */\0124 \012MDRP[10000]	/* MoveDirectRelPt */\012PUSHW[ ]	/* 1 value pushed */\0124 \012MDAP[1]	/* MoveDirectAbsPt */\012PUSHW[ ]	/* 3 values pushed */\01210 53 61 \012SRP1[ ]	/* SetRefPoint1 */\012SRP2[ ]	/* SetRefPoint2 */\012IP[ ]	/* InterpolatePts */\012PUSHW[ ]	/* 3 values pushed */\01258 53 61 \012SRP1[ ]	/* SetRefPoint1 */\012SRP2[ ]	/* SetRefPoint2 */\012IP[ ]	/* InterpolatePts */\012PUSHW[ ]	/* 1 value pushed */\01261 \012SRP0[ ]	/* SetRefPoint0 */\012PUSHW[ ]	/* 1 value pushed */\01282 \012MDRP[11100]	/* MoveDirectRelPt */\012SVTCA[0]	/* SetFreedomAndProjectionVectorToAxis */\012PUSHW[ ]	/* 1 value pushed */\01216 \012MDAP[1]	/* MoveDirectAbsPt */\012PUSHW[ ]	/* 1 value pushed */\01226 \012MDAP[1]	/* MoveDirectAbsPt */\012PUSHW[ ]	/* 1 value pushed */\01253 \012MDAP[1]	/* MoveDirectAbsPt */\012IUP[0]	/* InterpolateUntPts */\012IUP[1]	/* InterpolateUntPts */";
};
width = 412;
}
);
leftKerningGroup = H;
leftMetricsKey = H;
note = R;
rightKerningGroup = R;
unicode = 0052;
},
{
glyphname = S;
lastChange = "2021-12-06 10:25:40 +0000";
layers = (
{
anchors = (
{
name = bottom;
position = "{187, 0}";
},
{
name = top;
position = "{192, 591}";
}
);
layerId = "04A772B0-FA71-43EE-BB43-CAC7F0EBD631";
paths = (
{
closed = 1;
nodes = (
"313 -7 OFFCURVE",
"382 45 OFFCURVE",
"382 183 CURVE SMOOTH",
"382 278 OFFCURVE",
"361 316 OFFCURVE",
"300 348 CURVE",
"376 348 LINE",
"376 436 LINE SMOOTH",
"376 541 OFFCURVE",
"315 594 OFFCURVE",
"193 594 CURVE SMOOTH",
"54 594 OFFCURVE",
"9 548 OFFCURVE",
"9 411 CURVE SMOOTH",
"9 316 OFFCURVE",
"31 262 OFFCURVE",
"108 226 CURVE",
"109 225 LINE",
"5 225 LINE",
"5 181 LINE SMOOTH",
"5 36 OFFCURVE",
"61 -7 OFFCURVE",
"188 -7 CURVE SMOOTH"
);
},
{
closed = 1;
nodes = (
"196 110 OFFCURVE",
"199 113 OFFCURVE",
"200 118 CURVE SMOOTH",
"201 123 OFFCURVE",
"202 134 OFFCURVE",
"202 151 CURVE SMOOTH",
"202 176 OFFCURVE",
"196 192 OFFCURVE",
"184 205 CURVE",
"184 158 LINE SMOOTH",
"184 137 OFFCURVE",
"185 124 OFFCURVE",
"186 119 CURVE SMOOTH",
"187 113 OFFCURVE",
"190 110 OFFCURVE",
"193 110 CURVE SMOOTH"
);
},
{
closed = 1;
nodes = (
"72 11 OFFCURVE",
"22 51 OFFCURVE",
"22 181 CURVE SMOOTH",
"22 207 LINE",
"180 207 LINE",
"165 219 OFFCURVE",
"146 228 OFFCURVE",
"115 243 CURVE SMOOTH",
"46 275 OFFCURVE",
"27 326 OFFCURVE",
"27 411 CURVE SMOOTH",
"27 533 OFFCURVE",
"67 576 OFFCURVE",
"193 576 CURVE SMOOTH",
"304 576 OFFCURVE",
"359 529 OFFCURVE",
"359 436 CURVE SMOOTH",
"359 366 LINE",
"211 366 LINE",
"219 361 OFFCURVE",
"228 356 OFFCURVE",
"249 348 CURVE SMOOTH",
"344 312 OFFCURVE",
"365 290 OFFCURVE",
"365 183 CURVE SMOOTH",
"365 57 OFFCURVE",
"301 11 OFFCURVE",
"188 11 CURVE SMOOTH"
);
},
{
closed = 1;
nodes = (
"295 20 OFFCURVE",
"356 64 OFFCURVE",
"356 183 CURVE SMOOTH",
"356 285 OFFCURVE",
"330 309 OFFCURVE",
"248 341 CURVE SMOOTH",
"205 359 OFFCURVE",
"178 363 OFFCURVE",
"178 416 CURVE SMOOTH",
"178 443 OFFCURVE",
"180 465 OFFCURVE",
"195 465 CURVE SMOOTH",
"204 465 OFFCURVE",
"210 459 OFFCURVE",
"211 446 CURVE SMOOTH",
"212 433 OFFCURVE",
"213 415 OFFCURVE",
"213 390 CURVE SMOOTH",
"213 376 LINE",
"350 376 LINE",
"350 436 LINE SMOOTH",
"350 523 OFFCURVE",
"298 566 OFFCURVE",
"193 566 CURVE SMOOTH",
"73 566 OFFCURVE",
"35 527 OFFCURVE",
"35 411 CURVE SMOOTH",
"35 328 OFFCURVE",
"53 282 OFFCURVE",
"118 251 CURVE SMOOTH",
"184 221 OFFCURVE",
"210 210 OFFCURVE",
"210 151 CURVE SMOOTH",
"210 130 OFFCURVE",
"209 116 OFFCURVE",
"207 110 CURVE SMOOTH",
"204 104 OFFCURVE",
"200 101 OFFCURVE",
"193 101 CURVE SMOOTH",
"187 101 OFFCURVE",
"183 104 OFFCURVE",
"180 111 CURVE SMOOTH",
"177 118 OFFCURVE",
"175 133 OFFCURVE",
"175 158 CURVE SMOOTH",
"175 198 LINE",
"31 198 LINE",
"31 181 LINE SMOOTH",
"31 57 OFFCURVE",
"79 20 OFFCURVE",
"188 20 CURVE SMOOTH"
);
},
{
closed = 1;
nodes = (
"204 390 LINE SMOOTH",
"204 411 OFFCURVE",
"204 428 OFFCURVE",
"203 439 CURVE SMOOTH",
"202 450 OFFCURVE",
"200 456 OFFCURVE",
"195 456 CURVE SMOOTH",
"191 456 OFFCURVE",
"189 452 OFFCURVE",
"188 444 CURVE SMOOTH",
"187 436 OFFCURVE",
"186 427 OFFCURVE",
"186 416 CURVE SMOOTH",
"186 393 OFFCURVE",
"193 380 OFFCURVE",
"204 371 CURVE"
);
}
);
userData = {
assembly = "PUSHW[ ]	/* 4 values pushed */\01217 6 16 4 \012CALL[ ]	/* CallFunction */\012PUSHW[ ]	/* 4 values pushed */\01240 6 41 4 \012CALL[ ]	/* CallFunction */\012PUSHW[ ]	/* 1 value pushed */\01240 \012SRP0[ ]	/* SetRefPoint0 */\012PUSHW[ ]	/* 1 value pushed */\0125 \012MDRP[10000]	/* MoveDirectRelPt */\012PUSHW[ ]	/* 1 value pushed */\0125 \012MDAP[1]	/* MoveDirectAbsPt */\012PUSHW[ ]	/* 1 value pushed */\01241 \012SRP0[ ]	/* SetRefPoint0 */\012PUSHW[ ]	/* 1 value pushed */\01224 \012MDRP[10000]	/* MoveDirectRelPt */\012PUSHW[ ]	/* 1 value pushed */\01224 \012MDAP[1]	/* MoveDirectAbsPt */\012PUSHW[ ]	/* 1 value pushed */\01216 \012SRP0[ ]	/* SetRefPoint0 */\012PUSHW[ ]	/* 1 value pushed */\01232 \012MDRP[10000]	/* MoveDirectRelPt */\012PUSHW[ ]	/* 1 value pushed */\01232 \012MDAP[1]	/* MoveDirectAbsPt */\012PUSHW[ ]	/* 1 value pushed */\01217 \012SRP0[ ]	/* SetRefPoint0 */\012PUSHW[ ]	/* 1 value pushed */\01248 \012MDRP[10000]	/* MoveDirectRelPt */\012PUSHW[ ]	/* 1 value pushed */\01248 \012MDAP[1]	/* MoveDirectAbsPt */\012PUSHW[ ]	/* 1 value pushed */\01216 \012SRP0[ ]	/* SetRefPoint0 */\012PUSHW[ ]	/* 1 value pushed */\01288 \012MDRP[10000]	/* MoveDirectRelPt */\012PUSHW[ ]	/* 1 value pushed */\01288 \012MDAP[1]	/* MoveDirectAbsPt */\012PUSHW[ ]	/* 3 values pushed */\01260 88 5 \012SRP1[ ]	/* SetRefPoint1 */\012SRP2[ ]	/* SetRefPoint2 */\012IP[ ]	/* InterpolatePts */\012PUSHW[ ]	/* 3 values pushed */\01270 88 5 \012SRP1[ ]	/* SetRefPoint1 */\012SRP2[ ]	/* SetRefPoint2 */\012IP[ ]	/* InterpolatePts */\012PUSHW[ ]	/* 3 values pushed */\01279 41 24 \012SRP1[ ]	/* SetRefPoint1 */\012SRP2[ ]	/* SetRefPoint2 */\012IP[ ]	/* InterpolatePts */\012PUSHW[ ]	/* 3 values pushed */\01294 88 5 \012SRP1[ ]	/* SetRefPoint1 */\012SRP2[ ]	/* SetRefPoint2 */\012IP[ ]	/* InterpolatePts */\012PUSHW[ ]	/* 3 values pushed */\012112 41 40 \012SRP1[ ]	/* SetRefPoint1 */\012SRP2[ ]	/* SetRefPoint2 */\012IP[ ]	/* InterpolatePts */\012PUSHW[ ]	/* 3 values pushed */\012130 16 17 \012SRP1[ ]	/* SetRefPoint1 */\012SRP2[ ]	/* SetRefPoint2 */\012IP[ ]	/* InterpolatePts */\012PUSHW[ ]	/* 1 value pushed */\01240 \012SRP0[ ]	/* SetRefPoint0 */\012PUSHW[ ]	/* 1 value pushed */\012143 \012MDRP[11100]	/* MoveDirectRelPt */\012SVTCA[0]	/* SetFreedomAndProjectionVectorToAxis */\012PUSHW[ ]	/* 4 values pushed */\01221 2 10 4 \012CALL[ ]	/* CallFunction */\012PUSHW[ ]	/* 4 values pushed */\01237 3 45 4 \012CALL[ ]	/* CallFunction */\012IUP[0]	/* InterpolateUntPts */\012IUP[1]	/* InterpolateUntPts */";
};
width = 387;
}
);
leftKerningGroup = S;
note = S;
rightKerningGroup = S;
unicode = 0053;
},
{
color = 8;
glyphname = Scedilla;
lastChange = "2021-12-03 03:53:48 +0000";
layers = (
{
anchors = (
{
name = bottom;
position = "{217, -168}";
},
{
name = top;
position = "{203, 591}";
}
);
background = {
components = (
{
name = S;
},
{
name = cedillacomb;
transform = "{1, 0, 0, 1, 16, 0}";
}
);
};
layerId = "04A772B0-FA71-43EE-BB43-CAC7F0EBD631";
paths = (
{
closed = 1;
nodes = (
"391 290 OFFCURVE",
"354 313 OFFCURVE",
"266 345 CURVE SMOOTH",
"223 361 OFFCURVE",
"184 368 OFFCURVE",
"184 427 CURVE SMOOTH",
"184 456 OFFCURVE",
"187 467 OFFCURVE",
"204 467 CURVE SMOOTH",
"225 467 OFFCURVE",
"225 453 OFFCURVE",
"225 399 CURVE SMOOTH",
"225 373 LINE",
"384 373 LINE",
"384 449 LINE SMOOTH",
"384 546 OFFCURVE",
"322 593 OFFCURVE",
"202 593 CURVE SMOOTH",
"62 593 OFFCURVE",
"19 548 OFFCURVE",
"19 422 CURVE SMOOTH",
"19 332 OFFCURVE",
"40 279 OFFCURVE",
"115 246 CURVE SMOOTH",
"195 211 OFFCURVE",
"222 211 OFFCURVE",
"222 147 CURVE SMOOTH",
"222 101 OFFCURVE",
"217 92 OFFCURVE",
"202 92 CURVE SMOOTH",
"188 92 OFFCURVE",
"181 101 OFFCURVE",
"181 155 CURVE SMOOTH",
"181 206 LINE",
"14 206 LINE",
"14 169 LINE SMOOTH",
"14 37 OFFCURVE",
"70 -2 OFFCURVE",
"172 -7 CURVE",
"145 -64 LINE",
"186 -86 LINE",
"188 -84 OFFCURVE",
"193 -80 OFFCURVE",
"201 -80 CURVE SMOOTH",
"210 -80 OFFCURVE",
"218 -86 OFFCURVE",
"218 -96 CURVE SMOOTH",
"218 -112 OFFCURVE",
"208 -121 OFFCURVE",
"191 -121 CURVE SMOOTH",
"178 -121 OFFCURVE",
"158 -114 OFFCURVE",
"149 -106 CURVE",
"131 -153 LINE",
"140 -159 OFFCURVE",
"169 -174 OFFCURVE",
"198 -174 CURVE SMOOTH",
"264 -174 OFFCURVE",
"302 -139 OFFCURVE",
"302 -99 CURVE SMOOTH",
"302 -70 OFFCURVE",
"279 -39 OFFCURVE",
"239 -39 CURVE SMOOTH",
"227 -39 OFFCURVE",
"218 -41 OFFCURVE",
"210 -44 CURVE",
"229 -7 LINE",
"330 0 OFFCURVE",
"391 48 OFFCURVE",
"391 171 CURVE SMOOTH"
);
}
);
width = 405;
}
);
leftKerningGroup = S;
rightKerningGroup = S;
unicode = 015E;
},
{
glyphname = Germandbls;
lastChange = "2021-12-06 10:21:32 +0000";
layers = (
{
layerId = "04A772B0-FA71-43EE-BB43-CAC7F0EBD631";
paths = (
{
closed = 1;
nodes = (
"30 1 OFFCURVE",
"14 1 OFFCURVE",
"206 0 CURVE",
"276 0 LINE SMOOTH",
"383 0 OFFCURVE",
"444 39 OFFCURVE",
"444 151 CURVE SMOOTH",
"444 228 LINE SMOOTH",
"444 285 OFFCURVE",
"427 325 OFFCURVE",
"394 347 CURVE",
"421 372 OFFCURVE",
"430 407 OFFCURVE",
"430 450 CURVE SMOOTH",
"430 513 LINE SMOOTH",
"430 592 OFFCURVE",
"354 642 OFFCURVE",
"241 642 CURVE SMOOTH",
"108 642 OFFCURVE",
"23 621 OFFCURVE",
"20 497 CURVE",
"20 361 LINE",
"20 1 LINE"
);
},
{
closed = 1;
nodes = (
"212 271 LINE",
"236 270 LINE",
"237 175 LINE",
"237 171 LINE SMOOTH",
"237 158 OFFCURVE",
"237 133 OFFCURVE",
"241 130 CURVE",
"212 130 LINE"
);
},
{
closed = 1;
nodes = (
"186 29 LINE",
"186 490 LINE SMOOTH",
"186 527 OFFCURVE",
"193 546 OFFCURVE",
"225 546 CURVE SMOOTH",
"264 546 OFFCURVE",
"264 520 OFFCURVE",
"264 476 CURVE SMOOTH",
"264 432 LINE SMOOTH",
"264 396 OFFCURVE",
"262 374 OFFCURVE",
"239 374 CURVE SMOOTH",
"215 374 LINE",
"215 300 LINE",
"245 298 LINE SMOOTH",
"248 298 OFFCURVE",
"250 297 OFFCURVE",
"253 295 CURVE SMOOTH",
"257 292 OFFCURVE",
"261 286 OFFCURVE",
"262 274 CURVE",
"263 175 LINE SMOOTH",
"263 152 OFFCURVE",
"265 102 OFFCURVE",
"242 102 CURVE SMOOTH",
"210 102 LINE",
"210 28 LINE",
"276 28 LINE SMOOTH",
"364 28 OFFCURVE",
"418 58 OFFCURVE",
"418 151 CURVE SMOOTH",
"418 228 LINE SMOOTH",
"418 305 OFFCURVE",
"375 341 OFFCURVE",
"319 341 CURVE",
"319 343 LINE",
"379 350 OFFCURVE",
"403 394 OFFCURVE",
"403 450 CURVE SMOOTH",
"403 513 LINE SMOOTH",
"403 576 OFFCURVE",
"338 614 OFFCURVE",
"241 614 CURVE SMOOTH",
"122 614 OFFCURVE",
"47 596 OFFCURVE",
"47 493 CURVE SMOOTH",
"47 470 LINE",
"47 389 LINE",
"47 29 LINE"
);
},
{
closed = 1;
nodes = (
"38 19 LINE",
"38 380 LINE",
"38 479 LINE",
"38 493 LINE SMOOTH",
"38 606 OFFCURVE",
"118 624 OFFCURVE",
"241 624 CURVE SMOOTH",
"345 624 OFFCURVE",
"412 581 OFFCURVE",
"412 513 CURVE SMOOTH",
"412 450 LINE SMOOTH",
"412 405 OFFCURVE",
"395 364 OFFCURVE",
"360 343 CURVE",
"400 328 OFFCURVE",
"427 292 OFFCURVE",
"427 228 CURVE SMOOTH",
"427 151 LINE SMOOTH",
"427 52 OFFCURVE",
"372 19 OFFCURVE",
"276 19 CURVE SMOOTH",
"201 19 LINE",
"201 111 LINE",
"242 111 LINE SMOOTH",
"255 111 OFFCURVE",
"254 150 OFFCURVE",
"254 171 CURVE SMOOTH",
"254 175 LINE",
"253 274 LINE SMOOTH",
"253 280 OFFCURVE",
"252 284 OFFCURVE",
"249 287 CURVE SMOOTH",
"248 288 OFFCURVE",
"246 289 OFFCURVE",
"245 289 CURVE SMOOTH",
"206 291 LINE",
"206 383 LINE",
"239 383 LINE SMOOTH",
"246 383 OFFCURVE",
"251 387 OFFCURVE",
"253 396 CURVE SMOOTH",
"254 405 OFFCURVE",
"255 417 OFFCURVE",
"255 432 CURVE SMOOTH",
"255 476 LINE SMOOTH",
"255 515 OFFCURVE",
"256 536 OFFCURVE",
"225 536 CURVE SMOOTH",
"200 536 OFFCURVE",
"195 521 OFFCURVE",
"195 490 CURVE SMOOTH",
"195 19 LINE"
);
},
{
closed = 1;
nodes = (
"212 490 LINE SMOOTH",
"212 509 OFFCURVE",
"216 518 OFFCURVE",
"225 518 CURVE SMOOTH",
"231 518 OFFCURVE",
"235 514 OFFCURVE",
"236 507 CURVE SMOOTH",
"237 500 OFFCURVE",
"237 489 OFFCURVE",
"237 476 CURVE SMOOTH",
"237 432 LINE SMOOTH",
"237 412 OFFCURVE",
"237 409 OFFCURVE",
"237 402 CURVE",
"212 402 LINE"
);
}
);
width = 453;
}
);
unicode = 1E9E;
},
{
glyphname = Schwa;
lastChange = "2021-12-06 10:21:32 +0000";
layers = (
{
layerId = "04A772B0-FA71-43EE-BB43-CAC7F0EBD631";
paths = (
{
closed = 1;
nodes = (
"64 601 OFFCURVE",
"6 567 OFFCURVE",
"6 381 CURVE SMOOTH",
"6 161 LINE SMOOTH",
"6 33 OFFCURVE",
"70 -9 OFFCURVE",
"184 -9 CURVE SMOOTH",
"298 -9 OFFCURVE",
"363 33 OFFCURVE",
"363 161 CURVE SMOOTH",
"363 381 LINE SMOOTH",
"363 567 OFFCURVE",
"308 601 OFFCURVE",
"184 601 CURVE SMOOTH"
);
},
{
closed = 1;
nodes = (
"294 583 OFFCURVE",
"345 549 OFFCURVE",
"345 381 CURVE SMOOTH",
"345 161 LINE SMOOTH",
"345 47 OFFCURVE",
"287 13 OFFCURVE",
"184 13 CURVE SMOOTH",
"81 13 OFFCURVE",
"23 47 OFFCURVE",
"23 161 CURVE SMOOTH",
"23 296 LINE",
"193 296 LINE",
"193 454 LINE SMOOTH",
"193 465 OFFCURVE",
"193 476 OFFCURVE",
"188 476 CURVE SMOOTH",
"183 476 OFFCURVE",
"182 465 OFFCURVE",
"182 454 CURVE SMOOTH",
"182 350 LINE",
"23 350 LINE",
"23 381 LINE SMOOTH",
"23 548 OFFCURVE",
"73 583 OFFCURVE",
"184 583 CURVE SMOOTH"
);
},
{
closed = 1;
nodes = (
"80 574 OFFCURVE",
"33 538 OFFCURVE",
"33 381 CURVE SMOOTH",
"33 359 LINE",
"174 359 LINE",
"174 454 LINE SMOOTH",
"174 469 OFFCURVE",
"175 485 OFFCURVE",
"188 485 CURVE SMOOTH",
"197 485 OFFCURVE",
"201 476 OFFCURVE",
"201 454 CURVE SMOOTH",
"201 287 LINE",
"32 287 LINE",
"32 161 LINE SMOOTH",
"32 55 OFFCURVE",
"86 23 OFFCURVE",
"184 23 CURVE SMOOTH",
"283 23 OFFCURVE",
"337 55 OFFCURVE",
"337 161 CURVE SMOOTH",
"337 381 LINE SMOOTH",
"337 538 OFFCURVE",
"289 574 OFFCURVE",
"184 574 CURVE SMOOTH"
);
},
{
closed = 1;
nodes = (
"201 128 LINE SMOOTH",
"201 113 OFFCURVE",
"194 108 OFFCURVE",
"185 108 CURVE SMOOTH",
"177 108 OFFCURVE",
"170 114 OFFCURVE",
"170 124 CURVE SMOOTH",
"170 216 LINE",
"201 216 LINE"
);
},
{
closed = 1;
nodes = (
"179 207 LINE",
"179 136 LINE SMOOTH",
"179 122 OFFCURVE",
"179 118 OFFCURVE",
"186 118 CURVE SMOOTH",
"192 118 OFFCURVE",
"192 122 OFFCURVE",
"192 136 CURVE SMOOTH",
"192 207 LINE"
);
}
);
width = 370;
}
);
rightKerningGroup = o;
unicode = 018F;
},
{
glyphname = T;
lastChange = "2021-12-07 16:23:02 +0000";
layers = (
{
anchors = (
{
name = bottom;
position = "{173, 0}";
},
{
name = center;
position = "{173, 346}";
},
{
name = top;
position = "{173, 591}";
}
);
layerId = "04A772B0-FA71-43EE-BB43-CAC7F0EBD631";
paths = (
{
closed = 1;
nodes = (
"261 0 LINE",
"261 436 LINE",
"332 436 LINE",
"332 591 LINE",
"3 591 LINE",
"3 436 LINE",
"75 436 LINE",
"75 0 LINE"
);
},
{
closed = 1;
nodes = (
"92 454 LINE",
"20 454 LINE",
"20 573 LINE",
"316 573 LINE",
"316 454 LINE",
"244 454 LINE",
"244 18 LINE",
"92 18 LINE"
);
},
{
closed = 1;
nodes = (
"235 27 LINE",
"235 463 LINE",
"307 463 LINE",
"307 564 LINE",
"29 564 LINE",
"29 463 LINE",
"101 463 LINE",
"101 27 LINE"
);
}
);
userData = {
assembly = "PUSHW[ ]	/* 4 values pushed */\0121 6 2 4 \012CALL[ ]	/* CallFunction */\012SVTCA[0]	/* SetFreedomAndProjectionVectorToAxis */\012PUSHW[ ]	/* 1 value pushed */\0121 \012MDAP[1]	/* MoveDirectAbsPt */\012IUP[0]	/* InterpolateUntPts */\012IUP[1]	/* InterpolateUntPts */";
};
width = 335;
}
);
leftKerningGroup = T;
note = T;
rightKerningGroup = T;
unicode = 0054;
},
{
color = 8;
glyphname = Tbar;
lastChange = "2021-12-03 03:56:40 +0000";
layers = (
{
anchors = (
{
name = bottom;
position = "{173, 0}";
},
{
name = center;
position = "{173, 370}";
},
{
name = top;
position = "{173, 591}";
}
);
background = {
components = (
{
name = T;
},
{
name = hyphen;
transform = "{1.1366, 0, 0, 0.76327, 14, 160}";
}
);
};
layerId = "04A772B0-FA71-43EE-BB43-CAC7F0EBD631";
paths = (
{
closed = 1;
nodes = (
"252 0 LINE",
"252 480 LINE",
"337 480 LINE",
"337 591 LINE",
"8 591 LINE",
"8 480 LINE",
"93 480 LINE",
"93 0 LINE"
);
},
{
closed = 1;
nodes = (
"284 331 LINE",
"284 408 LINE",
"62 408 LINE",
"62 331 LINE"
);
}
);
width = 345;
}
);
leftKerningGroup = T;
rightKerningGroup = T;
unicode = 0166;
},
{
color = 8;
glyphname = Tcedilla;
lastChange = "2021-12-03 03:53:48 +0000";
layers = (
{
anchors = (
{
name = bottom;
position = "{187, -168}";
},
{
name = center;
position = "{173, 370}";
},
{
name = top;
position = "{173, 591}";
}
);
background = {
components = (
{
name = Tcommaaccent;
}
);
};
layerId = "04A772B0-FA71-43EE-BB43-CAC7F0EBD631";
paths = (
{
closed = 1;
nodes = (
"337 480 LINE",
"337 591 LINE",
"8 591 LINE",
"8 480 LINE",
"93 480 LINE",
"93 0 LINE",
"146 0 LINE",
"115 -64 LINE",
"156 -86 LINE",
"158 -84 OFFCURVE",
"163 -80 OFFCURVE",
"171 -80 CURVE SMOOTH",
"180 -80 OFFCURVE",
"188 -86 OFFCURVE",
"188 -96 CURVE SMOOTH",
"188 -112 OFFCURVE",
"178 -121 OFFCURVE",
"161 -121 CURVE SMOOTH",
"148 -121 OFFCURVE",
"128 -114 OFFCURVE",
"119 -106 CURVE",
"101 -153 LINE",
"110 -159 OFFCURVE",
"139 -174 OFFCURVE",
"168 -174 CURVE SMOOTH",
"234 -174 OFFCURVE",
"272 -139 OFFCURVE",
"272 -99 CURVE SMOOTH",
"272 -70 OFFCURVE",
"249 -39 OFFCURVE",
"209 -39 CURVE SMOOTH",
"197 -39 OFFCURVE",
"188 -41 OFFCURVE",
"180 -44 CURVE",
"202 0 LINE",
"252 0 LINE",
"252 480 LINE"
);
}
);
width = 345;
}
);
leftKerningGroup = T;
rightKerningGroup = T;
unicode = 0162;
},
{
glyphname = U;
lastChange = "2021-12-06 10:22:08 +0000";
layers = (
{
anchors = (
{
name = bottom;
position = "{188, 0}";
},
{
name = ogonek;
position = "{253, 0}";
},
{
name = top;
position = "{188, 591}";
},
{
name = topright;
position = "{270, 591}";
}
);
layerId = "04A772B0-FA71-43EE-BB43-CAC7F0EBD631";
paths = (
{
closed = 1;
nodes = (
"308 -11 OFFCURVE",
"364 19 OFFCURVE",
"364 176 CURVE SMOOTH",
"364 592 LINE",
"12 592 LINE",
"12 176 LINE SMOOTH",
"12 19 OFFCURVE",
"67 -11 OFFCURVE",
"188 -11 CURVE SMOOTH"
);
},
{
closed = 1;
nodes = (
"79 7 OFFCURVE",
"29 36 OFFCURVE",
"29 176 CURVE SMOOTH",
"29 574 LINE",
"182 574 LINE",
"182 132 LINE SMOOTH",
"182 125 OFFCURVE",
"183 120 OFFCURVE",
"184 118 CURVE SMOOTH",
"185 115 OFFCURVE",
"187 114 OFFCURVE",
"188 114 CURVE SMOOTH",
"190 114 OFFCURVE",
"192 115 OFFCURVE",
"193 118 CURVE SMOOTH",
"194 120 OFFCURVE",
"194 125 OFFCURVE",
"194 132 CURVE SMOOTH",
"194 574 LINE",
"347 574 LINE",
"347 176 LINE SMOOTH",
"347 34 OFFCURVE",
"297 7 OFFCURVE",
"188 7 CURVE SMOOTH"
);
},
{
closed = 1;
nodes = (
"290 16 OFFCURVE",
"339 41 OFFCURVE",
"339 176 CURVE SMOOTH",
"339 565 LINE",
"203 565 LINE",
"203 132 LINE SMOOTH",
"203 121 OFFCURVE",
"202 114 OFFCURVE",
"199 111 CURVE SMOOTH",
"196 107 OFFCURVE",
"193 105 OFFCURVE",
"188 105 CURVE SMOOTH",
"184 105 OFFCURVE",
"181 107 OFFCURVE",
"178 111 CURVE SMOOTH",
"175 114 OFFCURVE",
"174 121 OFFCURVE",
"174 132 CURVE SMOOTH",
"174 565 LINE",
"38 565 LINE",
"38 176 LINE SMOOTH",
"38 41 OFFCURVE",
"87 16 OFFCURVE",
"188 16 CURVE SMOOTH"
);
}
);
width = 376;
}
);
leftKerningGroup = U;
leftMetricsKey = "=O+5";
note = U;
rightKerningGroup = U;
rightMetricsKey = "=O+5";
unicode = 0055;
},
{
color = 8;
glyphname = Uhorn;
lastChange = "2021-12-03 03:55:39 +0000";
layers = (
{
anchors = (
{
name = bottom;
position = "{201, 0}";
},
{
name = ogonek;
position = "{270, 0}";
},
{
name = top;
position = "{201, 591}";
},
{
name = topright;
position = "{434, 658}";
}
);
background = {
components = (
{
name = horncomb;
transform = "{1, 0, 0, 1, 242, 119}";
},
{
name = U;
}
);
};
layerId = "04A772B0-FA71-43EE-BB43-CAC7F0EBD631";
paths = (
{
closed = 1;
nodes = (
"314 608 OFFCURVE",
"301 591 OFFCURVE",
"272 591 CURVE SMOOTH",
"218 591 LINE",
"218 115 LINE SMOOTH",
"218 92 OFFCURVE",
"211 85 OFFCURVE",
"201 85 CURVE SMOOTH",
"191 85 OFFCURVE",
"184 92 OFFCURVE",
"184 115 CURVE SMOOTH",
"184 591 LINE",
"25 591 LINE",
"25 163 LINE SMOOTH",
"25 4 OFFCURVE",
"95 -12 OFFCURVE",
"201 -12 CURVE SMOOTH",
"307 -12 OFFCURVE",
"377 4 OFFCURVE",
"377 164 CURVE SMOOTH",
"377 552 LINE",
"402 570 OFFCURVE",
"414 598 OFFCURVE",
"414 638 CURVE SMOOTH",
"414 658 LINE",
"314 658 LINE",
"314 638 LINE SMOOTH"
);
}
);
width = 402;
}
);
leftKerningGroup = U;
rightKerningGroup = U;
unicode = 01AF;
},
{
color = 8;
glyphname = Uogonek;
lastChange = "2021-12-03 03:52:48 +0000";
layers = (
{
anchors = (
{
name = bottom;
position = "{201, 0}";
},
{
name = ogonek;
position = "{270, 0}";
},
{
name = top;
position = "{201, 591}";
},
{
name = topright;
position = "{251, 591}";
}
);
background = {
components = (
{
name = U;
},
{
name = ogonek;
}
);
};
layerId = "04A772B0-FA71-43EE-BB43-CAC7F0EBD631";
paths = (
{
closed = 1;
nodes = (
"218 92 OFFCURVE",
"211 85 OFFCURVE",
"201 85 CURVE SMOOTH",
"191 85 OFFCURVE",
"184 92 OFFCURVE",
"184 115 CURVE SMOOTH",
"184 591 LINE",
"25 591 LINE",
"25 163 LINE SMOOTH",
"25 21 OFFCURVE",
"81 -7 OFFCURVE",
"168 -11 CURVE",
"138 -28 OFFCURVE",
"121 -57 OFFCURVE",
"121 -83 CURVE SMOOTH",
"121 -117 OFFCURVE",
"156 -151 OFFCURVE",
"214 -151 CURVE SMOOTH",
"264 -151 OFFCURVE",
"284 -137 OFFCURVE",
"291 -133 CURVE",
"274 -96 LINE",
"271 -96 OFFCURVE",
"265 -99 OFFCURVE",
"256 -99 CURVE SMOOTH",
"240 -99 OFFCURVE",
"219 -85 OFFCURVE",
"219 -61 CURVE SMOOTH",
"219 -44 OFFCURVE",
"228 -24 OFFCURVE",
"247 -10 CURVE",
"327 -4 OFFCURVE",
"377 29 OFFCURVE",
"377 164 CURVE SMOOTH",
"377 591 LINE",
"218 591 LINE",
"218 115 LINE SMOOTH"
);
}
);
width = 402;
}
);
leftKerningGroup = U;
rightKerningGroup = U;
unicode = 0172;
},
{
glyphname = V;
lastChange = "2021-12-06 10:21:32 +0000";
layers = (
{
layerId = "04A772B0-FA71-43EE-BB43-CAC7F0EBD631";
paths = (
{
closed = 1;
nodes = (
"331 0 LINE",
"415 591 LINE",
"223 591 LINE",
"211 473 LINE",
"202 591 LINE",
"3 591 LINE",
"86 0 LINE"
);
},
{
closed = 1;
nodes = (
"23 573 LINE",
"185 573 LINE",
"211 275 LINE",
"238 573 LINE",
"395 573 LINE",
"316 18 LINE",
"101 18 LINE"
);
},
{
closed = 1;
nodes = (
"308 27 LINE",
"385 564 LINE",
"246 564 LINE",
"211 192 LINE",
"210 170 LINE",
"209 192 LINE",
"177 564 LINE",
"34 564 LINE",
"109 27 LINE"
);
}
);
userData = {
assembly = "SVTCA[0]	/* SetFreedomAndProjectionVectorToAxis */\012PUSHW[ ]	/* 1 value pushed */\0122 \012MDAP[1]	/* MoveDirectAbsPt */\012IUP[0]	/* InterpolateUntPts */\012IUP[1]	/* InterpolateUntPts */";
};
width = 418;
}
);
leftKerningGroup = V;
note = V;
rightKerningGroup = V;
unicode = 0056;
},
{
glyphname = W;
lastChange = "2021-12-07 16:23:14 +0000";
layers = (
{
anchors = (
{
name = bottom;
position = "{318, 0}";
},
{
name = top;
position = "{318, 591}";
}
);
layerId = "04A772B0-FA71-43EE-BB43-CAC7F0EBD631";
paths = (
{
closed = 1;
nodes = (
"306 0 LINE",
"317 76 LINE",
"329 0 LINE",
"546 0 LINE",
"633 591 LINE",
"426 591 LINE",
"425 575 OFFCURVE",
"423 556 OFFCURVE",
"420 535 CURVE SMOOTH",
"417 513 OFFCURVE",
"415 493 OFFCURVE",
"414 476 CURVE",
"403 591 LINE",
"231 591 LINE",
"221 483 LINE",
"210 591 LINE",
"3 591 LINE",
"89 0 LINE"
);
},
{
closed = 1;
nodes = (
"24 573 LINE",
"193 573 LINE",
"221 304 LINE",
"232 395 OFFCURVE",
"241 485 OFFCURVE",
"249 573 CURVE",
"386 573 LINE",
"413 304 LINE",
"418 349 OFFCURVE",
"423 395 OFFCURVE",
"428 440 CURVE SMOOTH",
"442 573 LINE",
"612 573 LINE",
"531 18 LINE",
"345 18 LINE",
"318 198 LINE",
"313 167 OFFCURVE",
"309 137 OFFCURVE",
"304 107 CURVE SMOOTH",
"291 18 LINE",
"105 18 LINE"
);
},
{
closed = 1;
nodes = (
"283 27 LINE",
"317 261 LINE",
"353 27 LINE",
"522 27 LINE",
"601 564 LINE",
"450 564 LINE",
"413 209 LINE",
"378 564 LINE",
"257 564 LINE",
"222 209 LINE",
"185 564 LINE",
"34 564 LINE",
"113 27 LINE"
);
}
);
userData = {
assembly = "SVTCA[0]	/* SetFreedomAndProjectionVectorToAxis */\012PUSHW[ ]	/* 1 value pushed */\0123 \012MDAP[1]	/* MoveDirectAbsPt */\012PUSHW[ ]	/* 1 value pushed */\0126 \012MDAP[1]	/* MoveDirectAbsPt */\012IUP[0]	/* InterpolateUntPts */\012IUP[1]	/* InterpolateUntPts */";
};
width = 636;
}
);
leftKerningGroup = W;
note = W;
rightKerningGroup = W;
unicode = 0057;
},
{
glyphname = X;
lastChange = "2021-12-06 10:21:32 +0000";
layers = (
{
layerId = "04A772B0-FA71-43EE-BB43-CAC7F0EBD631";
paths = (
{
closed = 1;
nodes = (
"205 0 LINE",
"208 11 OFFCURVE",
"210 21 OFFCURVE",
"211 33 CURVE",
"217 0 LINE",
"409 0 LINE",
"338 305 LINE",
"412 591 LINE",
"209 591 LINE",
"206 580 OFFCURVE",
"204 570 OFFCURVE",
"203 558 CURVE",
"196 591 LINE",
"3 591 LINE",
"12 554 OFFCURVE",
"30 489 OFFCURVE",
"41 449 CURVE SMOOTH",
"52 408 OFFCURVE",
"70 343 OFFCURVE",
"79 306 CURVE",
"2 0 LINE"
);
},
{
closed = 1;
nodes = (
"97 306 LINE",
"26 573 LINE",
"183 573 LINE",
"205 471 LINE",
"208 488 OFFCURVE",
"212 506 OFFCURVE",
"215 523 CURVE SMOOTH",
"224 573 LINE",
"389 573 LINE",
"321 306 LINE",
"388 18 LINE",
"231 18 LINE",
"209 120 LINE",
"202 85 OFFCURVE",
"196 51 OFFCURVE",
"191 18 CURVE",
"25 18 LINE"
);
},
{
closed = 1;
nodes = (
"183 27 LINE",
"208 167 LINE",
"238 27 LINE",
"376 27 LINE",
"311 306 LINE",
"378 564 LINE",
"231 564 LINE",
"206 423 LINE",
"176 564 LINE",
"38 564 LINE",
"106 306 LINE",
"36 27 LINE"
);
}
);
userData = {
assembly = "SVTCA[0]	/* SetFreedomAndProjectionVectorToAxis */\012PUSHW[ ]	/* 1 value pushed */\0121 \012MDAP[1]	/* MoveDirectAbsPt */\012PUSHW[ ]	/* 1 value pushed */\01210 \012MDAP[1]	/* MoveDirectAbsPt */\012PUSHW[ ]	/* 1 value pushed */\01228 \012MDAP[1]	/* MoveDirectAbsPt */\012PUSHW[ ]	/* 1 value pushed */\0124 \012MDAP[1]	/* MoveDirectAbsPt */\012PUSHW[ ]	/* 1 value pushed */\0127 \012MDAP[1]	/* MoveDirectAbsPt */\012PUSHW[ ]	/* 1 value pushed */\01240 \012MDAP[1]	/* MoveDirectAbsPt */\012PUSHW[ ]	/* 3 values pushed */\0120 1 4 \012SRP1[ ]	/* SetRefPoint1 */\012SRP2[ ]	/* SetRefPoint2 */\012IP[ ]	/* InterpolatePts */\012PUSHW[ ]	/* 3 values pushed */\0126 1 4 \012SRP1[ ]	/* SetRefPoint1 */\012SRP2[ ]	/* SetRefPoint2 */\012IP[ ]	/* InterpolatePts */\012PUSHW[ ]	/* 3 values pushed */\01219 1 4 \012SRP1[ ]	/* SetRefPoint1 */\012SRP2[ ]	/* SetRefPoint2 */\012IP[ ]	/* InterpolatePts */\012PUSHW[ ]	/* 3 values pushed */\01227 1 4 \012SRP1[ ]	/* SetRefPoint1 */\012SRP2[ ]	/* SetRefPoint2 */\012IP[ ]	/* InterpolatePts */\012IUP[0]	/* InterpolateUntPts */\012IUP[1]	/* InterpolateUntPts */";
};
width = 414;
}
);
leftKerningGroup = X;
note = X;
rightKerningGroup = X;
unicode = 0058;
},
{
glyphname = Y;
lastChange = "2021-12-06 10:21:32 +0000";
layers = (
{
anchors = (
{
name = bottom;
position = "{201, 0}";
},
{
name = top;
position = "{209, 591}";
},
{
name = topleft;
position = "{17, 591}";
}
);
layerId = "04A772B0-FA71-43EE-BB43-CAC7F0EBD631";
paths = (
{
closed = 1;
nodes = (
"297 0 LINE",
"297 236 LINE",
"406 591 LINE",
"225 591 LINE",
"209 527 LINE",
"193 591 LINE",
"1 591 LINE",
"108 244 LINE",
"108 0 LINE"
);
},
{
closed = 1;
nodes = (
"125 247 LINE",
"25 573 LINE",
"180 573 LINE",
"209 456 LINE",
"238 573 LINE",
"382 573 LINE",
"280 239 LINE",
"280 18 LINE",
"125 18 LINE"
);
},
{
closed = 1;
nodes = (
"271 27 LINE",
"271 241 LINE",
"370 564 LINE",
"245 564 LINE",
"217 451 LINE",
"209 404 LINE",
"201 451 LINE",
"173 564 LINE",
"38 564 LINE",
"134 250 LINE",
"134 27 LINE"
);
}
);
userData = {
assembly = "PUSHW[ ]	/* 4 values pushed */\0122 6 3 4 \012CALL[ ]	/* CallFunction */\012PUSHW[ ]	/* 3 values pushed */\0128 3 2 \012SRP1[ ]	/* SetRefPoint1 */\012SRP2[ ]	/* SetRefPoint2 */\012IP[ ]	/* InterpolatePts */\012PUSHW[ ]	/* 3 values pushed */\01212 3 2 \012SRP1[ ]	/* SetRefPoint1 */\012SRP2[ ]	/* SetRefPoint2 */\012IP[ ]	/* InterpolatePts */\012PUSHW[ ]	/* 3 values pushed */\01227 3 2 \012SRP1[ ]	/* SetRefPoint1 */\012SRP2[ ]	/* SetRefPoint2 */\012IP[ ]	/* InterpolatePts */\012SVTCA[0]	/* SetFreedomAndProjectionVectorToAxis */\012PUSHW[ ]	/* 1 value pushed */\0122 \012MDAP[1]	/* MoveDirectAbsPt */\012IUP[0]	/* InterpolateUntPts */\012IUP[1]	/* InterpolateUntPts */";
};
width = 407;
}
);
leftKerningGroup = Y;
note = Y;
rightKerningGroup = Y;
unicode = 0059;
},
{
glyphname = Z;
lastChange = "2021-12-06 10:21:32 +0000";
layers = (
{
anchors = (
{
name = bottom;
position = "{148, 0}";
},
{
name = center;
position = "{148, 296}";
},
{
name = top;
position = "{148, 591}";
}
);
layerId = "04A772B0-FA71-43EE-BB43-CAC7F0EBD631";
paths = (
{
closed = 1;
nodes = (
"292 0 LINE",
"292 155 LINE",
"205 155 LINE",
"292 492 LINE",
"292 591 LINE",
"13 591 LINE",
"13 436 LINE",
"85 436 LINE",
"4 120 LINE",
"4 0 LINE"
);
},
{
closed = 1;
nodes = (
"21 119 LINE",
"107 454 LINE",
"29 454 LINE",
"29 573 LINE",
"276 573 LINE",
"276 493 LINE",
"183 137 LINE",
"276 137 LINE",
"276 18 LINE",
"21 18 LINE"
);
},
{
closed = 1;
nodes = (
"267 27 LINE",
"267 128 LINE",
"172 128 LINE",
"267 496 LINE",
"267 564 LINE",
"37 564 LINE",
"37 463 LINE",
"118 463 LINE",
"29 116 LINE",
"29 27 LINE"
);
}
);
userData = {
assembly = "PUSHW[ ]	/* 4 values pushed */\01210 5 20 4 \012CALL[ ]	/* CallFunction */\012PUSHW[ ]	/* 3 values pushed */\01212 20 10 \012SRP1[ ]	/* SetRefPoint1 */\012SRP2[ ]	/* SetRefPoint2 */\012IP[ ]	/* InterpolatePts */\012PUSHW[ ]	/* 1 value pushed */\01210 \012SRP0[ ]	/* SetRefPoint0 */\012PUSHW[ ]	/* 1 value pushed */\01213 \012MDRP[10000]	/* MoveDirectRelPt */\012PUSHW[ ]	/* 1 value pushed */\01211 \012SRP0[ ]	/* SetRefPoint0 */\012PUSHW[ ]	/* 1 value pushed */\01214 \012MDRP[10000]	/* MoveDirectRelPt */\012PUSHW[ ]	/* 1 value pushed */\01210 \012SRP0[ ]	/* SetRefPoint0 */\012PUSHW[ ]	/* 2 values pushed */\01218 5 \012MIRP[10100]	/* MoveIndirectRelPt */\012PUSHW[ ]	/* 1 value pushed */\01210 \012SRP0[ ]	/* SetRefPoint0 */\012PUSHW[ ]	/* 1 value pushed */\01231 \012MDRP[11100]	/* MoveDirectRelPt */\012SVTCA[0]	/* SetFreedomAndProjectionVectorToAxis */\012PUSHW[ ]	/* 4 values pushed */\0127 3 9 4 \012CALL[ ]	/* CallFunction */\012IUP[0]	/* InterpolateUntPts */\012IUP[1]	/* InterpolateUntPts */";
};
width = 296;
}
);
leftKerningGroup = Z;
note = Z;
rightKerningGroup = Z;
unicode = 005A;
},
{
color = 2;
glyphname = A.tabular;
lastChange = "2021-12-03 13:19:10 +0000";
layers = (
{
anchors = (
{
name = bottom;
position = "{217, 0}";
},
{
name = ogonek;
position = "{392, 0}";
},
{
name = top;
position = "{218, 495}";
}
);
layerId = "04A772B0-FA71-43EE-BB43-CAC7F0EBD631";
paths = (
{
closed = 1;
nodes = (
"394 0 LINE",
"327 496 LINE",
"115 496 LINE",
"46 0 LINE"
);
},
{
closed = 1;
nodes = (
"222 158 LINE",
"217 228 LINE",
"213 158 LINE"
);
},
{
closed = 1;
nodes = (
"130 478 LINE",
"312 478 LINE",
"374 18 LINE",
"228 18 LINE",
"223 82 LINE",
"213 82 LINE",
"212.333 72 OFFCURVE",
"212 61 OFFCURVE",
"211 49.5 CURVE SMOOTH",
"209 18 LINE",
"66 18 LINE"
);
},
{
closed = 1;
nodes = (
"200 27 LINE",
"205 91 LINE",
"231 91 LINE",
"236 27 LINE",
"364 27 LINE",
"305 469 LINE",
"137 469 LINE",
"76 27 LINE"
);
},
{
closed = 1;
nodes = (
"218 376 LINE",
"231 149 LINE",
"205 149 LINE"
);
}
);
userData = {
assembly = "PUSHW[ ]	/* 3 values pushed */\01224 5 3 \012CALL[ ]	/* CallFunction */\012PUSHW[ ]	/* 1 value pushed */\0125 \012SRP0[ ]	/* SetRefPoint0 */\012PUSHW[ ]	/* 1 value pushed */\0128 \012MDRP[10000]	/* MoveDirectRelPt */\012PUSHW[ ]	/* 1 value pushed */\0128 \012MDAP[1]	/* MoveDirectAbsPt */\012PUSHW[ ]	/* 1 value pushed */\01224 \012SRP0[ ]	/* SetRefPoint0 */\012PUSHW[ ]	/* 1 value pushed */\01210 \012MDRP[10000]	/* MoveDirectRelPt */\012PUSHW[ ]	/* 1 value pushed */\01210 \012MDAP[1]	/* MoveDirectAbsPt */\012PUSHW[ ]	/* 1 value pushed */\01224 \012SRP0[ ]	/* SetRefPoint0 */\012PUSHW[ ]	/* 1 value pushed */\01211 \012MDRP[10000]	/* MoveDirectRelPt */\012PUSHW[ ]	/* 1 value pushed */\01211 \012MDAP[1]	/* MoveDirectAbsPt */\012PUSHW[ ]	/* 1 value pushed */\01224 \012SRP0[ ]	/* SetRefPoint0 */\012PUSHW[ ]	/* 1 value pushed */\01216 \012MDRP[10000]	/* MoveDirectRelPt */\012PUSHW[ ]	/* 1 value pushed */\01216 \012MDAP[1]	/* MoveDirectAbsPt */\012SVTCA[0]	/* SetFreedomAndProjectionVectorToAxis */\012PUSHW[ ]	/* 1 value pushed */\0120 \012RCVT[ ]	/* ReadCVT */\012IF[ ]	/* If */\012PUSHW[ ]	/* 1 value pushed */\01228 \012MDAP[1]	/* MoveDirectAbsPt */\012ELSE[ ]	/* Else */\012PUSHW[ ]	/* 2 values pushed */\01228 11 \012MIAP[0]	/* MoveIndirectAbsPt */\012EIF[ ]	/* EndIf */\012PUSHW[ ]	/* 1 value pushed */\0120 \012RCVT[ ]	/* ReadCVT */\012IF[ ]	/* If */\012PUSHW[ ]	/* 1 value pushed */\01229 \012MDAP[1]	/* MoveDirectAbsPt */\012ELSE[ ]	/* Else */\012PUSHW[ ]	/* 2 values pushed */\01229 7 \012MIAP[0]	/* MoveIndirectAbsPt */\012EIF[ ]	/* EndIf */\012PUSHW[ ]	/* 3 values pushed */\01210 29 28 \012SRP1[ ]	/* SetRefPoint1 */\012SRP2[ ]	/* SetRefPoint2 */\012IP[ ]	/* InterpolatePts */\012PUSHW[ ]	/* 3 values pushed */\01211 29 28 \012SRP1[ ]	/* SetRefPoint1 */\012SRP2[ ]	/* SetRefPoint2 */\012IP[ ]	/* InterpolatePts */\012IUP[0]	/* InterpolateUntPts */\012IUP[1]	/* InterpolateUntPts */";
};
width = 450;
}
);
note = A.tabular;
},
{
color = 2;
glyphname = AE.tabular;
lastChange = "2021-12-03 13:19:10 +0000";
layers = (
{
layerId = "04A772B0-FA71-43EE-BB43-CAC7F0EBD631";
paths = (
{
closed = 1;
nodes = (
"639 0 LINE",
"639 135 LINE",
"545 135 LINE",
"542.333 155 OFFCURVE",
"540.667 165.333 OFFCURVE",
"538 180 CURVE",
"632 180 LINE",
"632 327 LINE",
"519 327 LINE",
"517.667 334.333 OFFCURVE",
"516.667 340.5 OFFCURVE",
"516 345.5 CURVE SMOOTH",
"514 360 LINE",
"639 360 LINE",
"639 496 LINE",
"276 496 LINE",
"206 0 LINE"
);
},
{
closed = 1;
nodes = (
"387 158 LINE",
"382 230 LINE",
"378 158 LINE"
);
},
{
closed = 1;
nodes = (
"381 357 LINE",
"382 376 LINE",
"383 357 LINE",
"395 149 LINE",
"369 149 LINE"
);
},
{
closed = 1;
nodes = (
"291 478 LINE",
"622 478 LINE",
"622 377 LINE",
"493 377 LINE",
"494.333 365.667 OFFCURVE",
"496 354.667 OFFCURVE",
"498 344 CURVE SMOOTH",
"500 333.333 OFFCURVE",
"501.667 322 OFFCURVE",
"503 310 CURVE",
"615 310 LINE",
"615 198 LINE",
"518 198 LINE",
"520 184 OFFCURVE",
"522 170.5 OFFCURVE",
"524 157.5 CURVE SMOOTH",
"530 117 LINE",
"622 117 LINE",
"622 18 LINE",
"394 18 LINE",
"387 82 LINE",
"377 82 LINE",
"376.333 72 OFFCURVE",
"375.5 61.167 OFFCURVE",
"374.5 49.5 CURVE SMOOTH",
"372 18 LINE",
"226 18 LINE"
);
},
{
closed = 1;
nodes = (
"364 27 LINE",
"368 91 LINE",
"395 91 LINE",
"401 27 LINE",
"613 27 LINE",
"613 108 LINE",
"522 108 LINE",
"508 207 LINE",
"606 207 LINE",
"606 301 LINE",
"495 301 LINE",
"483 386 LINE",
"613 386 LINE",
"613 469 LINE",
"299 469 LINE",
"236 27 LINE"
);
}
);
userData = {
assembly = "PUSHW[ ]	/* 4 values pushed */\01231 5 44 4 \012CALL[ ]	/* CallFunction */\012PUSHW[ ]	/* 1 value pushed */\01231 \012SRP0[ ]	/* SetRefPoint0 */\012PUSHW[ ]	/* 1 value pushed */\0125 \012MDRP[10000]	/* MoveDirectRelPt */\012PUSHW[ ]	/* 1 value pushed */\0125 \012MDAP[1]	/* MoveDirectAbsPt */\012PUSHW[ ]	/* 1 value pushed */\01210 \012SRP0[ ]	/* SetRefPoint0 */\012PUSHW[ ]	/* 1 value pushed */\0126 \012MDRP[10000]	/* MoveDirectRelPt */\012PUSHW[ ]	/* 1 value pushed */\0126 \012MDAP[1]	/* MoveDirectAbsPt */\012PUSHW[ ]	/* 1 value pushed */\01231 \012SRP0[ ]	/* SetRefPoint0 */\012PUSHW[ ]	/* 1 value pushed */\01213 \012MDRP[10000]	/* MoveDirectRelPt */\012PUSHW[ ]	/* 1 value pushed */\01213 \012MDAP[1]	/* MoveDirectAbsPt */\012PUSHW[ ]	/* 1 value pushed */\01210 \012SRP0[ ]	/* SetRefPoint0 */\012PUSHW[ ]	/* 1 value pushed */\01214 \012MDRP[10000]	/* MoveDirectRelPt */\012PUSHW[ ]	/* 1 value pushed */\01214 \012MDAP[1]	/* MoveDirectAbsPt */\012PUSHW[ ]	/* 1 value pushed */\01244 \012SRP0[ ]	/* SetRefPoint0 */\012PUSHW[ ]	/* 1 value pushed */\01218 \012MDRP[10000]	/* MoveDirectRelPt */\012PUSHW[ ]	/* 1 value pushed */\01218 \012MDAP[1]	/* MoveDirectAbsPt */\012PUSHW[ ]	/* 1 value pushed */\0125 \012SRP0[ ]	/* SetRefPoint0 */\012PUSHW[ ]	/* 2 values pushed */\01221 5 \012MIRP[10100]	/* MoveIndirectRelPt */\012PUSHW[ ]	/* 1 value pushed */\01219 \012MDRP[10000]	/* MoveDirectRelPt */\012PUSHW[ ]	/* 1 value pushed */\01219 \012MDAP[1]	/* MoveDirectAbsPt */\012PUSHW[ ]	/* 1 value pushed */\01244 \012SRP0[ ]	/* SetRefPoint0 */\012PUSHW[ ]	/* 1 value pushed */\01220 \012MDRP[10000]	/* MoveDirectRelPt */\012PUSHW[ ]	/* 1 value pushed */\01220 \012MDAP[1]	/* MoveDirectAbsPt */\012PUSHW[ ]	/* 1 value pushed */\01244 \012SRP0[ ]	/* SetRefPoint0 */\012PUSHW[ ]	/* 1 value pushed */\01222 \012MDRP[10000]	/* MoveDirectRelPt */\012PUSHW[ ]	/* 1 value pushed */\01222 \012MDAP[1]	/* MoveDirectAbsPt */\012PUSHW[ ]	/* 3 values pushed */\01223 44 31 \012SRP1[ ]	/* SetRefPoint1 */\012SRP2[ ]	/* SetRefPoint2 */\012IP[ ]	/* InterpolatePts */\012PUSHW[ ]	/* 1 value pushed */\01221 \012SRP0[ ]	/* SetRefPoint0 */\012PUSHW[ ]	/* 1 value pushed */\01224 \012MDRP[10000]	/* MoveDirectRelPt */\012PUSHW[ ]	/* 1 value pushed */\01224 \012MDAP[1]	/* MoveDirectAbsPt */\012PUSHW[ ]	/* 1 value pushed */\01231 \012SRP0[ ]	/* SetRefPoint0 */\012PUSHW[ ]	/* 1 value pushed */\01225 \012MDRP[10000]	/* MoveDirectRelPt */\012PUSHW[ ]	/* 1 value pushed */\01225 \012MDAP[1]	/* MoveDirectAbsPt */\012PUSHW[ ]	/* 1 value pushed */\01231 \012SRP0[ ]	/* SetRefPoint0 */\012PUSHW[ ]	/* 1 value pushed */\01237 \012MDRP[10000]	/* MoveDirectRelPt */\012PUSHW[ ]	/* 1 value pushed */\01237 \012MDAP[1]	/* MoveDirectAbsPt */\012PUSHW[ ]	/* 1 value pushed */\01244 \012SRP0[ ]	/* SetRefPoint0 */\012PUSHW[ ]	/* 1 value pushed */\01241 \012MDRP[10000]	/* MoveDirectRelPt */\012PUSHW[ ]	/* 1 value pushed */\01241 \012MDAP[1]	/* MoveDirectAbsPt */\012PUSHW[ ]	/* 1 value pushed */\01218 \012SRP0[ ]	/* SetRefPoint0 */\012PUSHW[ ]	/* 2 values pushed */\01254 5 \012MIRP[10100]	/* MoveIndirectRelPt */\012PUSHW[ ]	/* 1 value pushed */\01247 \012MDRP[10000]	/* MoveDirectRelPt */\012PUSHW[ ]	/* 1 value pushed */\01247 \012MDAP[1]	/* MoveDirectAbsPt */\012PUSHW[ ]	/* 1 value pushed */\01254 \012SRP0[ ]	/* SetRefPoint0 */\012PUSHW[ ]	/* 1 value pushed */\01259 \012MDRP[10000]	/* MoveDirectRelPt */\012PUSHW[ ]	/* 1 value pushed */\01259 \012MDAP[1]	/* MoveDirectAbsPt */\012SVTCA[0]	/* SetFreedomAndProjectionVectorToAxis */\012PUSHW[ ]	/* 1 value pushed */\0120 \012RCVT[ ]	/* ReadCVT */\012IF[ ]	/* If */\012PUSHW[ ]	/* 1 value pushed */\01246 \012MDAP[1]	/* MoveDirectAbsPt */\012ELSE[ ]	/* Else */\012PUSHW[ ]	/* 2 values pushed */\01246 11 \012MIAP[0]	/* MoveIndirectAbsPt */\012EIF[ ]	/* EndIf */\012PUSHW[ ]	/* 1 value pushed */\0120 \012RCVT[ ]	/* ReadCVT */\012IF[ ]	/* If */\012PUSHW[ ]	/* 1 value pushed */\01260 \012MDAP[1]	/* MoveDirectAbsPt */\012ELSE[ ]	/* Else */\012PUSHW[ ]	/* 2 values pushed */\01260 7 \012MIAP[0]	/* MoveIndirectAbsPt */\012EIF[ ]	/* EndIf */\012PUSHW[ ]	/* 4 values pushed */\01258 4 14 4 \012CALL[ ]	/* CallFunction */\012PUSHW[ ]	/* 4 values pushed */\01231 2 26 4 \012CALL[ ]	/* CallFunction */\012PUSHW[ ]	/* 4 values pushed */\0129 4 54 4 \012CALL[ ]	/* CallFunction */\012PUSHW[ ]	/* 4 values pushed */\01237 2 32 4 \012CALL[ ]	/* CallFunction */\012PUSHW[ ]	/* 1 value pushed */\01214 \012SRP0[ ]	/* SetRefPoint0 */\012PUSHW[ ]	/* 1 value pushed */\0122 \012MDRP[10000]	/* MoveDirectRelPt */\012PUSHW[ ]	/* 1 value pushed */\01246 \012SRP0[ ]	/* SetRefPoint0 */\012PUSHW[ ]	/* 2 values pushed */\0126 4 \012MIRP[10100]	/* MoveIndirectRelPt */\012PUSHW[ ]	/* 2 values pushed */\0125 2 \012MIRP[10100]	/* MoveIndirectRelPt */\012PUSHW[ ]	/* 1 value pushed */\0129 \012SRP0[ ]	/* SetRefPoint0 */\012PUSHW[ ]	/* 2 values pushed */\01210 1 \012MIRP[10100]	/* MoveIndirectRelPt */\012PUSHW[ ]	/* 1 value pushed */\01260 \012SRP0[ ]	/* SetRefPoint0 */\012PUSHW[ ]	/* 2 values pushed */\01212 4 \012MIRP[10100]	/* MoveIndirectRelPt */\012PUSHW[ ]	/* 1 value pushed */\0125 \012SRP0[ ]	/* SetRefPoint0 */\012PUSHW[ ]	/* 2 values pushed */\01248 4 \012MIRP[10100]	/* MoveIndirectRelPt */\012PUSHW[ ]	/* 3 values pushed */\01219 5 48 \012SRP1[ ]	/* SetRefPoint1 */\012SRP2[ ]	/* SetRefPoint2 */\012IP[ ]	/* InterpolatePts */\012PUSHW[ ]	/* 3 values pushed */\01223 54 9 \012SRP1[ ]	/* SetRefPoint1 */\012SRP2[ ]	/* SetRefPoint2 */\012IP[ ]	/* InterpolatePts */\012PUSHW[ ]	/* 1 value pushed */\01210 \012SRP0[ ]	/* SetRefPoint0 */\012PUSHW[ ]	/* 2 values pushed */\01253 4 \012MIRP[10100]	/* MoveIndirectRelPt */\012IUP[0]	/* InterpolateUntPts */\012IUP[1]	/* InterpolateUntPts */";
};
width = 858;
}
);
note = AE.tabular;
},
{
color = 2;
glyphname = B.tabular;
lastChange = "2021-12-03 13:19:10 +0000";
layers = (
{
layerId = "04A772B0-FA71-43EE-BB43-CAC7F0EBD631";
paths = (
{
closed = 1;
nodes = (
"244 0 LINE SMOOTH",
"325.333 0 OFFCURVE",
"374 29.333 OFFCURVE",
"374 120 CURVE SMOOTH",
"374 178 LINE SMOOTH",
"374 218 OFFCURVE",
"358.667 250.333 OFFCURVE",
"340 269 CURVE",
"356 287.667 OFFCURVE",
"364 316.667 OFFCURVE",
"364 346 CURVE SMOOTH",
"364 394 LINE SMOOTH",
"364 454 OFFCURVE",
"331 496 OFFCURVE",
"251 496 CURVE SMOOTH",
"62 496 LINE",
"62 0 LINE"
);
},
{
closed = 1;
nodes = (
"204 213 LINE",
"215 213 LINE SMOOTH",
"221 213 OFFCURVE",
"224.5 207 OFFCURVE",
"225.5 195 CURVE SMOOTH",
"226.5 183 OFFCURVE",
"227 168.333 OFFCURVE",
"227 151 CURVE SMOOTH",
"227 133 OFFCURVE",
"226.333 117.833 OFFCURVE",
"225 105.5 CURVE SMOOTH",
"223.667 93.167 OFFCURVE",
"220.333 87 OFFCURVE",
"215 87 CURVE SMOOTH",
"204 87 LINE"
);
},
{
closed = 1;
nodes = (
"215 96 LINE SMOOTH",
"216.333 96 OFFCURVE",
"217.333 101.333 OFFCURVE",
"218 112 CURVE SMOOTH",
"218.667 122.667 OFFCURVE",
"219 135.667 OFFCURVE",
"219 151 CURVE SMOOTH",
"218.5 188.5 LINE SMOOTH",
"218.167 198.833 OFFCURVE",
"217 204 OFFCURVE",
"215 204 CURVE SMOOTH",
"212 204 LINE",
"212 96 LINE"
);
},
{
closed = 1;
nodes = (
"79 478 LINE",
"251 478 LINE SMOOTH",
"319 478 OFFCURVE",
"347 443.333 OFFCURVE",
"347 394 CURVE SMOOTH",
"347 346 LINE SMOOTH",
"347 311.333 OFFCURVE",
"336.667 282 OFFCURVE",
"310 266 CURVE",
"339.333 254 OFFCURVE",
"357 226 OFFCURVE",
"357 178 CURVE SMOOTH",
"357 120 LINE SMOOTH",
"357 41.333 OFFCURVE",
"313.333 18 OFFCURVE",
"244 18 CURVE SMOOTH",
"79 18 LINE"
);
},
{
closed = 1;
nodes = (
"244 27 LINE SMOOTH",
"309.333 27 OFFCURVE",
"349 49.333 OFFCURVE",
"349 120 CURVE SMOOTH",
"349 178 LINE SMOOTH",
"349 236.667 OFFCURVE",
"317 263 OFFCURVE",
"277 263 CURVE",
"277 265 LINE",
"321 270.333 OFFCURVE",
"339 303.333 OFFCURVE",
"339 346 CURVE SMOOTH",
"339 394 LINE SMOOTH",
"339 438 OFFCURVE",
"313.667 469 OFFCURVE",
"251 469 CURVE SMOOTH",
"87 469 LINE",
"87 27 LINE"
);
},
{
closed = 1;
nodes = (
"204 407 LINE",
"215 407 LINE SMOOTH",
"221 407 OFFCURVE",
"224.5 401.167 OFFCURVE",
"225.5 389.5 CURVE SMOOTH",
"226.5 377.833 OFFCURVE",
"227 363.667 OFFCURVE",
"227 347 CURVE SMOOTH",
"227 330.333 OFFCURVE",
"225.833 316.167 OFFCURVE",
"223.5 304.5 CURVE SMOOTH",
"221.167 292.833 OFFCURVE",
"217.667 287 OFFCURVE",
"213 287 CURVE SMOOTH",
"204 287 LINE"
);
},
{
closed = 1;
nodes = (
"213 296 LINE SMOOTH",
"215 296 OFFCURVE",
"216.5 301 OFFCURVE",
"217.5 311 CURVE SMOOTH",
"218.5 321 OFFCURVE",
"219 333 OFFCURVE",
"219 347 CURVE SMOOTH",
"218.5 383 LINE SMOOTH",
"218.167 393 OFFCURVE",
"217 398 OFFCURVE",
"215 398 CURVE SMOOTH",
"212 398 LINE",
"212 296 LINE"
);
}
);
userData = {
assembly = "PUSHW[ ]	/* 4 values pushed */\01235 6 71 4 \012CALL[ ]	/* CallFunction */\012PUSHW[ ]	/* 4 values pushed */\01212 6 45 4 \012CALL[ ]	/* CallFunction */\012PUSHW[ ]	/* 1 value pushed */\01235 \012SRP0[ ]	/* SetRefPoint0 */\012PUSHW[ ]	/* 2 values pushed */\0120 6 \012MIRP[10100]	/* MoveIndirectRelPt */\012PUSHW[ ]	/* 3 values pushed */\0129 45 12 \012SRP1[ ]	/* SetRefPoint1 */\012SRP2[ ]	/* SetRefPoint2 */\012IP[ ]	/* InterpolatePts */\012PUSHW[ ]	/* 1 value pushed */\01235 \012SRP0[ ]	/* SetRefPoint0 */\012PUSHW[ ]	/* 1 value pushed */\01218 \012MDRP[10000]	/* MoveDirectRelPt */\012PUSHW[ ]	/* 1 value pushed */\01212 \012SRP0[ ]	/* SetRefPoint0 */\012PUSHW[ ]	/* 2 values pushed */\01222 6 \012MIRP[10100]	/* MoveIndirectRelPt */\012PUSHW[ ]	/* 1 value pushed */\01231 \012MDRP[10000]	/* MoveDirectRelPt */\012PUSHW[ ]	/* 1 value pushed */\01245 \012SRP0[ ]	/* SetRefPoint0 */\012PUSHW[ ]	/* 1 value pushed */\01236 \012MDRP[10000]	/* MoveDirectRelPt */\012PUSHW[ ]	/* 1 value pushed */\01245 \012SRP0[ ]	/* SetRefPoint0 */\012PUSHW[ ]	/* 1 value pushed */\01240 \012MDRP[10000]	/* MoveDirectRelPt */\012PUSHW[ ]	/* 1 value pushed */\01240 \012MDAP[1]	/* MoveDirectAbsPt */\012PUSHW[ ]	/* 1 value pushed */\01212 \012SRP0[ ]	/* SetRefPoint0 */\012PUSHW[ ]	/* 1 value pushed */\01282 \012MDRP[11100]	/* MoveDirectRelPt */\012PUSHW[ ]	/* 3 values pushed */\01244 71 82 \012SRP1[ ]	/* SetRefPoint1 */\012SRP2[ ]	/* SetRefPoint2 */\012IP[ ]	/* InterpolatePts */\012PUSHW[ ]	/* 1 value pushed */\01245 \012SRP0[ ]	/* SetRefPoint0 */\012PUSHW[ ]	/* 1 value pushed */\01249 \012MDRP[10000]	/* MoveDirectRelPt */\012PUSHW[ ]	/* 1 value pushed */\01249 \012MDAP[1]	/* MoveDirectAbsPt */\012PUSHW[ ]	/* 3 values pushed */\01262 45 12 \012SRP1[ ]	/* SetRefPoint1 */\012SRP2[ ]	/* SetRefPoint2 */\012IP[ ]	/* InterpolatePts */\012PUSHW[ ]	/* 1 value pushed */\01212 \012SRP0[ ]	/* SetRefPoint0 */\012PUSHW[ ]	/* 1 value pushed */\01265 \012MDRP[10000]	/* MoveDirectRelPt */\012PUSHW[ ]	/* 1 value pushed */\01265 \012MDAP[1]	/* MoveDirectAbsPt */\012PUSHW[ ]	/* 1 value pushed */\01212 \012SRP0[ ]	/* SetRefPoint0 */\012PUSHW[ ]	/* 1 value pushed */\01289 \012MDRP[11100]	/* MoveDirectRelPt */\012SVTCA[0]	/* SetFreedomAndProjectionVectorToAxis */\012PUSHW[ ]	/* 1 value pushed */\0120 \012RCVT[ ]	/* ReadCVT */\012IF[ ]	/* If */\012PUSHW[ ]	/* 1 value pushed */\01271 \012MDAP[1]	/* MoveDirectAbsPt */\012ELSE[ ]	/* Else */\012PUSHW[ ]	/* 2 values pushed */\01271 11 \012MIAP[0]	/* MoveIndirectAbsPt */\012EIF[ ]	/* EndIf */\012PUSHW[ ]	/* 1 value pushed */\0120 \012RCVT[ ]	/* ReadCVT */\012IF[ ]	/* If */\012PUSHW[ ]	/* 1 value pushed */\01286 \012MDAP[1]	/* MoveDirectAbsPt */\012ELSE[ ]	/* Else */\012PUSHW[ ]	/* 2 values pushed */\01286 7 \012MIAP[0]	/* MoveIndirectAbsPt */\012EIF[ ]	/* EndIf */\012PUSHW[ ]	/* 3 values pushed */\0129 86 71 \012SRP1[ ]	/* SetRefPoint1 */\012SRP2[ ]	/* SetRefPoint2 */\012IP[ ]	/* InterpolatePts */\012PUSHW[ ]	/* 3 values pushed */\01244 86 71 \012SRP1[ ]	/* SetRefPoint1 */\012SRP2[ ]	/* SetRefPoint2 */\012IP[ ]	/* InterpolatePts */\012PUSHW[ ]	/* 3 values pushed */\01253 86 71 \012SRP1[ ]	/* SetRefPoint1 */\012SRP2[ ]	/* SetRefPoint2 */\012IP[ ]	/* InterpolatePts */\012PUSHW[ ]	/* 3 values pushed */\01262 86 71 \012SRP1[ ]	/* SetRefPoint1 */\012SRP2[ ]	/* SetRefPoint2 */\012IP[ ]	/* InterpolatePts */\012IUP[0]	/* InterpolateUntPts */\012IUP[1]	/* InterpolateUntPts */";
};
width = 445;
}
);
note = B.tabular;
},
{
color = 2;
glyphname = C.tabular;
lastChange = "2021-12-03 13:19:10 +0000";
layers = (
{
layerId = "04A772B0-FA71-43EE-BB43-CAC7F0EBD631";
paths = (
{
closed = 1;
nodes = (
"322.072 -9 OFFCURVE",
"366 25.177 OFFCURVE",
"366 158 CURVE SMOOTH",
"366 240 LINE",
"232 240 LINE",
"232 246 LINE",
"366 246 LINE",
"366 377 LINE SMOOTH",
"366 471.667 OFFCURVE",
"311 505 OFFCURVE",
"219 505 CURVE SMOOTH",
"127 505 OFFCURVE",
"66 470.333 OFFCURVE",
"66 377 CURVE SMOOTH",
"66 157 LINE SMOOTH",
"66 25.033 OFFCURVE",
"115.969 -9 OFFCURVE",
"219 -9 CURVE SMOOTH"
);
},
{
closed = 1;
nodes = (
"126.464 9 OFFCURVE",
"83 40.133 OFFCURVE",
"83 157 CURVE SMOOTH",
"83 377 LINE SMOOTH",
"83 458.333 OFFCURVE",
"136.333 487 OFFCURVE",
"219 487 CURVE SMOOTH",
"300.333 487 OFFCURVE",
"350 458.333 OFFCURVE",
"350 377 CURVE SMOOTH",
"350 264 LINE",
"221 264 LINE",
"221 382 LINE SMOOTH",
"221 392 OFFCURVE",
"220.333 397 OFFCURVE",
"219 397 CURVE SMOOTH",
"217 397 OFFCURVE",
"216 392 OFFCURVE",
"216 382 CURVE SMOOTH",
"216 109 LINE SMOOTH",
"216 100.333 OFFCURVE",
"217 96 OFFCURVE",
"219 96 CURVE SMOOTH",
"220.333 96 OFFCURVE",
"221 100.333 OFFCURVE",
"221 109 CURVE SMOOTH",
"221 222 LINE",
"350 222 LINE",
"350 158 LINE SMOOTH",
"350 40.29 OFFCURVE",
"310.498 9 OFFCURVE",
"219 9 CURVE SMOOTH"
);
},
{
closed = 1;
nodes = (
"303.545 18 OFFCURVE",
"341 46.477 OFFCURVE",
"341 158 CURVE SMOOTH",
"341 213 LINE",
"230 213 LINE",
"230 109 LINE SMOOTH",
"230 100.333 OFFCURVE",
"229 94.5 OFFCURVE",
"227 91.5 CURVE SMOOTH",
"225 88.5 OFFCURVE",
"222.333 87 OFFCURVE",
"219 87 CURVE SMOOTH",
"215 87 OFFCURVE",
"212 88.5 OFFCURVE",
"210 91.5 CURVE SMOOTH",
"208 94.5 OFFCURVE",
"207 100.333 OFFCURVE",
"207 109 CURVE SMOOTH",
"207 382 LINE SMOOTH",
"207 391.333 OFFCURVE",
"208 397.667 OFFCURVE",
"210 401 CURVE SMOOTH",
"212 404.333 OFFCURVE",
"215 406 OFFCURVE",
"219 406 CURVE SMOOTH",
"222.333 406 OFFCURVE",
"225 404.333 OFFCURVE",
"227 401 CURVE SMOOTH",
"229 397.667 OFFCURVE",
"230 391.333 OFFCURVE",
"230 382 CURVE SMOOTH",
"230 273 LINE",
"341 273 LINE",
"341 377 LINE SMOOTH",
"341 451.667 OFFCURVE",
"295 478 OFFCURVE",
"219 478 CURVE SMOOTH",
"141.667 478 OFFCURVE",
"91 451.667 OFFCURVE",
"91 377 CURVE SMOOTH",
"91 157 LINE SMOOTH",
"91 46.559 OFFCURVE",
"132.677 18 OFFCURVE",
"219 18 CURVE SMOOTH"
);
}
);
userData = {
assembly = "PUSHW[ ]	/* 4 values pushed */\01228 6 81 4 \012CALL[ ]	/* CallFunction */\012PUSHW[ ]	/* 4 values pushed */\0121 6 41 4 \012CALL[ ]	/* CallFunction */\012PUSHW[ ]	/* 1 value pushed */\01228 \012SRP0[ ]	/* SetRefPoint0 */\012PUSHW[ ]	/* 2 values pushed */\01211 6 \012MIRP[10100]	/* MoveIndirectRelPt */\012PUSHW[ ]	/* 1 value pushed */\0121 \012SRP0[ ]	/* SetRefPoint0 */\012PUSHW[ ]	/* 1 value pushed */\01218 \012MDRP[10000]	/* MoveDirectRelPt */\012PUSHW[ ]	/* 1 value pushed */\0121 \012SRP0[ ]	/* SetRefPoint0 */\012PUSHW[ ]	/* 2 values pushed */\01220 6 \012MIRP[10100]	/* MoveIndirectRelPt */\012PUSHW[ ]	/* 1 value pushed */\01234 \012MDRP[10000]	/* MoveDirectRelPt */\012PUSHW[ ]	/* 1 value pushed */\01241 \012SRP0[ ]	/* SetRefPoint0 */\012PUSHW[ ]	/* 1 value pushed */\01236 \012MDRP[10000]	/* MoveDirectRelPt */\012PUSHW[ ]	/* 1 value pushed */\01236 \012MDAP[1]	/* MoveDirectAbsPt */\012PUSHW[ ]	/* 1 value pushed */\01211 \012SRP0[ ]	/* SetRefPoint0 */\012PUSHW[ ]	/* 2 values pushed */\01237 6 \012MIRP[10100]	/* MoveIndirectRelPt */\012PUSHW[ ]	/* 1 value pushed */\01241 \012SRP0[ ]	/* SetRefPoint0 */\012PUSHW[ ]	/* 1 value pushed */\01246 \012MDRP[10000]	/* MoveDirectRelPt */\012PUSHW[ ]	/* 1 value pushed */\01246 \012MDAP[1]	/* MoveDirectAbsPt */\012PUSHW[ ]	/* 1 value pushed */\01237 \012SRP0[ ]	/* SetRefPoint0 */\012PUSHW[ ]	/* 1 value pushed */\01247 \012MDRP[10000]	/* MoveDirectRelPt */\012PUSHW[ ]	/* 1 value pushed */\01220 \012SRP0[ ]	/* SetRefPoint0 */\012PUSHW[ ]	/* 1 value pushed */\01268 \012MDRP[10000]	/* MoveDirectRelPt */\012PUSHW[ ]	/* 1 value pushed */\01268 \012MDAP[1]	/* MoveDirectAbsPt */\012PUSHW[ ]	/* 3 values pushed */\01269 41 1 \012SRP1[ ]	/* SetRefPoint1 */\012SRP2[ ]	/* SetRefPoint2 */\012IP[ ]	/* InterpolatePts */\012PUSHW[ ]	/* 1 value pushed */\01220 \012SRP0[ ]	/* SetRefPoint0 */\012PUSHW[ ]	/* 2 values pushed */\01289 6 \012MIRP[10100]	/* MoveIndirectRelPt */\012PUSHW[ ]	/* 1 value pushed */\01270 \012MDRP[10000]	/* MoveDirectRelPt */\012PUSHW[ ]	/* 1 value pushed */\0121 \012SRP0[ ]	/* SetRefPoint0 */\012PUSHW[ ]	/* 1 value pushed */\01291 \012MDRP[11100]	/* MoveDirectRelPt */\012SVTCA[0]	/* SetFreedomAndProjectionVectorToAxis */\012PUSHW[ ]	/* 1 value pushed */\0120 \012RCVT[ ]	/* ReadCVT */\012IF[ ]	/* If */\012PUSHW[ ]	/* 1 value pushed */\01276 \012MDAP[1]	/* MoveDirectAbsPt */\012ELSE[ ]	/* Else */\012PUSHW[ ]	/* 2 values pushed */\01276 7 \012MIAP[0]	/* MoveIndirectAbsPt */\012EIF[ ]	/* EndIf */\012PUSHW[ ]	/* 4 values pushed */\01269 4 6 4 \012CALL[ ]	/* CallFunction */\012PUSHW[ ]	/* 4 values pushed */\01247 2 36 4 \012CALL[ ]	/* CallFunction */\012PUSHW[ ]	/* 4 values pushed */\01215 4 20 4 \012CALL[ ]	/* CallFunction */\012PUSHW[ ]	/* 1 value pushed */\01276 \012SRP0[ ]	/* SetRefPoint0 */\012PUSHW[ ]	/* 2 values pushed */\0120 4 \012MIRP[10100]	/* MoveIndirectRelPt */\012PUSHW[ ]	/* 1 value pushed */\0126 \012SRP0[ ]	/* SetRefPoint0 */\012PUSHW[ ]	/* 2 values pushed */\01235 4 \012MIRP[10100]	/* MoveIndirectRelPt */\012PUSHW[ ]	/* 1 value pushed */\01215 \012SRP0[ ]	/* SetRefPoint0 */\012PUSHW[ ]	/* 1 value pushed */\01268 \012MDRP[11100]	/* MoveDirectRelPt */\012PUSHW[ ]	/* 1 value pushed */\01220 \012SRP0[ ]	/* SetRefPoint0 */\012PUSHW[ ]	/* 1 value pushed */\01285 \012MDRP[11100]	/* MoveDirectRelPt */\012PUSHW[ ]	/* 1 value pushed */\01269 \012SRP0[ ]	/* SetRefPoint0 */\012PUSHW[ ]	/* 1 value pushed */\01289 \012MDRP[10000]	/* MoveDirectRelPt */\012PUSHW[ ]	/* 1 value pushed */\01289 \012MDAP[1]	/* MoveDirectAbsPt */\012IUP[0]	/* InterpolateUntPts */\012IUP[1]	/* InterpolateUntPts */";
};
width = 443;
}
);
note = C.tabular;
},
{
color = 2;
glyphname = D.tabular;
lastChange = "2021-12-03 13:19:10 +0000";
layers = (
{
layerId = "04A772B0-FA71-43EE-BB43-CAC7F0EBD631";
paths = (
{
closed = 1;
nodes = (
"237 0 LINE SMOOTH",
"318.333 0 OFFCURVE",
"366 29.333 OFFCURVE",
"366 120 CURVE SMOOTH",
"366 394 LINE SMOOTH",
"366 452.667 OFFCURVE",
"332.667 496 OFFCURVE",
"254 496 CURVE SMOOTH",
"66 496 LINE",
"66 0 LINE"
);
},
{
closed = 1;
nodes = (
"83 478 LINE",
"254 478 LINE SMOOTH",
"322 478 OFFCURVE",
"350 443.333 OFFCURVE",
"350 394 CURVE SMOOTH",
"350 120 LINE SMOOTH",
"350 41.333 OFFCURVE",
"306.333 18 OFFCURVE",
"237 18 CURVE SMOOTH",
"83 18 LINE"
);
},
{
closed = 1;
nodes = (
"237 27 LINE SMOOTH",
"302.333 27 OFFCURVE",
"341 49.333 OFFCURVE",
"341 120 CURVE SMOOTH",
"341 394 LINE SMOOTH",
"341 438 OFFCURVE",
"316.667 469 OFFCURVE",
"254 469 CURVE SMOOTH",
"91 469 LINE",
"91 27 LINE"
);
},
{
closed = 1;
nodes = (
"207 404 LINE",
"218 404 LINE SMOOTH",
"221.333 404 OFFCURVE",
"224.167 402.5 OFFCURVE",
"226.5 399.5 CURVE SMOOTH",
"228.833 396.5 OFFCURVE",
"230 390.333 OFFCURVE",
"230 381 CURVE SMOOTH",
"230 109 LINE SMOOTH",
"230 100.333 OFFCURVE",
"228.833 94.5 OFFCURVE",
"226.5 91.5 CURVE SMOOTH",
"224.167 88.5 OFFCURVE",
"221.333 87 OFFCURVE",
"218 87 CURVE SMOOTH",
"207 87 LINE"
);
},
{
closed = 1;
nodes = (
"218 95 LINE SMOOTH",
"220 95 OFFCURVE",
"221 99.667 OFFCURVE",
"221 109 CURVE SMOOTH",
"221 381 LINE SMOOTH",
"221 390.333 OFFCURVE",
"220 395 OFFCURVE",
"218 395 CURVE SMOOTH",
"216 395 LINE",
"216 95 LINE"
);
}
);
userData = {
assembly = "PUSHW[ ]	/* 4 values pushed */\01214 6 38 4 \012CALL[ ]	/* CallFunction */\012PUSHW[ ]	/* 4 values pushed */\0125 6 23 4 \012CALL[ ]	/* CallFunction */\012PUSHW[ ]	/* 1 value pushed */\01214 \012SRP0[ ]	/* SetRefPoint0 */\012PUSHW[ ]	/* 2 values pushed */\0120 6 \012MIRP[10100]	/* MoveIndirectRelPt */\012PUSHW[ ]	/* 1 value pushed */\0125 \012SRP0[ ]	/* SetRefPoint0 */\012PUSHW[ ]	/* 2 values pushed */\01210 6 \012MIRP[10100]	/* MoveIndirectRelPt */\012PUSHW[ ]	/* 1 value pushed */\01223 \012SRP0[ ]	/* SetRefPoint0 */\012PUSHW[ ]	/* 1 value pushed */\01220 \012MDRP[10000]	/* MoveDirectRelPt */\012PUSHW[ ]	/* 1 value pushed */\01220 \012MDAP[1]	/* MoveDirectAbsPt */\012PUSHW[ ]	/* 1 value pushed */\0120 \012SRP0[ ]	/* SetRefPoint0 */\012PUSHW[ ]	/* 2 values pushed */\01227 6 \012MIRP[10100]	/* MoveIndirectRelPt */\012PUSHW[ ]	/* 1 value pushed */\01210 \012SRP0[ ]	/* SetRefPoint0 */\012PUSHW[ ]	/* 2 values pushed */\01242 6 \012MIRP[10100]	/* MoveIndirectRelPt */\012PUSHW[ ]	/* 1 value pushed */\0125 \012SRP0[ ]	/* SetRefPoint0 */\012PUSHW[ ]	/* 1 value pushed */\01249 \012MDRP[11100]	/* MoveDirectRelPt */\012SVTCA[0]	/* SetFreedomAndProjectionVectorToAxis */\012PUSHW[ ]	/* 1 value pushed */\0120 \012RCVT[ ]	/* ReadCVT */\012IF[ ]	/* If */\012PUSHW[ ]	/* 1 value pushed */\01238 \012MDAP[1]	/* MoveDirectAbsPt */\012ELSE[ ]	/* Else */\012PUSHW[ ]	/* 2 values pushed */\01238 11 \012MIAP[0]	/* MoveIndirectAbsPt */\012EIF[ ]	/* EndIf */\012PUSHW[ ]	/* 1 value pushed */\0120 \012RCVT[ ]	/* ReadCVT */\012IF[ ]	/* If */\012PUSHW[ ]	/* 1 value pushed */\01246 \012MDAP[1]	/* MoveDirectAbsPt */\012ELSE[ ]	/* Else */\012PUSHW[ ]	/* 2 values pushed */\01246 7 \012MIAP[0]	/* MoveIndirectAbsPt */\012EIF[ ]	/* EndIf */\012PUSHW[ ]	/* 3 values pushed */\01223 46 38 \012SRP1[ ]	/* SetRefPoint1 */\012SRP2[ ]	/* SetRefPoint2 */\012IP[ ]	/* InterpolatePts */\012IUP[0]	/* InterpolateUntPts */\012IUP[1]	/* InterpolateUntPts */";
};
width = 443;
}
);
note = D.tabular;
},
{
color = 2;
glyphname = E.tabular;
lastChange = "2021-12-03 13:19:10 +0000";
layers = (
{
anchors = (
{
name = bottom;
position = "{203, 0}";
},
{
name = ogonek;
position = "{328, 0}";
},
{
name = top;
position = "{204, 496}";
},
{
name = topleft;
position = "{20, 591}";
}
);
layerId = "04A772B0-FA71-43EE-BB43-CAC7F0EBD631";
paths = (
{
closed = 1;
nodes = (
"328 0 LINE",
"328 135 LINE",
"247 135 LINE",
"247 180 LINE",
"322 180 LINE",
"322 327 LINE",
"247 327 LINE",
"247 360 LINE",
"328 360 LINE",
"328 496 LINE",
"88 496 LINE",
"88 0 LINE"
);
},
{
closed = 1;
nodes = (
"104 478 LINE",
"312 478 LINE",
"312 377 LINE",
"231 377 LINE",
"231 310 LINE",
"306 310 LINE",
"306 198 LINE",
"231 198 LINE",
"231 117 LINE",
"312 117 LINE",
"312 18 LINE",
"104 18 LINE"
);
},
{
closed = 1;
nodes = (
"304 27 LINE",
"304 108 LINE",
"223 108 LINE",
"223 207 LINE",
"298 207 LINE",
"298 301 LINE",
"223 301 LINE",
"223 386 LINE",
"304 386 LINE",
"304 469 LINE",
"112 469 LINE",
"112 27 LINE"
);
}
);
userData = {
assembly = "PUSHW[ ]	/* 4 values pushed */\0123 6 24 4 \012CALL[ ]	/* CallFunction */\012PUSHW[ ]	/* 4 values pushed */\01230 6 16 4 \012CALL[ ]	/* CallFunction */\012PUSHW[ ]	/* 1 value pushed */\0123 \012SRP0[ ]	/* SetRefPoint0 */\012PUSHW[ ]	/* 2 values pushed */\0120 6 \012MIRP[10100]	/* MoveIndirectRelPt */\012PUSHW[ ]	/* 2 values pushed */\0125 5 \012MIRP[10100]	/* MoveIndirectRelPt */\012PUSHW[ ]	/* 1 value pushed */\0122 \012MDRP[10000]	/* MoveDirectRelPt */\012PUSHW[ ]	/* 1 value pushed */\0122 \012MDAP[1]	/* MoveDirectAbsPt */\012PUSHW[ ]	/* 1 value pushed */\0123 \012SRP0[ ]	/* SetRefPoint0 */\012PUSHW[ ]	/* 1 value pushed */\0127 \012MDRP[10000]	/* MoveDirectRelPt */\012PUSHW[ ]	/* 1 value pushed */\0125 \012SRP0[ ]	/* SetRefPoint0 */\012PUSHW[ ]	/* 1 value pushed */\0129 \012MDRP[10000]	/* MoveDirectRelPt */\012PUSHW[ ]	/* 1 value pushed */\0129 \012MDAP[1]	/* MoveDirectAbsPt */\012PUSHW[ ]	/* 1 value pushed */\01216 \012SRP0[ ]	/* SetRefPoint0 */\012PUSHW[ ]	/* 1 value pushed */\01219 \012MDRP[10000]	/* MoveDirectRelPt */\012PUSHW[ ]	/* 1 value pushed */\01230 \012SRP0[ ]	/* SetRefPoint0 */\012PUSHW[ ]	/* 1 value pushed */\01225 \012MDRP[10000]	/* MoveDirectRelPt */\012PUSHW[ ]	/* 1 value pushed */\01225 \012MDAP[1]	/* MoveDirectAbsPt */\012PUSHW[ ]	/* 1 value pushed */\0120 \012SRP0[ ]	/* SetRefPoint0 */\012PUSHW[ ]	/* 2 values pushed */\01227 6 \012MIRP[10100]	/* MoveIndirectRelPt */\012PUSHW[ ]	/* 1 value pushed */\01231 \012MDRP[10000]	/* MoveDirectRelPt */\012PUSHW[ ]	/* 1 value pushed */\01230 \012SRP0[ ]	/* SetRefPoint0 */\012PUSHW[ ]	/* 1 value pushed */\01233 \012MDRP[10000]	/* MoveDirectRelPt */\012PUSHW[ ]	/* 1 value pushed */\01233 \012MDAP[1]	/* MoveDirectAbsPt */\012PUSHW[ ]	/* 1 value pushed */\01230 \012SRP0[ ]	/* SetRefPoint0 */\012PUSHW[ ]	/* 1 value pushed */\01237 \012MDRP[11100]	/* MoveDirectRelPt */\012SVTCA[0]	/* SetFreedomAndProjectionVectorToAxis */\012PUSHW[ ]	/* 1 value pushed */\0120 \012RCVT[ ]	/* ReadCVT */\012IF[ ]	/* If */\012PUSHW[ ]	/* 1 value pushed */\01224 \012MDAP[1]	/* MoveDirectAbsPt */\012ELSE[ ]	/* Else */\012PUSHW[ ]	/* 2 values pushed */\01224 11 \012MIAP[0]	/* MoveIndirectAbsPt */\012EIF[ ]	/* EndIf */\012PUSHW[ ]	/* 1 value pushed */\0120 \012RCVT[ ]	/* ReadCVT */\012IF[ ]	/* If */\012PUSHW[ ]	/* 1 value pushed */\01234 \012MDAP[1]	/* MoveDirectAbsPt */\012ELSE[ ]	/* Else */\012PUSHW[ ]	/* 2 values pushed */\01234 7 \012MIAP[0]	/* MoveIndirectAbsPt */\012EIF[ ]	/* EndIf */\012PUSHW[ ]	/* 4 values pushed */\01233 4 10 4 \012CALL[ ]	/* CallFunction */\012PUSHW[ ]	/* 4 values pushed */\01217 2 14 4 \012CALL[ ]	/* CallFunction */\012PUSHW[ ]	/* 4 values pushed */\0125 4 30 4 \012CALL[ ]	/* CallFunction */\012PUSHW[ ]	/* 4 values pushed */\01221 2 18 4 \012CALL[ ]	/* CallFunction */\012PUSHW[ ]	/* 1 value pushed */\01224 \012SRP0[ ]	/* SetRefPoint0 */\012PUSHW[ ]	/* 2 values pushed */\0122 4 \012MIRP[10100]	/* MoveIndirectRelPt */\012PUSHW[ ]	/* 2 values pushed */\0121 2 \012MIRP[10100]	/* MoveIndirectRelPt */\012PUSHW[ ]	/* 1 value pushed */\0125 \012SRP0[ ]	/* SetRefPoint0 */\012PUSHW[ ]	/* 2 values pushed */\0126 1 \012MIRP[10100]	/* MoveIndirectRelPt */\012PUSHW[ ]	/* 1 value pushed */\01234 \012SRP0[ ]	/* SetRefPoint0 */\012PUSHW[ ]	/* 2 values pushed */\0128 4 \012MIRP[10100]	/* MoveIndirectRelPt */\012PUSHW[ ]	/* 1 value pushed */\01210 \012SRP0[ ]	/* SetRefPoint0 */\012PUSHW[ ]	/* 2 values pushed */\0129 2 \012MIRP[10100]	/* MoveIndirectRelPt */\012PUSHW[ ]	/* 1 value pushed */\0121 \012SRP0[ ]	/* SetRefPoint0 */\012PUSHW[ ]	/* 2 values pushed */\01226 4 \012MIRP[10100]	/* MoveIndirectRelPt */\012PUSHW[ ]	/* 1 value pushed */\0126 \012SRP0[ ]	/* SetRefPoint0 */\012PUSHW[ ]	/* 2 values pushed */\01229 4 \012MIRP[10100]	/* MoveIndirectRelPt */\012IUP[0]	/* InterpolateUntPts */\012IUP[1]	/* InterpolateUntPts */";
};
width = 428;
}
);
note = E.tabular;
},
{
color = 2;
glyphname = F.tabular;
lastChange = "2021-12-03 13:19:10 +0000";
layers = (
{
layerId = "04A772B0-FA71-43EE-BB43-CAC7F0EBD631";
paths = (
{
closed = 1;
nodes = (
"247 0 LINE",
"247 180 LINE",
"322 180 LINE",
"322 327 LINE",
"247 327 LINE",
"247 360 LINE",
"328 360 LINE",
"328 496 LINE",
"88 496 LINE",
"88 0 LINE"
);
},
{
closed = 1;
nodes = (
"104 478 LINE",
"312 478 LINE",
"312 377 LINE",
"231 377 LINE",
"231 310 LINE",
"306 310 LINE",
"306 198 LINE",
"231 198 LINE",
"231 18 LINE",
"104 18 LINE"
);
},
{
closed = 1;
nodes = (
"223 27 LINE",
"223 207 LINE",
"298 207 LINE",
"298 301 LINE",
"223 301 LINE",
"223 386 LINE",
"304 386 LINE",
"304 469 LINE",
"112 469 LINE",
"112 27 LINE"
);
}
);
userData = {
assembly = "PUSHW[ ]	/* 4 values pushed */\0123 6 20 4 \012CALL[ ]	/* CallFunction */\012PUSHW[ ]	/* 4 values pushed */\01226 6 12 4 \012CALL[ ]	/* CallFunction */\012PUSHW[ ]	/* 1 value pushed */\0123 \012SRP0[ ]	/* SetRefPoint0 */\012PUSHW[ ]	/* 2 values pushed */\0120 6 \012MIRP[10100]	/* MoveIndirectRelPt */\012PUSHW[ ]	/* 2 values pushed */\0125 5 \012MIRP[10100]	/* MoveIndirectRelPt */\012PUSHW[ ]	/* 1 value pushed */\0122 \012MDRP[10000]	/* MoveDirectRelPt */\012PUSHW[ ]	/* 1 value pushed */\0122 \012MDAP[1]	/* MoveDirectAbsPt */\012PUSHW[ ]	/* 1 value pushed */\0123 \012SRP0[ ]	/* SetRefPoint0 */\012PUSHW[ ]	/* 1 value pushed */\0127 \012MDRP[10000]	/* MoveDirectRelPt */\012PUSHW[ ]	/* 1 value pushed */\01212 \012SRP0[ ]	/* SetRefPoint0 */\012PUSHW[ ]	/* 1 value pushed */\01215 \012MDRP[10000]	/* MoveDirectRelPt */\012PUSHW[ ]	/* 1 value pushed */\01226 \012SRP0[ ]	/* SetRefPoint0 */\012PUSHW[ ]	/* 1 value pushed */\01221 \012MDRP[10000]	/* MoveDirectRelPt */\012PUSHW[ ]	/* 1 value pushed */\01221 \012MDAP[1]	/* MoveDirectAbsPt */\012PUSHW[ ]	/* 1 value pushed */\0120 \012SRP0[ ]	/* SetRefPoint0 */\012PUSHW[ ]	/* 2 values pushed */\01223 6 \012MIRP[10100]	/* MoveIndirectRelPt */\012PUSHW[ ]	/* 1 value pushed */\01227 \012MDRP[10000]	/* MoveDirectRelPt */\012PUSHW[ ]	/* 1 value pushed */\01226 \012SRP0[ ]	/* SetRefPoint0 */\012PUSHW[ ]	/* 1 value pushed */\01231 \012MDRP[11100]	/* MoveDirectRelPt */\012SVTCA[0]	/* SetFreedomAndProjectionVectorToAxis */\012PUSHW[ ]	/* 1 value pushed */\0120 \012RCVT[ ]	/* ReadCVT */\012IF[ ]	/* If */\012PUSHW[ ]	/* 1 value pushed */\01220 \012MDAP[1]	/* MoveDirectAbsPt */\012ELSE[ ]	/* Else */\012PUSHW[ ]	/* 2 values pushed */\01220 11 \012MIAP[0]	/* MoveIndirectAbsPt */\012EIF[ ]	/* EndIf */\012PUSHW[ ]	/* 1 value pushed */\0120 \012RCVT[ ]	/* ReadCVT */\012IF[ ]	/* If */\012PUSHW[ ]	/* 1 value pushed */\01228 \012MDAP[1]	/* MoveDirectAbsPt */\012ELSE[ ]	/* Else */\012PUSHW[ ]	/* 2 values pushed */\01228 7 \012MIAP[0]	/* MoveIndirectAbsPt */\012EIF[ ]	/* EndIf */\012PUSHW[ ]	/* 4 values pushed */\0125 4 26 4 \012CALL[ ]	/* CallFunction */\012PUSHW[ ]	/* 4 values pushed */\01217 2 14 4 \012CALL[ ]	/* CallFunction */\012PUSHW[ ]	/* 1 value pushed */\01220 \012SRP0[ ]	/* SetRefPoint0 */\012PUSHW[ ]	/* 2 values pushed */\0122 4 \012MIRP[10100]	/* MoveIndirectRelPt */\012PUSHW[ ]	/* 2 values pushed */\0121 2 \012MIRP[10100]	/* MoveIndirectRelPt */\012PUSHW[ ]	/* 1 value pushed */\0125 \012SRP0[ ]	/* SetRefPoint0 */\012PUSHW[ ]	/* 2 values pushed */\0126 1 \012MIRP[10100]	/* MoveIndirectRelPt */\012PUSHW[ ]	/* 1 value pushed */\01228 \012SRP0[ ]	/* SetRefPoint0 */\012PUSHW[ ]	/* 2 values pushed */\01212 4 \012MIRP[10100]	/* MoveIndirectRelPt */\012PUSHW[ ]	/* 1 value pushed */\0121 \012SRP0[ ]	/* SetRefPoint0 */\012PUSHW[ ]	/* 2 values pushed */\01222 4 \012MIRP[10100]	/* MoveIndirectRelPt */\012PUSHW[ ]	/* 1 value pushed */\0126 \012SRP0[ ]	/* SetRefPoint0 */\012PUSHW[ ]	/* 2 values pushed */\01225 4 \012MIRP[10100]	/* MoveIndirectRelPt */\012IUP[0]	/* InterpolateUntPts */\012IUP[1]	/* InterpolateUntPts */";
};
width = 428;
}
);
note = F.tabular;
},
{
color = 2;
glyphname = G.tabular;
lastChange = "2021-12-03 13:19:10 +0000";
layers = (
{
layerId = "04A772B0-FA71-43EE-BB43-CAC7F0EBD631";
paths = (
{
closed = 1;
nodes = (
"205 -7 OFFCURVE",
"220.333 0.333 OFFCURVE",
"235 11 CURVE",
"237 0 LINE",
"366 0 LINE",
"366 375 LINE SMOOTH",
"366 468.333 OFFCURVE",
"304.333 503 OFFCURVE",
"215 503 CURVE SMOOTH",
"125.667 503 OFFCURVE",
"66 468.333 OFFCURVE",
"66 375 CURVE SMOOTH",
"66 140 LINE SMOOTH",
"66 27.918 OFFCURVE",
"111.341 -7 OFFCURVE",
"181 -7 CURVE SMOOTH"
);
},
{
closed = 1;
nodes = (
"222.667 96 OFFCURVE",
"225 100.333 OFFCURVE",
"225 109 CURVE SMOOTH",
"225 184 LINE",
"211 184 LINE",
"211 109 LINE SMOOTH",
"211 100.333 OFFCURVE",
"213.333 96 OFFCURVE",
"218 96 CURVE SMOOTH"
);
},
{
closed = 1;
nodes = (
"120.862 11 OFFCURVE",
"83 42.324 OFFCURVE",
"83 140 CURVE SMOOTH",
"83 375 LINE SMOOTH",
"83 455 OFFCURVE",
"135 485 OFFCURVE",
"215 485 CURVE SMOOTH",
"295 485 OFFCURVE",
"350 455 OFFCURVE",
"350 375 CURVE SMOOTH",
"350 298 LINE",
"225 298 LINE",
"225 382 LINE SMOOTH",
"225 391.333 OFFCURVE",
"222.667 396 OFFCURVE",
"218 396 CURVE SMOOTH",
"213.333 396 OFFCURVE",
"211 391.333 OFFCURVE",
"211 382 CURVE SMOOTH",
"211 269 LINE",
"350 269 LINE",
"350 18 LINE",
"251 18 LINE",
"244 47 LINE",
"233.333 28.333 OFFCURVE",
"214.333 11 OFFCURVE",
"181 11 CURVE SMOOTH"
);
},
{
closed = 1;
nodes = (
"220.121 20 OFFCURVE",
"239.818 47.864 OFFCURVE",
"247 73 CURVE",
"257 27 LINE",
"341 27 LINE",
"341 260 LINE",
"216 260 LINE",
"216 193 LINE",
"233 193 LINE",
"233 109 LINE SMOOTH",
"233 91.667 OFFCURVE",
"227.333 87 OFFCURVE",
"218 87 CURVE SMOOTH",
"208.667 87 OFFCURVE",
"202 91.667 OFFCURVE",
"202 109 CURVE SMOOTH",
"202 382 LINE SMOOTH",
"202 400.667 OFFCURVE",
"208.667 405 OFFCURVE",
"218 405 CURVE SMOOTH",
"227.333 405 OFFCURVE",
"233 400.667 OFFCURVE",
"233 382 CURVE SMOOTH",
"233 307 LINE",
"341 307 LINE",
"341 375 LINE SMOOTH",
"341 447.865 OFFCURVE",
"289.057 476 OFFCURVE",
"215 476 CURVE SMOOTH",
"140.333 476 OFFCURVE",
"91 449.667 OFFCURVE",
"91 375 CURVE SMOOTH",
"91 140 LINE SMOOTH",
"91 51.063 OFFCURVE",
"127.312 20 OFFCURVE",
"181 20 CURVE SMOOTH"
);
}
);
userData = {
assembly = "PUSHW[ ]	/* 4 values pushed */\01232 6 86 4 \012CALL[ ]	/* CallFunction */\012PUSHW[ ]	/* 4 values pushed */\0121 6 47 4 \012CALL[ ]	/* CallFunction */\012PUSHW[ ]	/* 3 values pushed */\0123 47 1 \012SRP1[ ]	/* SetRefPoint1 */\012SRP2[ ]	/* SetRefPoint2 */\012IP[ ]	/* InterpolatePts */\012PUSHW[ ]	/* 1 value pushed */\01232 \012SRP0[ ]	/* SetRefPoint0 */\012PUSHW[ ]	/* 2 values pushed */\01213 6 \012MIRP[10100]	/* MoveIndirectRelPt */\012PUSHW[ ]	/* 1 value pushed */\0121 \012SRP0[ ]	/* SetRefPoint0 */\012PUSHW[ ]	/* 1 value pushed */\01222 \012MDRP[10000]	/* MoveDirectRelPt */\012PUSHW[ ]	/* 1 value pushed */\0121 \012SRP0[ ]	/* SetRefPoint0 */\012PUSHW[ ]	/* 2 values pushed */\01224 6 \012MIRP[10100]	/* MoveIndirectRelPt */\012PUSHW[ ]	/* 1 value pushed */\01238 \012MDRP[10000]	/* MoveDirectRelPt */\012PUSHW[ ]	/* 1 value pushed */\01225 \012SRP0[ ]	/* SetRefPoint0 */\012PUSHW[ ]	/* 1 value pushed */\01239 \012MDRP[10000]	/* MoveDirectRelPt */\012PUSHW[ ]	/* 1 value pushed */\01247 \012SRP0[ ]	/* SetRefPoint0 */\012PUSHW[ ]	/* 1 value pushed */\01240 \012MDRP[10000]	/* MoveDirectRelPt */\012PUSHW[ ]	/* 1 value pushed */\01240 \012MDAP[1]	/* MoveDirectAbsPt */\012PUSHW[ ]	/* 1 value pushed */\01213 \012SRP0[ ]	/* SetRefPoint0 */\012PUSHW[ ]	/* 2 values pushed */\01243 6 \012MIRP[10100]	/* MoveIndirectRelPt */\012PUSHW[ ]	/* 1 value pushed */\01247 \012SRP0[ ]	/* SetRefPoint0 */\012PUSHW[ ]	/* 1 value pushed */\01249 \012MDRP[10000]	/* MoveDirectRelPt */\012PUSHW[ ]	/* 1 value pushed */\01243 \012SRP0[ ]	/* SetRefPoint0 */\012PUSHW[ ]	/* 1 value pushed */\01253 \012MDRP[10000]	/* MoveDirectRelPt */\012PUSHW[ ]	/* 3 values pushed */\01271 47 1 \012SRP1[ ]	/* SetRefPoint1 */\012SRP2[ ]	/* SetRefPoint2 */\012IP[ ]	/* InterpolatePts */\012PUSHW[ ]	/* 3 values pushed */\01278 47 1 \012SRP1[ ]	/* SetRefPoint1 */\012SRP2[ ]	/* SetRefPoint2 */\012IP[ ]	/* InterpolatePts */\012PUSHW[ ]	/* 1 value pushed */\01224 \012SRP0[ ]	/* SetRefPoint0 */\012PUSHW[ ]	/* 2 values pushed */\01293 6 \012MIRP[10100]	/* MoveIndirectRelPt */\012PUSHW[ ]	/* 1 value pushed */\0121 \012SRP0[ ]	/* SetRefPoint0 */\012PUSHW[ ]	/* 1 value pushed */\01295 \012MDRP[11100]	/* MoveDirectRelPt */\012SVTCA[0]	/* SetFreedomAndProjectionVectorToAxis */\012PUSHW[ ]	/* 1 value pushed */\0120 \012RCVT[ ]	/* ReadCVT */\012IF[ ]	/* If */\012PUSHW[ ]	/* 1 value pushed */\01276 \012MDAP[1]	/* MoveDirectAbsPt */\012ELSE[ ]	/* Else */\012PUSHW[ ]	/* 2 values pushed */\01276 7 \012MIAP[0]	/* MoveIndirectAbsPt */\012EIF[ ]	/* EndIf */\012PUSHW[ ]	/* 1 value pushed */\0120 \012RCVT[ ]	/* ReadCVT */\012IF[ ]	/* If */\012PUSHW[ ]	/* 1 value pushed */\01281 \012MDAP[1]	/* MoveDirectAbsPt */\012ELSE[ ]	/* Else */\012PUSHW[ ]	/* 2 values pushed */\01281 7 \012MIAP[0]	/* MoveIndirectAbsPt */\012EIF[ ]	/* EndIf */\012PUSHW[ ]	/* 4 values pushed */\01217 4 24 4 \012CALL[ ]	/* CallFunction */\012PUSHW[ ]	/* 3 values pushed */\01255 74 3 \012CALL[ ]	/* CallFunction */\012PUSHW[ ]	/* 1 value pushed */\01281 \012SRP0[ ]	/* SetRefPoint0 */\012PUSHW[ ]	/* 1 value pushed */\0128 \012MDRP[11100]	/* MoveDirectRelPt */\012NPUSHW[ ]	/* 27 values pushed */\0127 8 23 8 39 8 55 8 71 8 87 8 103 8 119 8 135 8 151 8 167 8 183 8 199 8 13 \012DELTAP1[ ]	/* DeltaExceptionP1 */\012NPUSHW[ ]	/* 5 values pushed */\012214 8 230 8 2 \012DELTAP1[ ]	/* DeltaExceptionP1 */\012PUSHW[ ]	/* 1 value pushed */\0121 \012MDRP[10000]	/* MoveDirectRelPt */\012PUSHW[ ]	/* 1 value pushed */\0121 \012MDAP[1]	/* MoveDirectAbsPt */\012PUSHW[ ]	/* 1 value pushed */\0128 \012SRP0[ ]	/* SetRefPoint0 */\012PUSHW[ ]	/* 1 value pushed */\01241 \012MDRP[11100]	/* MoveDirectRelPt */\012PUSHW[ ]	/* 3 values pushed */\0123 8 41 \012SRP1[ ]	/* SetRefPoint1 */\012SRP2[ ]	/* SetRefPoint2 */\012IP[ ]	/* InterpolatePts */\012PUSHW[ ]	/* 1 value pushed */\0128 \012SRP0[ ]	/* SetRefPoint0 */\012PUSHW[ ]	/* 1 value pushed */\01268 \012MDRP[10000]	/* MoveDirectRelPt */\012PUSHW[ ]	/* 1 value pushed */\01268 \012MDAP[1]	/* MoveDirectAbsPt */\012PUSHW[ ]	/* 1 value pushed */\01272 \012MDRP[10000]	/* MoveDirectRelPt */\012PUSHW[ ]	/* 1 value pushed */\01273 \012MDRP[10000]	/* MoveDirectRelPt */\012PUSHW[ ]	/* 3 values pushed */\01278 81 8 \012SRP1[ ]	/* SetRefPoint1 */\012SRP2[ ]	/* SetRefPoint2 */\012IP[ ]	/* InterpolatePts */\012PUSHW[ ]	/* 1 value pushed */\01224 \012SRP0[ ]	/* SetRefPoint0 */\012PUSHW[ ]	/* 2 values pushed */\01290 4 \012MIRP[10100]	/* MoveIndirectRelPt */\012IUP[0]	/* InterpolateUntPts */\012IUP[1]	/* InterpolateUntPts */";
};
width = 443;
}
);
note = G.tabular;
},
{
color = 2;
glyphname = H.tabular;
lastChange = "2021-12-03 13:19:10 +0000";
layers = (
{
layerId = "04A772B0-FA71-43EE-BB43-CAC7F0EBD631";
paths = (
{
closed = 1;
nodes = (
"364 0 LINE",
"364 496 LINE",
"67 496 LINE",
"67 0 LINE"
);
},
{
closed = 1;
nodes = (
"84 478 LINE",
"212 478 LINE",
"212 307 LINE",
"220 307 LINE",
"220 478 LINE",
"348 478 LINE",
"348 18 LINE",
"220 18 LINE",
"220 202 LINE",
"212 202 LINE",
"212 18 LINE",
"84 18 LINE"
);
},
{
closed = 1;
nodes = (
"204 27 LINE",
"204 211 LINE",
"229 211 LINE",
"229 27 LINE",
"339 27 LINE",
"339 469 LINE",
"229 469 LINE",
"229 298 LINE",
"204 298 LINE",
"204 469 LINE",
"92 469 LINE",
"92 27 LINE"
);
}
);
userData = {
assembly = "PUSHW[ ]	/* 4 values pushed */\0121 6 24 4 \012CALL[ ]	/* CallFunction */\012PUSHW[ ]	/* 4 values pushed */\0128 6 19 4 \012CALL[ ]	/* CallFunction */\012PUSHW[ ]	/* 1 value pushed */\0121 \012SRP0[ ]	/* SetRefPoint0 */\012PUSHW[ ]	/* 2 values pushed */\0122 6 \012MIRP[10100]	/* MoveIndirectRelPt */\012PUSHW[ ]	/* 1 value pushed */\0121 \012SRP0[ ]	/* SetRefPoint0 */\012PUSHW[ ]	/* 1 value pushed */\0124 \012MDRP[10000]	/* MoveDirectRelPt */\012PUSHW[ ]	/* 1 value pushed */\0128 \012SRP0[ ]	/* SetRefPoint0 */\012PUSHW[ ]	/* 2 values pushed */\0127 6 \012MIRP[10100]	/* MoveIndirectRelPt */\012PUSHW[ ]	/* 1 value pushed */\01210 \012MDRP[10000]	/* MoveDirectRelPt */\012PUSHW[ ]	/* 1 value pushed */\0122 \012SRP0[ ]	/* SetRefPoint0 */\012PUSHW[ ]	/* 2 values pushed */\01213 6 \012MIRP[10100]	/* MoveIndirectRelPt */\012PUSHW[ ]	/* 1 value pushed */\01216 \012MDRP[10000]	/* MoveDirectRelPt */\012PUSHW[ ]	/* 1 value pushed */\01219 \012SRP0[ ]	/* SetRefPoint0 */\012PUSHW[ ]	/* 1 value pushed */\01222 \012MDRP[10000]	/* MoveDirectRelPt */\012PUSHW[ ]	/* 1 value pushed */\0127 \012SRP0[ ]	/* SetRefPoint0 */\012PUSHW[ ]	/* 2 values pushed */\01226 6 \012MIRP[10100]	/* MoveIndirectRelPt */\012PUSHW[ ]	/* 1 value pushed */\0128 \012SRP0[ ]	/* SetRefPoint0 */\012PUSHW[ ]	/* 1 value pushed */\01229 \012MDRP[11100]	/* MoveDirectRelPt */\012SVTCA[0]	/* SetFreedomAndProjectionVectorToAxis */\012PUSHW[ ]	/* 1 value pushed */\0120 \012RCVT[ ]	/* ReadCVT */\012IF[ ]	/* If */\012PUSHW[ ]	/* 1 value pushed */\01225 \012MDAP[1]	/* MoveDirectAbsPt */\012ELSE[ ]	/* Else */\012PUSHW[ ]	/* 2 values pushed */\01225 11 \012MIAP[0]	/* MoveIndirectAbsPt */\012EIF[ ]	/* EndIf */\012PUSHW[ ]	/* 1 value pushed */\0120 \012RCVT[ ]	/* ReadCVT */\012IF[ ]	/* If */\012PUSHW[ ]	/* 1 value pushed */\01224 \012MDAP[1]	/* MoveDirectAbsPt */\012ELSE[ ]	/* Else */\012PUSHW[ ]	/* 2 values pushed */\01224 7 \012MIAP[0]	/* MoveIndirectAbsPt */\012EIF[ ]	/* EndIf */\012IUP[0]	/* InterpolateUntPts */\012IUP[1]	/* InterpolateUntPts */";
};
width = 442;
}
);
note = H.tabular;
},
{
color = 2;
glyphname = I.tabular;
lastChange = "2021-12-03 13:19:10 +0000";
layers = (
{
anchors = (
{
name = bottom;
position = "{204, 0}";
},
{
name = ogonek;
position = "{262, 0}";
},
{
name = top;
position = "{203, 495}";
},
{
name = topleft;
position = "{20, 591}";
}
);
layerId = "04A772B0-FA71-43EE-BB43-CAC7F0EBD631";
paths = (
{
closed = 1;
nodes = (
"320 0 LINE",
"320 136 LINE",
"283 136 LINE",
"283 360 LINE",
"320 360 LINE",
"320 496 LINE",
"92 496 LINE",
"92 360 LINE",
"129 360 LINE",
"129 136 LINE",
"92 136 LINE",
"92 0 LINE"
);
},
{
closed = 1;
nodes = (
"108 119 LINE",
"145 119 LINE",
"145 377 LINE",
"108 377 LINE",
"108 478 LINE",
"304 478 LINE",
"304 377 LINE",
"267 377 LINE",
"267 119 LINE",
"304 119 LINE",
"304 18 LINE",
"108 18 LINE"
);
},
{
closed = 1;
nodes = (
"296 27 LINE",
"296 110 LINE",
"259 110 LINE",
"259 386 LINE",
"296 386 LINE",
"296 469 LINE",
"116 469 LINE",
"116 386 LINE",
"153 386 LINE",
"153 110 LINE",
"116 110 LINE",
"116 27 LINE"
);
}
);
userData = {
assembly = "PUSHW[ ]	/* 3 values pushed */\01213 35 3 \012CALL[ ]	/* CallFunction */\012PUSHW[ ]	/* 3 values pushed */\01229 19 3 \012CALL[ ]	/* CallFunction */\012PUSHW[ ]	/* 3 values pushed */\0120 35 13 \012SRP1[ ]	/* SetRefPoint1 */\012SRP2[ ]	/* SetRefPoint2 */\012IP[ ]	/* InterpolatePts */\012PUSHW[ ]	/* 1 value pushed */\0120 \012MDAP[1]	/* MoveDirectAbsPt */\012PUSHW[ ]	/* 2 values pushed */\0121 5 \012MIRP[10100]	/* MoveIndirectRelPt */\012PUSHW[ ]	/* 3 values pushed */\01233 35 13 \012SRP1[ ]	/* SetRefPoint1 */\012SRP2[ ]	/* SetRefPoint2 */\012IP[ ]	/* InterpolatePts */\012PUSHW[ ]	/* 1 value pushed */\01233 \012MDAP[1]	/* MoveDirectAbsPt */\012PUSHW[ ]	/* 2 values pushed */\0124 6 \012MIRP[10100]	/* MoveIndirectRelPt */\012PUSHW[ ]	/* 1 value pushed */\0121 \012SRP0[ ]	/* SetRefPoint0 */\012PUSHW[ ]	/* 1 value pushed */\0125 \012MDRP[10000]	/* MoveDirectRelPt */\012PUSHW[ ]	/* 1 value pushed */\0120 \012SRP0[ ]	/* SetRefPoint0 */\012PUSHW[ ]	/* 1 value pushed */\0127 \012MDRP[10000]	/* MoveDirectRelPt */\012PUSHW[ ]	/* 1 value pushed */\0124 \012SRP0[ ]	/* SetRefPoint0 */\012PUSHW[ ]	/* 2 values pushed */\0129 6 \012MIRP[10100]	/* MoveIndirectRelPt */\012PUSHW[ ]	/* 1 value pushed */\01229 \012SRP0[ ]	/* SetRefPoint0 */\012PUSHW[ ]	/* 1 value pushed */\01225 \012MDRP[10000]	/* MoveDirectRelPt */\012PUSHW[ ]	/* 1 value pushed */\0129 \012SRP0[ ]	/* SetRefPoint0 */\012PUSHW[ ]	/* 2 values pushed */\01228 6 \012MIRP[10100]	/* MoveIndirectRelPt */\012PUSHW[ ]	/* 1 value pushed */\01235 \012SRP0[ ]	/* SetRefPoint0 */\012PUSHW[ ]	/* 1 value pushed */\01231 \012MDRP[10000]	/* MoveDirectRelPt */\012PUSHW[ ]	/* 1 value pushed */\01229 \012SRP0[ ]	/* SetRefPoint0 */\012PUSHW[ ]	/* 1 value pushed */\01237 \012MDRP[11100]	/* MoveDirectRelPt */\012SVTCA[0]	/* SetFreedomAndProjectionVectorToAxis */\012PUSHW[ ]	/* 1 value pushed */\0120 \012RCVT[ ]	/* ReadCVT */\012IF[ ]	/* If */\012PUSHW[ ]	/* 1 value pushed */\01224 \012MDAP[1]	/* MoveDirectAbsPt */\012ELSE[ ]	/* Else */\012PUSHW[ ]	/* 2 values pushed */\01224 11 \012MIAP[0]	/* MoveIndirectAbsPt */\012EIF[ ]	/* EndIf */\012PUSHW[ ]	/* 1 value pushed */\0120 \012RCVT[ ]	/* ReadCVT */\012IF[ ]	/* If */\012PUSHW[ ]	/* 1 value pushed */\01230 \012MDAP[1]	/* MoveDirectAbsPt */\012ELSE[ ]	/* Else */\012PUSHW[ ]	/* 2 values pushed */\01230 7 \012MIAP[0]	/* MoveIndirectAbsPt */\012EIF[ ]	/* EndIf */\012PUSHW[ ]	/* 4 values pushed */\0125 2 6 4 \012CALL[ ]	/* CallFunction */\012PUSHW[ ]	/* 1 value pushed */\01224 \012SRP0[ ]	/* SetRefPoint0 */\012PUSHW[ ]	/* 2 values pushed */\0122 4 \012MIRP[10100]	/* MoveIndirectRelPt */\012PUSHW[ ]	/* 2 values pushed */\0121 2 \012MIRP[10100]	/* MoveIndirectRelPt */\012PUSHW[ ]	/* 1 value pushed */\01230 \012SRP0[ ]	/* SetRefPoint0 */\012PUSHW[ ]	/* 2 values pushed */\0124 4 \012MIRP[10100]	/* MoveIndirectRelPt */\012PUSHW[ ]	/* 1 value pushed */\0128 \012MDRP[10000]	/* MoveDirectRelPt */\012PUSHW[ ]	/* 1 value pushed */\0129 \012MDRP[10000]	/* MoveDirectRelPt */\012PUSHW[ ]	/* 1 value pushed */\0122 \012SRP0[ ]	/* SetRefPoint0 */\012PUSHW[ ]	/* 1 value pushed */\01210 \012MDRP[10000]	/* MoveDirectRelPt */\012PUSHW[ ]	/* 1 value pushed */\01211 \012MDRP[10000]	/* MoveDirectRelPt */\012PUSHW[ ]	/* 1 value pushed */\0121 \012SRP0[ ]	/* SetRefPoint0 */\012PUSHW[ ]	/* 2 values pushed */\01227 4 \012MIRP[10100]	/* MoveIndirectRelPt */\012PUSHW[ ]	/* 1 value pushed */\0126 \012SRP0[ ]	/* SetRefPoint0 */\012PUSHW[ ]	/* 2 values pushed */\01228 4 \012MIRP[10100]	/* MoveIndirectRelPt */\012PUSHW[ ]	/* 1 value pushed */\01232 \012MDRP[10000]	/* MoveDirectRelPt */\012PUSHW[ ]	/* 1 value pushed */\01227 \012SRP0[ ]	/* SetRefPoint0 */\012PUSHW[ ]	/* 1 value pushed */\01234 \012MDRP[10000]	/* MoveDirectRelPt */\012IUP[0]	/* InterpolateUntPts */\012IUP[1]	/* InterpolateUntPts */";
};
width = 424;
}
);
note = I.tabular;
},
{
color = 2;
glyphname = J.tabular;
lastChange = "2021-12-03 13:19:10 +0000";
layers = (
{
layerId = "04A772B0-FA71-43EE-BB43-CAC7F0EBD631";
paths = (
{
closed = 1;
nodes = (
"283.918 -103 OFFCURVE",
"328 -67.83 OFFCURVE",
"328 47 CURVE SMOOTH",
"328 367 LINE",
"376 367 LINE",
"376 506 LINE",
"112 506 LINE",
"112 367 LINE",
"165 367 LINE",
"165 45 LINE SMOOTH",
"165 37 OFFCURVE",
"164.667 36 OFFCURVE",
"158 36 CURVE SMOOTH",
"154 36 OFFCURVE",
"146.667 36.667 OFFCURVE",
"136 38 CURVE SMOOTH",
"125.333 39.333 OFFCURVE",
"114.333 40.667 OFFCURVE",
"103 42 CURVE SMOOTH",
"60 48 LINE",
"60 -91 LINE",
"73.651 -91 OFFCURVE",
"160.079 -103 OFFCURVE",
"175 -103 CURVE SMOOTH"
);
},
{
closed = 1;
nodes = (
"163.627 -85 OFFCURVE",
"86.8 -75 OFFCURVE",
"77 -75 CURVE",
"77 27 LINE",
"111 22 LINE SMOOTH",
"129.667 19.333 OFFCURVE",
"150 17 OFFCURVE",
"158 17 CURVE SMOOTH",
"176.667 17 OFFCURVE",
"181 22.333 OFFCURVE",
"181 45 CURVE SMOOTH",
"181 385 LINE",
"128 385 LINE",
"128 488 LINE",
"359 488 LINE",
"359 385 LINE",
"311 385 LINE",
"311 47 LINE SMOOTH",
"311 -54.873 OFFCURVE",
"271.978 -85 OFFCURVE",
"175 -85 CURVE SMOOTH"
);
},
{
closed = 1;
nodes = (
"266.549 -76 OFFCURVE",
"302 -47.969 OFFCURVE",
"302 47 CURVE SMOOTH",
"302 394 LINE",
"351 394 LINE",
"351 479 LINE",
"137 479 LINE",
"137 394 LINE",
"190 394 LINE",
"190 45 LINE SMOOTH",
"190 14.333 OFFCURVE",
"184.667 8 OFFCURVE",
"158 8 CURVE SMOOTH",
"147.333 8 OFFCURVE",
"128.667 9.333 OFFCURVE",
"114 12 CURVE SMOOTH",
"86 16 LINE",
"86 -66 LINE",
"93.238 -66 OFFCURVE",
"166.093 -76 OFFCURVE",
"175 -76 CURVE SMOOTH"
);
}
);
userData = {
assembly = "PUSHW[ ]	/* 4 values pushed */\01228 6 67 4 \012CALL[ ]	/* CallFunction */\012PUSHW[ ]	/* 3 values pushed */\01254 48 3 \012CALL[ ]	/* CallFunction */\012PUSHW[ ]	/* 3 values pushed */\0120 67 28 \012SRP1[ ]	/* SetRefPoint1 */\012SRP2[ ]	/* SetRefPoint2 */\012IP[ ]	/* InterpolatePts */\012PUSHW[ ]	/* 1 value pushed */\0120 \012MDAP[1]	/* MoveDirectAbsPt */\012PUSHW[ ]	/* 2 values pushed */\0121 5 \012MIRP[10100]	/* MoveIndirectRelPt */\012PUSHW[ ]	/* 3 values pushed */\01275 67 28 \012SRP1[ ]	/* SetRefPoint1 */\012SRP2[ ]	/* SetRefPoint2 */\012IP[ ]	/* InterpolatePts */\012PUSHW[ ]	/* 1 value pushed */\01275 \012MDAP[1]	/* MoveDirectAbsPt */\012PUSHW[ ]	/* 2 values pushed */\0124 6 \012MIRP[10100]	/* MoveIndirectRelPt */\012PUSHW[ ]	/* 1 value pushed */\01228 \012SRP0[ ]	/* SetRefPoint0 */\012PUSHW[ ]	/* 2 values pushed */\01215 6 \012MIRP[10100]	/* MoveIndirectRelPt */\012PUSHW[ ]	/* 1 value pushed */\0124 \012SRP0[ ]	/* SetRefPoint0 */\012PUSHW[ ]	/* 2 values pushed */\01223 6 \012MIRP[10100]	/* MoveIndirectRelPt */\012PUSHW[ ]	/* 2 values pushed */\01256 6 \012MIRP[10100]	/* MoveIndirectRelPt */\012PUSHW[ ]	/* 1 value pushed */\01228 \012SRP0[ ]	/* SetRefPoint0 */\012PUSHW[ ]	/* 1 value pushed */\01277 \012MDRP[11100]	/* MoveDirectRelPt */\012PUSHW[ ]	/* 1 value pushed */\01254 \012SRP0[ ]	/* SetRefPoint0 */\012PUSHW[ ]	/* 1 value pushed */\01279 \012MDRP[11100]	/* MoveDirectRelPt */\012SVTCA[0]	/* SetFreedomAndProjectionVectorToAxis */\012PUSHW[ ]	/* 4 values pushed */\01220 4 61 4 \012CALL[ ]	/* CallFunction */\012PUSHW[ ]	/* 4 values pushed */\0121 2 2 4 \012CALL[ ]	/* CallFunction */\012PUSHW[ ]	/* 1 value pushed */\01220 \012SRP0[ ]	/* SetRefPoint0 */\012PUSHW[ ]	/* 2 values pushed */\0129 2 \012MIRP[10100]	/* MoveIndirectRelPt */\012PUSHW[ ]	/* 1 value pushed */\0122 \012SRP0[ ]	/* SetRefPoint0 */\012PUSHW[ ]	/* 1 value pushed */\01224 \012MDRP[10000]	/* MoveDirectRelPt */\012PUSHW[ ]	/* 1 value pushed */\0122 \012SRP0[ ]	/* SetRefPoint0 */\012PUSHW[ ]	/* 2 values pushed */\01253 4 \012MIRP[10100]	/* MoveIndirectRelPt */\012PUSHW[ ]	/* 1 value pushed */\0121 \012SRP0[ ]	/* SetRefPoint0 */\012PUSHW[ ]	/* 2 values pushed */\01255 4 \012MIRP[10100]	/* MoveIndirectRelPt */\012PUSHW[ ]	/* 1 value pushed */\01276 \012MDRP[10000]	/* MoveDirectRelPt */\012IUP[0]	/* InterpolateUntPts */\012IUP[1]	/* InterpolateUntPts */";
};
width = 446;
}
);
note = J.tabular;
},
{
color = 2;
glyphname = K.tabular;
lastChange = "2021-12-03 13:19:10 +0000";
layers = (
{
layerId = "04A772B0-FA71-43EE-BB43-CAC7F0EBD631";
paths = (
{
closed = 1;
nodes = (
"395 0 LINE",
"385.137 30.683 OFFCURVE",
"367.071 89.689 OFFCURVE",
"355 127 CURVE SMOOTH",
"340.333 172.333 OFFCURVE",
"326 218.333 OFFCURVE",
"314 257 CURVE",
"393 496 LINE",
"54 496 LINE",
"54 0 LINE"
);
},
{
closed = 1;
nodes = (
"71 478 LINE",
"201 478 LINE",
"201 375 LINE",
"222 478 LINE",
"370 478 LINE",
"296 258 LINE",
"371 18 LINE",
"227 18 LINE",
"201 141 LINE",
"201 18 LINE",
"71 18 LINE"
);
},
{
closed = 1;
nodes = (
"193 27 LINE",
"193 226 LINE",
"233 27 LINE",
"360 27 LINE",
"287 257 LINE",
"358 469 LINE",
"228 469 LINE",
"193 289 LINE",
"193 469 LINE",
"79 469 LINE",
"79 27 LINE"
);
}
);
userData = {
assembly = "PUSHW[ ]	/* 4 values pushed */\01210 6 22 4 \012CALL[ ]	/* CallFunction */\012PUSHW[ ]	/* 1 value pushed */\01210 \012SRP0[ ]	/* SetRefPoint0 */\012PUSHW[ ]	/* 1 value pushed */\0126 \012MDRP[10000]	/* MoveDirectRelPt */\012PUSHW[ ]	/* 1 value pushed */\01210 \012SRP0[ ]	/* SetRefPoint0 */\012PUSHW[ ]	/* 2 values pushed */\0128 6 \012MIRP[10100]	/* MoveIndirectRelPt */\012PUSHW[ ]	/* 3 values pushed */\01212 22 10 \012SRP1[ ]	/* SetRefPoint1 */\012SRP2[ ]	/* SetRefPoint2 */\012IP[ ]	/* InterpolatePts */\012PUSHW[ ]	/* 1 value pushed */\01212 \012MDAP[1]	/* MoveDirectAbsPt */\012PUSHW[ ]	/* 2 values pushed */\01211 6 \012MIRP[10100]	/* MoveIndirectRelPt */\012PUSHW[ ]	/* 1 value pushed */\01214 \012MDRP[10000]	/* MoveDirectRelPt */\012SVTCA[0]	/* SetFreedomAndProjectionVectorToAxis */\012PUSHW[ ]	/* 1 value pushed */\0120 \012RCVT[ ]	/* ReadCVT */\012IF[ ]	/* If */\012PUSHW[ ]	/* 1 value pushed */\01222 \012MDAP[1]	/* MoveDirectAbsPt */\012ELSE[ ]	/* Else */\012PUSHW[ ]	/* 2 values pushed */\01222 11 \012MIAP[0]	/* MoveIndirectAbsPt */\012EIF[ ]	/* EndIf */\012PUSHW[ ]	/* 1 value pushed */\0120 \012RCVT[ ]	/* ReadCVT */\012IF[ ]	/* If */\012PUSHW[ ]	/* 1 value pushed */\01229 \012MDAP[1]	/* MoveDirectAbsPt */\012ELSE[ ]	/* Else */\012PUSHW[ ]	/* 2 values pushed */\01229 7 \012MIAP[0]	/* MoveIndirectAbsPt */\012EIF[ ]	/* EndIf */\012PUSHW[ ]	/* 3 values pushed */\0120 29 22 \012SRP1[ ]	/* SetRefPoint1 */\012SRP2[ ]	/* SetRefPoint2 */\012IP[ ]	/* InterpolatePts */\012PUSHW[ ]	/* 3 values pushed */\0122 29 22 \012SRP1[ ]	/* SetRefPoint1 */\012SRP2[ ]	/* SetRefPoint2 */\012IP[ ]	/* InterpolatePts */\012PUSHW[ ]	/* 3 values pushed */\0124 29 22 \012SRP1[ ]	/* SetRefPoint1 */\012SRP2[ ]	/* SetRefPoint2 */\012IP[ ]	/* InterpolatePts */\012PUSHW[ ]	/* 3 values pushed */\0126 29 22 \012SRP1[ ]	/* SetRefPoint1 */\012SRP2[ ]	/* SetRefPoint2 */\012IP[ ]	/* InterpolatePts */\012PUSHW[ ]	/* 3 values pushed */\01215 29 22 \012SRP1[ ]	/* SetRefPoint1 */\012SRP2[ ]	/* SetRefPoint2 */\012IP[ ]	/* InterpolatePts */\012PUSHW[ ]	/* 3 values pushed */\01217 29 22 \012SRP1[ ]	/* SetRefPoint1 */\012SRP2[ ]	/* SetRefPoint2 */\012IP[ ]	/* InterpolatePts */\012PUSHW[ ]	/* 3 values pushed */\01219 29 22 \012SRP1[ ]	/* SetRefPoint1 */\012SRP2[ ]	/* SetRefPoint2 */\012IP[ ]	/* InterpolatePts */\012PUSHW[ ]	/* 3 values pushed */\01221 29 22 \012SRP1[ ]	/* SetRefPoint1 */\012SRP2[ ]	/* SetRefPoint2 */\012IP[ ]	/* InterpolatePts */\012IUP[0]	/* InterpolateUntPts */\012IUP[1]	/* InterpolateUntPts */";
};
width = 449;
}
);
note = K.tabular;
},
{
color = 2;
glyphname = L.tabular;
lastChange = "2021-12-03 13:19:10 +0000";
layers = (
{
layerId = "04A772B0-FA71-43EE-BB43-CAC7F0EBD631";
paths = (
{
closed = 1;
nodes = (
"316 0 LINE",
"316 135 LINE",
"244 135 LINE",
"244 496 LINE",
"93 496 LINE",
"93 0 LINE"
);
},
{
closed = 1;
nodes = (
"109 478 LINE",
"229 478 LINE",
"229 117 LINE",
"300 117 LINE",
"300 18 LINE",
"109 18 LINE"
);
},
{
closed = 1;
nodes = (
"292 27 LINE",
"292 108 LINE",
"221 108 LINE",
"221 469 LINE",
"117 469 LINE",
"117 27 LINE"
);
}
);
userData = {
assembly = "PUSHW[ ]	/* 4 values pushed */\0121 6 12 4 \012CALL[ ]	/* CallFunction */\012PUSHW[ ]	/* 4 values pushed */\01215 6 9 4 \012CALL[ ]	/* CallFunction */\012PUSHW[ ]	/* 1 value pushed */\0121 \012SRP0[ ]	/* SetRefPoint0 */\012PUSHW[ ]	/* 2 values pushed */\0120 6 \012MIRP[10100]	/* MoveIndirectRelPt */\012PUSHW[ ]	/* 2 values pushed */\0123 5 \012MIRP[10100]	/* MoveIndirectRelPt */\012PUSHW[ ]	/* 1 value pushed */\0120 \012SRP0[ ]	/* SetRefPoint0 */\012PUSHW[ ]	/* 2 values pushed */\01213 6 \012MIRP[10100]	/* MoveIndirectRelPt */\012SVTCA[0]	/* SetFreedomAndProjectionVectorToAxis */\012PUSHW[ ]	/* 1 value pushed */\0120 \012RCVT[ ]	/* ReadCVT */\012IF[ ]	/* If */\012PUSHW[ ]	/* 1 value pushed */\01212 \012MDAP[1]	/* MoveDirectAbsPt */\012ELSE[ ]	/* Else */\012PUSHW[ ]	/* 2 values pushed */\01212 11 \012MIAP[0]	/* MoveIndirectAbsPt */\012EIF[ ]	/* EndIf */\012PUSHW[ ]	/* 1 value pushed */\0120 \012RCVT[ ]	/* ReadCVT */\012IF[ ]	/* If */\012PUSHW[ ]	/* 1 value pushed */\01216 \012MDAP[1]	/* MoveDirectAbsPt */\012ELSE[ ]	/* Else */\012PUSHW[ ]	/* 2 values pushed */\01216 7 \012MIAP[0]	/* MoveIndirectAbsPt */\012EIF[ ]	/* EndIf */\012PUSHW[ ]	/* 4 values pushed */\0123 2 4 4 \012CALL[ ]	/* CallFunction */\012PUSHW[ ]	/* 1 value pushed */\01216 \012SRP0[ ]	/* SetRefPoint0 */\012PUSHW[ ]	/* 2 values pushed */\0122 4 \012MIRP[10100]	/* MoveIndirectRelPt */\012PUSHW[ ]	/* 1 value pushed */\0124 \012SRP0[ ]	/* SetRefPoint0 */\012PUSHW[ ]	/* 2 values pushed */\01215 4 \012MIRP[10100]	/* MoveIndirectRelPt */\012IUP[0]	/* InterpolateUntPts */\012IUP[1]	/* InterpolateUntPts */";
};
width = 423;
}
);
note = L.tabular;
},
{
color = 2;
glyphname = M.tabular;
lastChange = "2021-12-03 13:19:10 +0000";
layers = (
{
layerId = "04A772B0-FA71-43EE-BB43-CAC7F0EBD631";
paths = (
{
closed = 1;
nodes = (
"404 0 LINE",
"404 496 LINE",
"41 496 LINE",
"41 0 LINE"
);
},
{
closed = 1;
nodes = (
"58 478 LINE",
"207 478 LINE",
"222 331 LINE",
"224.667 357 OFFCURVE",
"227.333 381.833 OFFCURVE",
"230 405.5 CURVE SMOOTH",
"238 478 LINE",
"387 478 LINE",
"387 18 LINE",
"281 18 LINE",
"281 157 LINE",
"268 18 LINE",
"175 18 LINE",
"164 146 LINE",
"164 18 LINE",
"58 18 LINE"
);
},
{
closed = 1;
nodes = (
"155 27 LINE",
"155 335 LINE",
"182 27 LINE",
"261 27 LINE",
"290 335 LINE",
"290 27 LINE",
"378 27 LINE",
"378 469 LINE",
"246 469 LINE",
"222 244 LINE",
"200 469 LINE",
"67 469 LINE",
"67 27 LINE"
);
}
);
userData = {
assembly = "PUSHW[ ]	/* 4 values pushed */\0121 6 28 4 \012CALL[ ]	/* CallFunction */\012PUSHW[ ]	/* 4 values pushed */\01216 6 26 4 \012CALL[ ]	/* CallFunction */\012PUSHW[ ]	/* 4 values pushed */\0128 6 9 4 \012CALL[ ]	/* CallFunction */\012PUSHW[ ]	/* 1 value pushed */\0121 \012SRP0[ ]	/* SetRefPoint0 */\012PUSHW[ ]	/* 2 values pushed */\0122 6 \012MIRP[10100]	/* MoveIndirectRelPt */\012PUSHW[ ]	/* 3 values pushed */\0125 26 16 \012SRP1[ ]	/* SetRefPoint1 */\012SRP2[ ]	/* SetRefPoint2 */\012IP[ ]	/* InterpolatePts */\012PUSHW[ ]	/* 3 values pushed */\01222 26 16 \012SRP1[ ]	/* SetRefPoint1 */\012SRP2[ ]	/* SetRefPoint2 */\012IP[ ]	/* InterpolatePts */\012PUSHW[ ]	/* 1 value pushed */\0129 \012SRP0[ ]	/* SetRefPoint0 */\012PUSHW[ ]	/* 2 values pushed */\01231 6 \012MIRP[10100]	/* MoveIndirectRelPt */\012PUSHW[ ]	/* 1 value pushed */\0128 \012SRP0[ ]	/* SetRefPoint0 */\012PUSHW[ ]	/* 1 value pushed */\01233 \012MDRP[11100]	/* MoveDirectRelPt */\012SVTCA[0]	/* SetFreedomAndProjectionVectorToAxis */\012PUSHW[ ]	/* 1 value pushed */\0120 \012RCVT[ ]	/* ReadCVT */\012IF[ ]	/* If */\012PUSHW[ ]	/* 1 value pushed */\01229 \012MDAP[1]	/* MoveDirectAbsPt */\012ELSE[ ]	/* Else */\012PUSHW[ ]	/* 2 values pushed */\01229 11 \012MIAP[0]	/* MoveIndirectAbsPt */\012EIF[ ]	/* EndIf */\012PUSHW[ ]	/* 1 value pushed */\0120 \012RCVT[ ]	/* ReadCVT */\012IF[ ]	/* If */\012PUSHW[ ]	/* 1 value pushed */\01228 \012MDAP[1]	/* MoveDirectAbsPt */\012ELSE[ ]	/* Else */\012PUSHW[ ]	/* 2 values pushed */\01228 7 \012MIAP[0]	/* MoveIndirectAbsPt */\012EIF[ ]	/* EndIf */\012PUSHW[ ]	/* 3 values pushed */\0120 28 29 \012SRP1[ ]	/* SetRefPoint1 */\012SRP2[ ]	/* SetRefPoint2 */\012IP[ ]	/* InterpolatePts */\012PUSHW[ ]	/* 3 values pushed */\0125 28 29 \012SRP1[ ]	/* SetRefPoint1 */\012SRP2[ ]	/* SetRefPoint2 */\012IP[ ]	/* InterpolatePts */\012PUSHW[ ]	/* 3 values pushed */\01210 28 29 \012SRP1[ ]	/* SetRefPoint1 */\012SRP2[ ]	/* SetRefPoint2 */\012IP[ ]	/* InterpolatePts */\012PUSHW[ ]	/* 3 values pushed */\01215 28 29 \012SRP1[ ]	/* SetRefPoint1 */\012SRP2[ ]	/* SetRefPoint2 */\012IP[ ]	/* InterpolatePts */\012PUSHW[ ]	/* 3 values pushed */\01222 28 29 \012SRP1[ ]	/* SetRefPoint1 */\012SRP2[ ]	/* SetRefPoint2 */\012IP[ ]	/* InterpolatePts */\012PUSHW[ ]	/* 3 values pushed */\01227 28 29 \012SRP1[ ]	/* SetRefPoint1 */\012SRP2[ ]	/* SetRefPoint2 */\012IP[ ]	/* InterpolatePts */\012IUP[0]	/* InterpolateUntPts */\012IUP[1]	/* InterpolateUntPts */";
};
width = 454;
}
);
note = M.tabular;
},
{
color = 2;
glyphname = N.tabular;
lastChange = "2021-12-03 13:19:10 +0000";
layers = (
{
anchors = (
{
name = bottom;
position = "{216, 0}";
},
{
name = top;
position = "{215, 495}";
}
);
layerId = "04A772B0-FA71-43EE-BB43-CAC7F0EBD631";
paths = (
{
closed = 1;
nodes = (
"216 0 LINE",
"216 26 LINE",
"222 0 LINE",
"362 0 LINE",
"362 496 LINE",
"215 496 LINE",
"215 474 LINE",
"202 496 LINE",
"69 496 LINE",
"69 0 LINE"
);
},
{
closed = 1;
nodes = (
"85 478 LINE",
"197 478 LINE",
"231 335 LINE",
"231 478 LINE",
"345 478 LINE",
"345 18 LINE",
"235 18 LINE",
"199 146 LINE",
"199 18 LINE",
"85 18 LINE"
);
},
{
closed = 1;
nodes = (
"191 27 LINE",
"191 211 LINE",
"241 27 LINE",
"337 27 LINE",
"337 469 LINE",
"240 469 LINE",
"240 263 LINE",
"190 469 LINE",
"94 469 LINE",
"94 27 LINE"
);
}
);
userData = {
assembly = "PUSHW[ ]	/* 4 values pushed */\0121 6 22 4 \012CALL[ ]	/* CallFunction */\012PUSHW[ ]	/* 1 value pushed */\0121 \012SRP0[ ]	/* SetRefPoint0 */\012PUSHW[ ]	/* 2 values pushed */\0122 6 \012MIRP[10100]	/* MoveIndirectRelPt */\012PUSHW[ ]	/* 1 value pushed */\0121 \012SRP0[ ]	/* SetRefPoint0 */\012PUSHW[ ]	/* 1 value pushed */\0124 \012MDRP[10000]	/* MoveDirectRelPt */\012PUSHW[ ]	/* 1 value pushed */\0124 \012MDAP[1]	/* MoveDirectAbsPt */\012PUSHW[ ]	/* 1 value pushed */\0121 \012SRP0[ ]	/* SetRefPoint0 */\012PUSHW[ ]	/* 1 value pushed */\01215 \012MDRP[10000]	/* MoveDirectRelPt */\012PUSHW[ ]	/* 1 value pushed */\01215 \012MDAP[1]	/* MoveDirectAbsPt */\012PUSHW[ ]	/* 2 values pushed */\0128 6 \012MIRP[10100]	/* MoveIndirectRelPt */\012PUSHW[ ]	/* 3 values pushed */\0125 15 8 \012SRP1[ ]	/* SetRefPoint1 */\012SRP2[ ]	/* SetRefPoint2 */\012IP[ ]	/* InterpolatePts */\012PUSHW[ ]	/* 2 values pushed */\0126 6 \012MIRP[10100]	/* MoveIndirectRelPt */\012PUSHW[ ]	/* 1 value pushed */\0122 \012SRP0[ ]	/* SetRefPoint0 */\012PUSHW[ ]	/* 2 values pushed */\01214 6 \012MIRP[10100]	/* MoveIndirectRelPt */\012PUSHW[ ]	/* 3 values pushed */\01219 15 8 \012SRP1[ ]	/* SetRefPoint1 */\012SRP2[ ]	/* SetRefPoint2 */\012IP[ ]	/* InterpolatePts */\012PUSHW[ ]	/* 3 values pushed */\01220 15 8 \012SRP1[ ]	/* SetRefPoint1 */\012SRP2[ ]	/* SetRefPoint2 */\012IP[ ]	/* InterpolatePts */\012PUSHW[ ]	/* 3 values pushed */\01225 15 8 \012SRP1[ ]	/* SetRefPoint1 */\012SRP2[ ]	/* SetRefPoint2 */\012IP[ ]	/* InterpolatePts */\012PUSHW[ ]	/* 1 value pushed */\0126 \012SRP0[ ]	/* SetRefPoint0 */\012PUSHW[ ]	/* 2 values pushed */\01227 6 \012MIRP[10100]	/* MoveIndirectRelPt */\012SVTCA[0]	/* SetFreedomAndProjectionVectorToAxis */\012PUSHW[ ]	/* 1 value pushed */\0120 \012RCVT[ ]	/* ReadCVT */\012IF[ ]	/* If */\012PUSHW[ ]	/* 1 value pushed */\01223 \012MDAP[1]	/* MoveDirectAbsPt */\012ELSE[ ]	/* Else */\012PUSHW[ ]	/* 2 values pushed */\01223 11 \012MIAP[0]	/* MoveIndirectAbsPt */\012EIF[ ]	/* EndIf */\012PUSHW[ ]	/* 1 value pushed */\0120 \012RCVT[ ]	/* ReadCVT */\012IF[ ]	/* If */\012PUSHW[ ]	/* 1 value pushed */\01226 \012MDAP[1]	/* MoveDirectAbsPt */\012ELSE[ ]	/* Else */\012PUSHW[ ]	/* 2 values pushed */\01226 11 \012MIAP[0]	/* MoveIndirectAbsPt */\012EIF[ ]	/* EndIf */\012PUSHW[ ]	/* 1 value pushed */\0120 \012RCVT[ ]	/* ReadCVT */\012IF[ ]	/* If */\012PUSHW[ ]	/* 1 value pushed */\01221 \012MDAP[1]	/* MoveDirectAbsPt */\012ELSE[ ]	/* Else */\012PUSHW[ ]	/* 2 values pushed */\01221 7 \012MIAP[0]	/* MoveIndirectAbsPt */\012EIF[ ]	/* EndIf */\012PUSHW[ ]	/* 1 value pushed */\0120 \012RCVT[ ]	/* ReadCVT */\012IF[ ]	/* If */\012PUSHW[ ]	/* 1 value pushed */\01228 \012MDAP[1]	/* MoveDirectAbsPt */\012ELSE[ ]	/* Else */\012PUSHW[ ]	/* 2 values pushed */\01228 7 \012MIAP[0]	/* MoveIndirectAbsPt */\012EIF[ ]	/* EndIf */\012PUSHW[ ]	/* 3 values pushed */\0120 21 23 \012SRP1[ ]	/* SetRefPoint1 */\012SRP2[ ]	/* SetRefPoint2 */\012IP[ ]	/* InterpolatePts */\012PUSHW[ ]	/* 3 values pushed */\0125 21 23 \012SRP1[ ]	/* SetRefPoint1 */\012SRP2[ ]	/* SetRefPoint2 */\012IP[ ]	/* InterpolatePts */\012PUSHW[ ]	/* 3 values pushed */\01214 21 23 \012SRP1[ ]	/* SetRefPoint1 */\012SRP2[ ]	/* SetRefPoint2 */\012IP[ ]	/* InterpolatePts */\012PUSHW[ ]	/* 3 values pushed */\01219 21 23 \012SRP1[ ]	/* SetRefPoint1 */\012SRP2[ ]	/* SetRefPoint2 */\012IP[ ]	/* InterpolatePts */\012PUSHW[ ]	/* 3 values pushed */\01220 21 23 \012SRP1[ ]	/* SetRefPoint1 */\012SRP2[ ]	/* SetRefPoint2 */\012IP[ ]	/* InterpolatePts */\012PUSHW[ ]	/* 3 values pushed */\01225 21 23 \012SRP1[ ]	/* SetRefPoint1 */\012SRP2[ ]	/* SetRefPoint2 */\012IP[ ]	/* InterpolatePts */\012IUP[0]	/* InterpolateUntPts */\012IUP[1]	/* InterpolateUntPts */";
};
width = 442;
}
);
note = N.tabular;
},
{
color = 2;
glyphname = O.tabular;
lastChange = "2021-12-03 13:19:10 +0000";
layers = (
{
anchors = (
{
name = bottom;
position = "{219, 0}";
},
{
name = center;
position = "{222, 296}";
},
{
name = ogonek;
position = "{266, 0}";
},
{
name = top;
position = "{219, 505}";
},
{
name = topleft;
position = "{20, 591}";
},
{
name = topright;
position = "{265, 495}";
}
);
layerId = "04A772B0-FA71-43EE-BB43-CAC7F0EBD631";
paths = (
{
closed = 1;
nodes = (
"322.072 -9 OFFCURVE",
"366 25.177 OFFCURVE",
"366 158 CURVE SMOOTH",
"366 377 LINE SMOOTH",
"366 471.667 OFFCURVE",
"311 505 OFFCURVE",
"219 505 CURVE SMOOTH",
"127 505 OFFCURVE",
"66 470.333 OFFCURVE",
"66 377 CURVE SMOOTH",
"66 157 LINE SMOOTH",
"66 25.033 OFFCURVE",
"115.969 -9 OFFCURVE",
"219 -9 CURVE SMOOTH"
);
},
{
closed = 1;
nodes = (
"126.464 9 OFFCURVE",
"83 40.133 OFFCURVE",
"83 157 CURVE SMOOTH",
"83 377 LINE SMOOTH",
"83 458.333 OFFCURVE",
"136.333 487 OFFCURVE",
"219 487 CURVE SMOOTH",
"300.333 487 OFFCURVE",
"350 458.333 OFFCURVE",
"350 377 CURVE SMOOTH",
"350 158 LINE SMOOTH",
"350 40.29 OFFCURVE",
"310.498 9 OFFCURVE",
"219 9 CURVE SMOOTH"
);
},
{
closed = 1;
nodes = (
"303.545 18 OFFCURVE",
"341 46.477 OFFCURVE",
"341 158 CURVE SMOOTH",
"341 377 LINE SMOOTH",
"341 451.667 OFFCURVE",
"295 478 OFFCURVE",
"219 478 CURVE SMOOTH",
"141.667 478 OFFCURVE",
"91 451.667 OFFCURVE",
"91 377 CURVE SMOOTH",
"91 157 LINE SMOOTH",
"91 46.559 OFFCURVE",
"132.677 18 OFFCURVE",
"219 18 CURVE SMOOTH"
);
},
{
closed = 1;
nodes = (
"215 87 OFFCURVE",
"212 88.5 OFFCURVE",
"210 91.5 CURVE SMOOTH",
"208 94.5 OFFCURVE",
"207 100.333 OFFCURVE",
"207 109 CURVE SMOOTH",
"207 382 LINE SMOOTH",
"207 391.333 OFFCURVE",
"208 397.667 OFFCURVE",
"210 401 CURVE SMOOTH",
"212 404.333 OFFCURVE",
"215 406 OFFCURVE",
"219 406 CURVE SMOOTH",
"222.333 406 OFFCURVE",
"225 404.333 OFFCURVE",
"227 401 CURVE SMOOTH",
"229 397.667 OFFCURVE",
"230 391.333 OFFCURVE",
"230 382 CURVE SMOOTH",
"230 109 LINE SMOOTH",
"230 100.333 OFFCURVE",
"229 94.5 OFFCURVE",
"227 91.5 CURVE SMOOTH",
"225 88.5 OFFCURVE",
"222.333 87 OFFCURVE",
"219 87 CURVE SMOOTH"
);
},
{
closed = 1;
nodes = (
"220.333 96 OFFCURVE",
"221 100.333 OFFCURVE",
"221 109 CURVE SMOOTH",
"221 382 LINE SMOOTH",
"221 392 OFFCURVE",
"220.333 397 OFFCURVE",
"219 397 CURVE SMOOTH",
"217 397 OFFCURVE",
"216 392 OFFCURVE",
"216 382 CURVE SMOOTH",
"216 109 LINE SMOOTH",
"216 100.333 OFFCURVE",
"217 96 OFFCURVE",
"219 96 CURVE SMOOTH"
);
}
);
userData = {
assembly = "PUSHW[ ]	/* 4 values pushed */\01229 6 65 4 \012CALL[ ]	/* CallFunction */\012PUSHW[ ]	/* 4 values pushed */\01213 6 34 4 \012CALL[ ]	/* CallFunction */\012PUSHW[ ]	/* 1 value pushed */\01229 \012SRP0[ ]	/* SetRefPoint0 */\012PUSHW[ ]	/* 2 values pushed */\0125 6 \012MIRP[10100]	/* MoveIndirectRelPt */\012PUSHW[ ]	/* 1 value pushed */\01213 \012SRP0[ ]	/* SetRefPoint0 */\012PUSHW[ ]	/* 2 values pushed */\01221 6 \012MIRP[10100]	/* MoveIndirectRelPt */\012PUSHW[ ]	/* 1 value pushed */\01234 \012SRP0[ ]	/* SetRefPoint0 */\012PUSHW[ ]	/* 1 value pushed */\01239 \012MDRP[10000]	/* MoveDirectRelPt */\012PUSHW[ ]	/* 1 value pushed */\01239 \012MDAP[1]	/* MoveDirectAbsPt */\012PUSHW[ ]	/* 1 value pushed */\0125 \012SRP0[ ]	/* SetRefPoint0 */\012PUSHW[ ]	/* 2 values pushed */\01240 6 \012MIRP[10100]	/* MoveIndirectRelPt */\012PUSHW[ ]	/* 1 value pushed */\01221 \012SRP0[ ]	/* SetRefPoint0 */\012PUSHW[ ]	/* 2 values pushed */\01273 6 \012MIRP[10100]	/* MoveIndirectRelPt */\012PUSHW[ ]	/* 1 value pushed */\01213 \012SRP0[ ]	/* SetRefPoint0 */\012PUSHW[ ]	/* 1 value pushed */\01279 \012MDRP[11100]	/* MoveDirectRelPt */\012SVTCA[0]	/* SetFreedomAndProjectionVectorToAxis */\012PUSHW[ ]	/* 1 value pushed */\01269 \012MDAP[1]	/* MoveDirectAbsPt */\012PUSHW[ ]	/* 1 value pushed */\0120 \012RCVT[ ]	/* ReadCVT */\012IF[ ]	/* If */\012PUSHW[ ]	/* 1 value pushed */\01260 \012MDAP[1]	/* MoveDirectAbsPt */\012ELSE[ ]	/* Else */\012PUSHW[ ]	/* 2 values pushed */\01260 7 \012MIAP[0]	/* MoveIndirectAbsPt */\012EIF[ ]	/* EndIf */\012IUP[0]	/* InterpolateUntPts */\012IUP[1]	/* InterpolateUntPts */";
};
width = 443;
}
);
note = O.tabular;
},
{
color = 2;
glyphname = Oslash.tabular;
lastChange = "2021-12-03 13:19:10 +0000";
layers = (
{
layerId = "04A772B0-FA71-43EE-BB43-CAC7F0EBD631";
paths = (
{
closed = 1;
nodes = (
"145 -40 LINE",
"147 -34.667 OFFCURVE",
"149.833 -28.667 OFFCURVE",
"153.5 -22 CURVE SMOOTH",
"164 -1 LINE",
"185.333 -7.667 OFFCURVE",
"208.667 -9 OFFCURVE",
"234 -9 CURVE SMOOTH",
"340.121 -9 OFFCURVE",
"387 25.786 OFFCURVE",
"387 160 CURVE SMOOTH",
"387 382 LINE SMOOTH",
"387 403.333 OFFCURVE",
"385.667 419 OFFCURVE",
"379 435 CURVE",
"436 549 LINE",
"303 549 LINE",
"300.333 543.667 OFFCURVE",
"297.167 537.333 OFFCURVE",
"293.5 530 CURVE SMOOTH",
"283 508 LINE",
"268.333 510.667 OFFCURVE",
"251.333 512 OFFCURVE",
"234 512 CURVE SMOOTH",
"138.668 512 OFFCURVE",
"76 476.075 OFFCURVE",
"76 382 CURVE SMOOTH",
"76 159 LINE SMOOTH",
"76 135 OFFCURVE",
"78.333 113.667 OFFCURVE",
"81 95 CURVE",
"15 -40 LINE"
);
},
{
closed = 1;
nodes = (
"236 97 OFFCURVE",
"237 101.667 OFFCURVE",
"237 111 CURVE SMOOTH",
"237 186 LINE",
"231 174 LINE",
"231 111 LINE SMOOTH",
"231 101.667 OFFCURVE",
"232 97 OFFCURVE",
"234 97 CURVE SMOOTH"
);
},
{
closed = 1;
nodes = (
"230 88 OFFCURVE",
"227 89.5 OFFCURVE",
"225 92.5 CURVE SMOOTH",
"223 95.5 OFFCURVE",
"222 101.667 OFFCURVE",
"222 111 CURVE SMOOTH",
"222 177 LINE",
"245 225 LINE",
"245 111 LINE SMOOTH",
"245 101.667 OFFCURVE",
"244 95.5 OFFCURVE",
"242 92.5 CURVE SMOOTH",
"240 89.5 OFFCURVE",
"237.333 88 OFFCURVE",
"234 88 CURVE SMOOTH"
);
},
{
closed = 1;
nodes = (
"99 93 LINE",
"95 111 OFFCURVE",
"93 133 OFFCURVE",
"93 159 CURVE SMOOTH",
"93 382 LINE SMOOTH",
"93 464.667 OFFCURVE",
"148.667 494 OFFCURVE",
"234 494 CURVE SMOOTH",
"256.667 494 OFFCURVE",
"276 493.333 OFFCURVE",
"292 488 CURVE",
"314 531 LINE",
"406 531 LINE",
"360 436 LINE",
"366.667 420 OFFCURVE",
"370 404.667 OFFCURVE",
"370 382 CURVE SMOOTH",
"370 160 LINE SMOOTH",
"370 39.928 OFFCURVE",
"326.958 9 OFFCURVE",
"234 9 CURVE SMOOTH",
"203.333 9 OFFCURVE",
"177.667 11.333 OFFCURVE",
"155 22 CURVE",
"134 -22 LINE",
"43 -22 LINE"
);
},
{
closed = 1;
nodes = (
"129 -13 LINE",
"151 34 LINE",
"173.667 22 OFFCURVE",
"200.667 18 OFFCURVE",
"234 18 CURVE SMOOTH",
"323.076 18 OFFCURVE",
"361 46.743 OFFCURVE",
"361 160 CURVE SMOOTH",
"361 382 LINE SMOOTH",
"361 402.667 OFFCURVE",
"357 420.667 OFFCURVE",
"349 436 CURVE",
"392 522 LINE",
"319 522 LINE",
"297 476 LINE",
"279 482 OFFCURVE",
"258 485 OFFCURVE",
"234 485 CURVE SMOOTH",
"155.333 485 OFFCURVE",
"102 456.667 OFFCURVE",
"102 382 CURVE SMOOTH",
"102 159 LINE SMOOTH",
"102 131.667 OFFCURVE",
"104.333 109.667 OFFCURVE",
"109 93 CURVE",
"58 -13 LINE"
);
},
{
closed = 1;
nodes = (
"222 388 LINE SMOOTH",
"222 397.333 OFFCURVE",
"223 403.5 OFFCURVE",
"225 406.5 CURVE SMOOTH",
"227 409.5 OFFCURVE",
"230 411 OFFCURVE",
"234 411 CURVE SMOOTH",
"237.333 411 OFFCURVE",
"240 409.5 OFFCURVE",
"242 406.5 CURVE SMOOTH",
"244 403.5 OFFCURVE",
"245 397.333 OFFCURVE",
"245 388 CURVE SMOOTH",
"245 371 LINE",
"222 324 LINE"
);
},
{
closed = 1;
nodes = (
"237 374 LINE",
"237 388 LINE SMOOTH",
"237 397.333 OFFCURVE",
"236 402 OFFCURVE",
"234 402 CURVE SMOOTH",
"232 402 OFFCURVE",
"231 397.333 OFFCURVE",
"231 388 CURVE SMOOTH",
"231 362 LINE"
);
}
);
userData = {
assembly = "PUSHW[ ]	/* 4 values pushed */\01230 6 87 4 \012CALL[ ]	/* CallFunction */\012PUSHW[ ]	/* 4 values pushed */\01213 6 43 4 \012CALL[ ]	/* CallFunction */\012PUSHW[ ]	/* 1 value pushed */\01230 \012SRP0[ ]	/* SetRefPoint0 */\012PUSHW[ ]	/* 2 values pushed */\0122 6 \012MIRP[10100]	/* MoveIndirectRelPt */\012PUSHW[ ]	/* 1 value pushed */\01213 \012SRP0[ ]	/* SetRefPoint0 */\012PUSHW[ ]	/* 2 values pushed */\01228 6 \012MIRP[10100]	/* MoveIndirectRelPt */\012PUSHW[ ]	/* 1 value pushed */\01230 \012SRP0[ ]	/* SetRefPoint0 */\012PUSHW[ ]	/* 1 value pushed */\01234 \012MDRP[10000]	/* MoveDirectRelPt */\012PUSHW[ ]	/* 1 value pushed */\01228 \012SRP0[ ]	/* SetRefPoint0 */\012PUSHW[ ]	/* 1 value pushed */\01235 \012MDRP[10000]	/* MoveDirectRelPt */\012PUSHW[ ]	/* 1 value pushed */\01243 \012SRP0[ ]	/* SetRefPoint0 */\012PUSHW[ ]	/* 1 value pushed */\01247 \012MDRP[10000]	/* MoveDirectRelPt */\012PUSHW[ ]	/* 1 value pushed */\01247 \012MDAP[1]	/* MoveDirectAbsPt */\012PUSHW[ ]	/* 1 value pushed */\01243 \012SRP0[ ]	/* SetRefPoint0 */\012PUSHW[ ]	/* 1 value pushed */\01252 \012MDRP[10000]	/* MoveDirectRelPt */\012PUSHW[ ]	/* 1 value pushed */\01243 \012SRP0[ ]	/* SetRefPoint0 */\012PUSHW[ ]	/* 1 value pushed */\01254 \012MDRP[10000]	/* MoveDirectRelPt */\012PUSHW[ ]	/* 1 value pushed */\01254 \012MDAP[1]	/* MoveDirectAbsPt */\012PUSHW[ ]	/* 1 value pushed */\01228 \012SRP0[ ]	/* SetRefPoint0 */\012PUSHW[ ]	/* 2 values pushed */\012105 6 \012MIRP[10100]	/* MoveIndirectRelPt */\012PUSHW[ ]	/* 1 value pushed */\01213 \012SRP0[ ]	/* SetRefPoint0 */\012PUSHW[ ]	/* 1 value pushed */\012119 \012MDRP[11100]	/* MoveDirectRelPt */\012SVTCA[0]	/* SetFreedomAndProjectionVectorToAxis */\012PUSHW[ ]	/* 1 value pushed */\01299 \012MDAP[1]	/* MoveDirectAbsPt */\012PUSHW[ ]	/* 1 value pushed */\012116 \012MDAP[1]	/* MoveDirectAbsPt */\012PUSHW[ ]	/* 3 values pushed */\01210 116 99 \012SRP1[ ]	/* SetRefPoint1 */\012SRP2[ ]	/* SetRefPoint2 */\012IP[ ]	/* InterpolatePts */\012PUSHW[ ]	/* 3 values pushed */\01224 116 99 \012SRP1[ ]	/* SetRefPoint1 */\012SRP2[ ]	/* SetRefPoint2 */\012IP[ ]	/* InterpolatePts */\012PUSHW[ ]	/* 3 values pushed */\01229 116 99 \012SRP1[ ]	/* SetRefPoint1 */\012SRP2[ ]	/* SetRefPoint2 */\012IP[ ]	/* InterpolatePts */\012PUSHW[ ]	/* 3 values pushed */\01234 116 99 \012SRP1[ ]	/* SetRefPoint1 */\012SRP2[ ]	/* SetRefPoint2 */\012IP[ ]	/* InterpolatePts */\012PUSHW[ ]	/* 3 values pushed */\01249 116 99 \012SRP1[ ]	/* SetRefPoint1 */\012SRP2[ ]	/* SetRefPoint2 */\012IP[ ]	/* InterpolatePts */\012PUSHW[ ]	/* 3 values pushed */\01254 116 99 \012SRP1[ ]	/* SetRefPoint1 */\012SRP2[ ]	/* SetRefPoint2 */\012IP[ ]	/* InterpolatePts */\012PUSHW[ ]	/* 3 values pushed */\01257 116 99 \012SRP1[ ]	/* SetRefPoint1 */\012SRP2[ ]	/* SetRefPoint2 */\012IP[ ]	/* InterpolatePts */\012PUSHW[ ]	/* 3 values pushed */\01272 116 99 \012SRP1[ ]	/* SetRefPoint1 */\012SRP2[ ]	/* SetRefPoint2 */\012IP[ ]	/* InterpolatePts */\012IUP[0]	/* InterpolateUntPts */\012IUP[1]	/* InterpolateUntPts */";
};
width = 457;
}
);
note = Oslash.tabular;
},
{
color = 2;
glyphname = OE.tabular;
lastChange = "2021-12-03 13:19:10 +0000";
layers = (
{
layerId = "04A772B0-FA71-43EE-BB43-CAC7F0EBD631";
paths = (
{
closed = 1;
nodes = (
"209.333 -9 OFFCURVE",
"233.667 -6 OFFCURVE",
"255 0 CURVE",
"430 0 LINE",
"430 135 LINE",
"342 135 LINE",
"342 181 LINE",
"423 181 LINE",
"423 329 LINE",
"342 329 LINE",
"342 361 LINE",
"430 361 LINE",
"430 498 LINE",
"247 498 LINE",
"228.333 502.667 OFFCURVE",
"206.667 505 OFFCURVE",
"182 505 CURVE SMOOTH",
"86 505 OFFCURVE",
"22 470.333 OFFCURVE",
"22 377 CURVE SMOOTH",
"22 157 LINE SMOOTH",
"22 24.254 OFFCURVE",
"75.61 -9 OFFCURVE",
"182 -9 CURVE SMOOTH"
);
},
{
closed = 1;
nodes = (
"178 87 OFFCURVE",
"175 88.5 OFFCURVE",
"173 91.5 CURVE SMOOTH",
"171 94.5 OFFCURVE",
"170 100.333 OFFCURVE",
"170 109 CURVE SMOOTH",
"170 382 LINE SMOOTH",
"170 391.333 OFFCURVE",
"171 397.667 OFFCURVE",
"173 401 CURVE SMOOTH",
"175 404.333 OFFCURVE",
"178 406 OFFCURVE",
"182 406 CURVE SMOOTH",
"185.333 406 OFFCURVE",
"188 404.333 OFFCURVE",
"190 401 CURVE SMOOTH",
"192 397.667 OFFCURVE",
"193 391.333 OFFCURVE",
"193 382 CURVE SMOOTH",
"193 109 LINE SMOOTH",
"193 100.333 OFFCURVE",
"192 94.5 OFFCURVE",
"190 91.5 CURVE SMOOTH",
"188 88.5 OFFCURVE",
"185.333 87 OFFCURVE",
"182 87 CURVE SMOOTH"
);
},
{
closed = 1;
nodes = (
"183.333 96 OFFCURVE",
"184 100.333 OFFCURVE",
"184 109 CURVE SMOOTH",
"184 382 LINE SMOOTH",
"184 392 OFFCURVE",
"183.333 397 OFFCURVE",
"182 397 CURVE SMOOTH",
"179.333 397 OFFCURVE",
"178 392 OFFCURVE",
"178 382 CURVE SMOOTH",
"178 109 LINE SMOOTH",
"178 100.333 OFFCURVE",
"179.333 96 OFFCURVE",
"182 96 CURVE SMOOTH"
);
},
{
closed = 1;
nodes = (
"86.296 9 OFFCURVE",
"40 38.77 OFFCURVE",
"40 157 CURVE SMOOTH",
"40 377 LINE SMOOTH",
"40 458.333 OFFCURVE",
"95.333 487 OFFCURVE",
"182 487 CURVE SMOOTH",
"203.333 487 OFFCURVE",
"227.667 484 OFFCURVE",
"245 480 CURVE",
"413 480 LINE",
"413 379 LINE",
"325 379 LINE",
"325 311 LINE",
"406 311 LINE",
"406 199 LINE",
"325 199 LINE",
"325 117 LINE",
"413 117 LINE",
"413 18 LINE",
"252 18 LINE",
"232 12 OFFCURVE",
"208.667 9 OFFCURVE",
"182 9 CURVE SMOOTH"
);
},
{
closed = 1;
nodes = (
"207.333 18 OFFCURVE",
"229.667 21 OFFCURVE",
"249 27 CURVE",
"404 27 LINE",
"404 108 LINE",
"316 108 LINE",
"316 208 LINE",
"397 208 LINE",
"397 302 LINE",
"316 302 LINE",
"316 388 LINE",
"404 388 LINE",
"404 471 LINE",
"243 471 LINE",
"224.333 475 OFFCURVE",
"204.667 478 OFFCURVE",
"182 478 CURVE SMOOTH",
"102 478 OFFCURVE",
"48 451.667 OFFCURVE",
"48 377 CURVE SMOOTH",
"48 157 LINE SMOOTH",
"48 46.335 OFFCURVE",
"93.267 18 OFFCURVE",
"182 18 CURVE SMOOTH"
);
}
);
userData = {
assembly = "PUSHW[ ]	/* 4 values pushed */\01236 6 79 4 \012CALL[ ]	/* CallFunction */\012PUSHW[ ]	/* 4 values pushed */\01220 6 41 4 \012CALL[ ]	/* CallFunction */\012PUSHW[ ]	/* 4 values pushed */\01291 6 55 4 \012CALL[ ]	/* CallFunction */\012PUSHW[ ]	/* 1 value pushed */\01236 \012SRP0[ ]	/* SetRefPoint0 */\012PUSHW[ ]	/* 2 values pushed */\0125 6 \012MIRP[10100]	/* MoveIndirectRelPt */\012PUSHW[ ]	/* 1 value pushed */\01220 \012SRP0[ ]	/* SetRefPoint0 */\012PUSHW[ ]	/* 2 values pushed */\01228 6 \012MIRP[10100]	/* MoveIndirectRelPt */\012PUSHW[ ]	/* 2 values pushed */\01218 5 \012MIRP[10100]	/* MoveIndirectRelPt */\012PUSHW[ ]	/* 1 value pushed */\01213 \012MDRP[10000]	/* MoveDirectRelPt */\012PUSHW[ ]	/* 1 value pushed */\01213 \012MDAP[1]	/* MoveDirectAbsPt */\012PUSHW[ ]	/* 1 value pushed */\01220 \012SRP0[ ]	/* SetRefPoint0 */\012PUSHW[ ]	/* 1 value pushed */\01215 \012MDRP[10000]	/* MoveDirectRelPt */\012PUSHW[ ]	/* 1 value pushed */\01218 \012SRP0[ ]	/* SetRefPoint0 */\012PUSHW[ ]	/* 1 value pushed */\01221 \012MDRP[10000]	/* MoveDirectRelPt */\012PUSHW[ ]	/* 1 value pushed */\01221 \012MDAP[1]	/* MoveDirectAbsPt */\012PUSHW[ ]	/* 1 value pushed */\01241 \012SRP0[ ]	/* SetRefPoint0 */\012PUSHW[ ]	/* 1 value pushed */\01246 \012MDRP[10000]	/* MoveDirectRelPt */\012PUSHW[ ]	/* 1 value pushed */\01246 \012MDAP[1]	/* MoveDirectAbsPt */\012PUSHW[ ]	/* 1 value pushed */\0125 \012SRP0[ ]	/* SetRefPoint0 */\012PUSHW[ ]	/* 2 values pushed */\01247 6 \012MIRP[10100]	/* MoveIndirectRelPt */\012PUSHW[ ]	/* 1 value pushed */\01255 \012SRP0[ ]	/* SetRefPoint0 */\012PUSHW[ ]	/* 1 value pushed */\01258 \012MDRP[10000]	/* MoveDirectRelPt */\012PUSHW[ ]	/* 1 value pushed */\01291 \012SRP0[ ]	/* SetRefPoint0 */\012PUSHW[ ]	/* 1 value pushed */\01286 \012MDRP[10000]	/* MoveDirectRelPt */\012PUSHW[ ]	/* 1 value pushed */\01286 \012MDAP[1]	/* MoveDirectAbsPt */\012PUSHW[ ]	/* 1 value pushed */\01228 \012SRP0[ ]	/* SetRefPoint0 */\012PUSHW[ ]	/* 2 values pushed */\01293 5 \012MIRP[10100]	/* MoveIndirectRelPt */\012PUSHW[ ]	/* 1 value pushed */\01288 \012MDRP[10000]	/* MoveDirectRelPt */\012PUSHW[ ]	/* 1 value pushed */\01291 \012SRP0[ ]	/* SetRefPoint0 */\012PUSHW[ ]	/* 1 value pushed */\01294 \012MDRP[10000]	/* MoveDirectRelPt */\012PUSHW[ ]	/* 1 value pushed */\01294 \012MDAP[1]	/* MoveDirectAbsPt */\012PUSHW[ ]	/* 1 value pushed */\01291 \012SRP0[ ]	/* SetRefPoint0 */\012PUSHW[ ]	/* 1 value pushed */\01299 \012MDRP[11100]	/* MoveDirectRelPt */\012SVTCA[0]	/* SetFreedomAndProjectionVectorToAxis */\012PUSHW[ ]	/* 1 value pushed */\01283 \012MDAP[1]	/* MoveDirectAbsPt */\012PUSHW[ ]	/* 1 value pushed */\01285 \012MDAP[1]	/* MoveDirectAbsPt */\012PUSHW[ ]	/* 1 value pushed */\0120 \012RCVT[ ]	/* ReadCVT */\012IF[ ]	/* If */\012PUSHW[ ]	/* 1 value pushed */\01286 \012MDAP[1]	/* MoveDirectAbsPt */\012ELSE[ ]	/* Else */\012PUSHW[ ]	/* 2 values pushed */\01286 11 \012MIAP[0]	/* MoveIndirectAbsPt */\012EIF[ ]	/* EndIf */\012PUSHW[ ]	/* 1 value pushed */\0120 \012RCVT[ ]	/* ReadCVT */\012IF[ ]	/* If */\012PUSHW[ ]	/* 1 value pushed */\01295 \012MDAP[1]	/* MoveDirectAbsPt */\012ELSE[ ]	/* Else */\012PUSHW[ ]	/* 2 values pushed */\01295 7 \012MIAP[0]	/* MoveIndirectAbsPt */\012EIF[ ]	/* EndIf */\012PUSHW[ ]	/* 1 value pushed */\0120 \012RCVT[ ]	/* ReadCVT */\012IF[ ]	/* If */\012PUSHW[ ]	/* 1 value pushed */\01274 \012MDAP[1]	/* MoveDirectAbsPt */\012ELSE[ ]	/* Else */\012PUSHW[ ]	/* 2 values pushed */\01274 7 \012MIAP[0]	/* MoveIndirectAbsPt */\012EIF[ ]	/* EndIf */\012PUSHW[ ]	/* 4 values pushed */\01221 2 22 4 \012CALL[ ]	/* CallFunction */\012PUSHW[ ]	/* 4 values pushed */\01256 2 53 4 \012CALL[ ]	/* CallFunction */\012PUSHW[ ]	/* 4 values pushed */\01217 4 91 4 \012CALL[ ]	/* CallFunction */\012PUSHW[ ]	/* 4 values pushed */\01260 2 57 4 \012CALL[ ]	/* CallFunction */\012PUSHW[ ]	/* 4 values pushed */\01290 4 18 4 \012CALL[ ]	/* CallFunction */\012PUSHW[ ]	/* 1 value pushed */\01274 \012SRP0[ ]	/* SetRefPoint0 */\012PUSHW[ ]	/* 1 value pushed */\0120 \012MDRP[11100]	/* MoveDirectRelPt */\012NPUSHW[ ]	/* 27 values pushed */\0127 0 23 0 39 0 55 0 71 0 87 0 103 0 119 0 135 0 151 0 167 0 183 0 199 0 13 \012DELTAP1[ ]	/* DeltaExceptionP1 */\012NPUSHW[ ]	/* 5 values pushed */\012214 0 230 0 2 \012DELTAP1[ ]	/* DeltaExceptionP1 */\012PUSHW[ ]	/* 1 value pushed */\01286 \012SRP0[ ]	/* SetRefPoint0 */\012PUSHW[ ]	/* 2 values pushed */\01214 4 \012MIRP[10100]	/* MoveIndirectRelPt */\012PUSHW[ ]	/* 2 values pushed */\01213 2 \012MIRP[10100]	/* MoveIndirectRelPt */\012PUSHW[ ]	/* 1 value pushed */\0129 \012MDRP[10000]	/* MoveDirectRelPt */\012PUSHW[ ]	/* 1 value pushed */\0129 \012MDAP[1]	/* MoveDirectAbsPt */\012PUSHW[ ]	/* 1 value pushed */\0120 \012SRP0[ ]	/* SetRefPoint0 */\012PUSHW[ ]	/* 1 value pushed */\01251 \012MDRP[10000]	/* MoveDirectRelPt */\012PUSHW[ ]	/* 1 value pushed */\01252 \012MDRP[10000]	/* MoveDirectRelPt */\012PUSHW[ ]	/* 1 value pushed */\01213 \012SRP0[ ]	/* SetRefPoint0 */\012PUSHW[ ]	/* 2 values pushed */\01287 4 \012MIRP[10100]	/* MoveIndirectRelPt */\012PUSHW[ ]	/* 1 value pushed */\01222 \012SRP0[ ]	/* SetRefPoint0 */\012PUSHW[ ]	/* 2 values pushed */\01294 4 \012MIRP[10100]	/* MoveIndirectRelPt */\012IUP[0]	/* InterpolateUntPts */\012IUP[1]	/* InterpolateUntPts */";
};
width = 460;
}
);
note = OE.tabular;
},
{
color = 2;
glyphname = P.tabular;
lastChange = "2021-12-03 13:19:10 +0000";
layers = (
{
layerId = "04A772B0-FA71-43EE-BB43-CAC7F0EBD631";
paths = (
{
closed = 1;
nodes = (
"232 0 LINE",
"232 168 LINE",
"259 168 LINE SMOOTH",
"341.204 168 OFFCURVE",
"366 236.982 OFFCURVE",
"366 320 CURVE SMOOTH",
"366 394 LINE SMOOTH",
"366 452.667 OFFCURVE",
"332.667 496 OFFCURVE",
"254 496 CURVE SMOOTH",
"66 496 LINE",
"66 0 LINE"
);
},
{
closed = 1;
nodes = (
"83 478 LINE",
"254 478 LINE SMOOTH",
"322 478 OFFCURVE",
"350 443.333 OFFCURVE",
"350 394 CURVE SMOOTH",
"350 320 LINE SMOOTH",
"350 248.028 OFFCURVE",
"329.604 186 OFFCURVE",
"259 186 CURVE SMOOTH",
"216 186 LINE",
"216 18 LINE",
"83 18 LINE"
);
},
{
closed = 1;
nodes = (
"207 27 LINE",
"207 194 LINE",
"259 194 LINE SMOOTH",
"323.161 194 OFFCURVE",
"341 252.86 OFFCURVE",
"341 320 CURVE SMOOTH",
"341 394 LINE SMOOTH",
"341 438 OFFCURVE",
"316.667 469 OFFCURVE",
"254 469 CURVE SMOOTH",
"91 469 LINE",
"91 27 LINE"
);
},
{
closed = 1;
nodes = (
"207 407 LINE",
"218 407 LINE SMOOTH",
"224.667 407 OFFCURVE",
"228.5 401.5 OFFCURVE",
"229.5 390.5 CURVE SMOOTH",
"230.5 379.5 OFFCURVE",
"231 360.333 OFFCURVE",
"231 333 CURVE SMOOTH",
"231 305 OFFCURVE",
"229.833 285.667 OFFCURVE",
"227.5 275 CURVE SMOOTH",
"225.167 264.333 OFFCURVE",
"221.333 259 OFFCURVE",
"216 259 CURVE SMOOTH",
"207 259 LINE"
);
},
{
closed = 1;
nodes = (
"218 268 OFFCURVE",
"219.5 272.667 OFFCURVE",
"220.5 282 CURVE SMOOTH",
"221.5 291.333 OFFCURVE",
"222 308.333 OFFCURVE",
"222 333 CURVE SMOOTH",
"221.5 383.5 LINE SMOOTH",
"221.167 393.167 OFFCURVE",
"220 398 OFFCURVE",
"218 398 CURVE SMOOTH",
"216 398 LINE",
"216 268 LINE"
);
}
);
userData = {
assembly = "PUSHW[ ]	/* 4 values pushed */\01222 6 45 4 \012CALL[ ]	/* CallFunction */\012PUSHW[ ]	/* 4 values pushed */\0125 6 30 4 \012CALL[ ]	/* CallFunction */\012PUSHW[ ]	/* 1 value pushed */\01222 \012SRP0[ ]	/* SetRefPoint0 */\012PUSHW[ ]	/* 2 values pushed */\0120 6 \012MIRP[10100]	/* MoveIndirectRelPt */\012PUSHW[ ]	/* 1 value pushed */\01222 \012SRP0[ ]	/* SetRefPoint0 */\012PUSHW[ ]	/* 1 value pushed */\01211 \012MDRP[10000]	/* MoveDirectRelPt */\012PUSHW[ ]	/* 1 value pushed */\0125 \012SRP0[ ]	/* SetRefPoint0 */\012PUSHW[ ]	/* 2 values pushed */\01218 6 \012MIRP[10100]	/* MoveIndirectRelPt */\012PUSHW[ ]	/* 1 value pushed */\01230 \012SRP0[ ]	/* SetRefPoint0 */\012PUSHW[ ]	/* 1 value pushed */\01227 \012MDRP[10000]	/* MoveDirectRelPt */\012PUSHW[ ]	/* 1 value pushed */\01227 \012MDAP[1]	/* MoveDirectAbsPt */\012PUSHW[ ]	/* 1 value pushed */\01230 \012SRP0[ ]	/* SetRefPoint0 */\012PUSHW[ ]	/* 1 value pushed */\01232 \012MDRP[10000]	/* MoveDirectRelPt */\012PUSHW[ ]	/* 1 value pushed */\01218 \012SRP0[ ]	/* SetRefPoint0 */\012PUSHW[ ]	/* 2 values pushed */\01250 6 \012MIRP[10100]	/* MoveIndirectRelPt */\012PUSHW[ ]	/* 1 value pushed */\01218 \012SRP0[ ]	/* SetRefPoint0 */\012PUSHW[ ]	/* 1 value pushed */\01256 \012MDRP[10000]	/* MoveDirectRelPt */\012PUSHW[ ]	/* 1 value pushed */\01256 \012MDAP[1]	/* MoveDirectAbsPt */\012PUSHW[ ]	/* 1 value pushed */\0125 \012SRP0[ ]	/* SetRefPoint0 */\012PUSHW[ ]	/* 1 value pushed */\01260 \012MDRP[11100]	/* MoveDirectRelPt */\012SVTCA[0]	/* SetFreedomAndProjectionVectorToAxis */\012PUSHW[ ]	/* 1 value pushed */\0120 \012RCVT[ ]	/* ReadCVT */\012IF[ ]	/* If */\012PUSHW[ ]	/* 1 value pushed */\01245 \012MDAP[1]	/* MoveDirectAbsPt */\012ELSE[ ]	/* Else */\012PUSHW[ ]	/* 2 values pushed */\01245 11 \012MIAP[0]	/* MoveIndirectAbsPt */\012EIF[ ]	/* EndIf */\012PUSHW[ ]	/* 1 value pushed */\0120 \012RCVT[ ]	/* ReadCVT */\012IF[ ]	/* If */\012PUSHW[ ]	/* 1 value pushed */\01257 \012MDAP[1]	/* MoveDirectAbsPt */\012ELSE[ ]	/* Else */\012PUSHW[ ]	/* 2 values pushed */\01257 7 \012MIAP[0]	/* MoveIndirectAbsPt */\012EIF[ ]	/* EndIf */\012PUSHW[ ]	/* 3 values pushed */\01230 57 45 \012SRP1[ ]	/* SetRefPoint1 */\012SRP2[ ]	/* SetRefPoint2 */\012IP[ ]	/* InterpolatePts */\012PUSHW[ ]	/* 2 values pushed */\01233 4 \012MIRP[10100]	/* MoveIndirectRelPt */\012IUP[0]	/* InterpolateUntPts */\012IUP[1]	/* InterpolateUntPts */";
};
width = 443;
}
);
note = P.tabular;
},
{
color = 2;
glyphname = Q.tabular;
lastChange = "2021-12-03 13:19:10 +0000";
layers = (
{
layerId = "04A772B0-FA71-43EE-BB43-CAC7F0EBD631";
paths = (
{
closed = 1;
nodes = (
"377 -35 LINE",
"338 39 LINE",
"355.333 65.667 OFFCURVE",
"365 104 OFFCURVE",
"365 160 CURVE SMOOTH",
"365 383 LINE SMOOTH",
"365 479 OFFCURVE",
"310 514 OFFCURVE",
"218 514 CURVE SMOOTH",
"126 514 OFFCURVE",
"65 479 OFFCURVE",
"65 383 CURVE SMOOTH",
"65 159 LINE SMOOTH",
"65 29.51 OFFCURVE",
"110.351 -5.948 OFFCURVE",
"208 -9 CURVE",
"261 -108 LINE"
);
},
{
closed = 1;
nodes = (
"343 -25 LINE",
"307 43 LINE",
"328.333 63 OFFCURVE",
"340 97.333 OFFCURVE",
"340 160 CURVE SMOOTH",
"340 383 LINE SMOOTH",
"340 459 OFFCURVE",
"294 486 OFFCURVE",
"218 486 CURVE SMOOTH",
"140.667 486 OFFCURVE",
"90 459 OFFCURVE",
"90 383 CURVE SMOOTH",
"90 159 LINE SMOOTH",
"90 47.265 OFFCURVE",
"130.591 18 OFFCURVE",
"218 18 CURVE SMOOTH",
"223 18 LINE",
"270 -71 LINE"
);
},
{
closed = 1;
nodes = (
"218 9 LINE",
"125.455 9 OFFCURVE",
"82 40.933 OFFCURVE",
"82 159 CURVE SMOOTH",
"82 383 LINE SMOOTH",
"82 464.333 OFFCURVE",
"135.333 495 OFFCURVE",
"218 495 CURVE SMOOTH",
"299.333 495 OFFCURVE",
"349 465.667 OFFCURVE",
"349 383 CURVE SMOOTH",
"349 160 LINE SMOOTH",
"349 100 OFFCURVE",
"336.667 63.667 OFFCURVE",
"318 41 CURVE",
"355 -28 LINE",
"267 -84 LINE"
);
},
{
closed = 1;
nodes = (
"210 88 OFFCURVE",
"206 95.667 OFFCURVE",
"206 111 CURVE SMOOTH",
"206 389 LINE SMOOTH",
"206 398.333 OFFCURVE",
"207 404.667 OFFCURVE",
"209 408 CURVE SMOOTH",
"211 411.333 OFFCURVE",
"214 413 OFFCURVE",
"218 413 CURVE SMOOTH",
"221.333 413 OFFCURVE",
"224 411.333 OFFCURVE",
"226 408 CURVE SMOOTH",
"228 404.667 OFFCURVE",
"229 398.333 OFFCURVE",
"229 389 CURVE SMOOTH",
"229 111 LINE SMOOTH",
"229 95.667 OFFCURVE",
"225.333 88 OFFCURVE",
"218 88 CURVE SMOOTH"
);
},
{
closed = 1;
nodes = (
"219.333 97 OFFCURVE",
"220 101.667 OFFCURVE",
"220 111 CURVE SMOOTH",
"220 389 LINE SMOOTH",
"220 398.333 OFFCURVE",
"219.333 403 OFFCURVE",
"218 403 CURVE SMOOTH",
"215.333 403 OFFCURVE",
"214 398.333 OFFCURVE",
"214 389 CURVE SMOOTH",
"214 111 LINE SMOOTH",
"214 101.667 OFFCURVE",
"215.333 97 OFFCURVE",
"218 97 CURVE SMOOTH"
);
}
);
userData = {
assembly = "PUSHW[ ]	/* 4 values pushed */\01230 6 66 4 \012CALL[ ]	/* CallFunction */\012PUSHW[ ]	/* 4 values pushed */\01213 6 34 4 \012CALL[ ]	/* CallFunction */\012PUSHW[ ]	/* 1 value pushed */\01230 \012SRP0[ ]	/* SetRefPoint0 */\012PUSHW[ ]	/* 2 values pushed */\0125 6 \012MIRP[10100]	/* MoveIndirectRelPt */\012PUSHW[ ]	/* 1 value pushed */\01213 \012SRP0[ ]	/* SetRefPoint0 */\012PUSHW[ ]	/* 2 values pushed */\01222 6 \012MIRP[10100]	/* MoveIndirectRelPt */\012PUSHW[ ]	/* 1 value pushed */\01234 \012SRP0[ ]	/* SetRefPoint0 */\012PUSHW[ ]	/* 1 value pushed */\01239 \012MDRP[10000]	/* MoveDirectRelPt */\012PUSHW[ ]	/* 1 value pushed */\01239 \012MDAP[1]	/* MoveDirectAbsPt */\012PUSHW[ ]	/* 1 value pushed */\0125 \012SRP0[ ]	/* SetRefPoint0 */\012PUSHW[ ]	/* 2 values pushed */\01240 6 \012MIRP[10100]	/* MoveIndirectRelPt */\012PUSHW[ ]	/* 1 value pushed */\01222 \012SRP0[ ]	/* SetRefPoint0 */\012PUSHW[ ]	/* 2 values pushed */\01274 6 \012MIRP[10100]	/* MoveIndirectRelPt */\012PUSHW[ ]	/* 1 value pushed */\01213 \012SRP0[ ]	/* SetRefPoint0 */\012PUSHW[ ]	/* 1 value pushed */\01281 \012MDRP[11100]	/* MoveDirectRelPt */\012SVTCA[0]	/* SetFreedomAndProjectionVectorToAxis */\012PUSHW[ ]	/* 1 value pushed */\01279 \012MDAP[1]	/* MoveDirectAbsPt */\012PUSHW[ ]	/* 1 value pushed */\01270 \012MDAP[1]	/* MoveDirectAbsPt */\012PUSHW[ ]	/* 1 value pushed */\0120 \012RCVT[ ]	/* ReadCVT */\012IF[ ]	/* If */\012PUSHW[ ]	/* 1 value pushed */\01251 \012MDAP[1]	/* MoveDirectAbsPt */\012ELSE[ ]	/* Else */\012PUSHW[ ]	/* 2 values pushed */\01251 11 \012MIAP[0]	/* MoveIndirectAbsPt */\012EIF[ ]	/* EndIf */\012IUP[0]	/* InterpolateUntPts */\012IUP[1]	/* InterpolateUntPts */";
};
width = 444;
}
);
note = Q.tabular;
},
{
color = 2;
glyphname = R.tabular;
lastChange = "2021-12-03 13:19:10 +0000";
layers = (
{
layerId = "04A772B0-FA71-43EE-BB43-CAC7F0EBD631";
paths = (
{
closed = 1;
nodes = (
"392 0 LINE",
"345 194 LINE",
"338.333 212.667 OFFCURVE",
"333.667 223.333 OFFCURVE",
"327 234 CURVE",
"351 256.667 OFFCURVE",
"359 292.333 OFFCURVE",
"359 327 CURVE SMOOTH",
"359 394 LINE SMOOTH",
"359 454 OFFCURVE",
"325.333 496 OFFCURVE",
"244 496 CURVE SMOOTH",
"54 496 LINE",
"54 0 LINE"
);
},
{
closed = 1;
nodes = (
"71 478 LINE",
"244 478 LINE SMOOTH",
"313.333 478 OFFCURVE",
"342 443.333 OFFCURVE",
"342 394 CURVE SMOOTH",
"342 327 LINE SMOOTH",
"342 288.333 OFFCURVE",
"336.333 254.667 OFFCURVE",
"299 236 CURVE",
"309.667 228 OFFCURVE",
"320.333 212 OFFCURVE",
"331 184 CURVE",
"371 18 LINE",
"229 21 LINE",
"218 74 LINE SMOOTH",
"214.667 87.333 OFFCURVE",
"211.833 100.167 OFFCURVE",
"209.5 112.5 CURVE SMOOTH",
"205 134 LINE",
"205 18 LINE",
"71 18 LINE"
);
},
{
closed = 1;
nodes = (
"197 27 LINE",
"197 223 LINE",
"198 223 LINE",
"198 218.944 OFFCURVE",
"211.891 146.653 OFFCURVE",
"216 122 CURVE SMOOTH",
"220.667 94 OFFCURVE",
"226.333 62.333 OFFCURVE",
"233 27 CURVE",
"360 27 LINE",
"321 188 LINE",
"307.667 226.667 OFFCURVE",
"292.667 233.333 OFFCURVE",
"274 236 CURVE",
"320.667 248 OFFCURVE",
"333 284.333 OFFCURVE",
"333 327 CURVE SMOOTH",
"333 394 LINE SMOOTH",
"333 438 OFFCURVE",
"308 469 OFFCURVE",
"244 469 CURVE SMOOTH",
"79 469 LINE",
"79 27 LINE"
);
},
{
closed = 1;
nodes = (
"197 407 LINE",
"208 407 LINE SMOOTH",
"214.667 407 OFFCURVE",
"218.5 401.5 OFFCURVE",
"219.5 390.5 CURVE SMOOTH",
"220.5 379.5 OFFCURVE",
"221 360.333 OFFCURVE",
"221 333 CURVE SMOOTH",
"221 305 OFFCURVE",
"219.833 287 OFFCURVE",
"217.5 279 CURVE SMOOTH",
"215.167 271 OFFCURVE",
"211.333 267 OFFCURVE",
"206 267 CURVE SMOOTH",
"197 267 LINE"
);
},
{
closed = 1;
nodes = (
"206 276 LINE SMOOTH",
"208.667 276 OFFCURVE",
"210.333 279.5 OFFCURVE",
"211 286.5 CURVE SMOOTH",
"211.667 293.5 OFFCURVE",
"212 309 OFFCURVE",
"212 333 CURVE SMOOTH",
"211.5 383.5 LINE SMOOTH",
"211.167 393.167 OFFCURVE",
"210 398 OFFCURVE",
"208 398 CURVE SMOOTH",
"205 398 LINE",
"205 276 LINE"
);
}
);
userData = {
assembly = "PUSHW[ ]	/* 4 values pushed */\01232 6 63 4 \012CALL[ ]	/* CallFunction */\012PUSHW[ ]	/* 4 values pushed */\0124 6 33 4 \012CALL[ ]	/* CallFunction */\012PUSHW[ ]	/* 1 value pushed */\01232 \012SRP0[ ]	/* SetRefPoint0 */\012PUSHW[ ]	/* 2 values pushed */\0120 6 \012MIRP[10100]	/* MoveIndirectRelPt */\012PUSHW[ ]	/* 3 values pushed */\0128 33 4 \012SRP1[ ]	/* SetRefPoint1 */\012SRP2[ ]	/* SetRefPoint2 */\012IP[ ]	/* InterpolatePts */\012PUSHW[ ]	/* 1 value pushed */\0124 \012SRP0[ ]	/* SetRefPoint0 */\012PUSHW[ ]	/* 2 values pushed */\01228 6 \012MIRP[10100]	/* MoveIndirectRelPt */\012PUSHW[ ]	/* 2 values pushed */\01268 6 \012MIRP[10100]	/* MoveIndirectRelPt */\012PUSHW[ ]	/* 1 value pushed */\01212 \012MDRP[10000]	/* MoveDirectRelPt */\012PUSHW[ ]	/* 1 value pushed */\01212 \012MDAP[1]	/* MoveDirectAbsPt */\012PUSHW[ ]	/* 1 value pushed */\01232 \012SRP0[ ]	/* SetRefPoint0 */\012PUSHW[ ]	/* 1 value pushed */\01221 \012MDRP[10000]	/* MoveDirectRelPt */\012PUSHW[ ]	/* 1 value pushed */\01233 \012SRP0[ ]	/* SetRefPoint0 */\012PUSHW[ ]	/* 1 value pushed */\01237 \012MDRP[10000]	/* MoveDirectRelPt */\012PUSHW[ ]	/* 1 value pushed */\01237 \012MDAP[1]	/* MoveDirectAbsPt */\012PUSHW[ ]	/* 1 value pushed */\01233 \012SRP0[ ]	/* SetRefPoint0 */\012PUSHW[ ]	/* 1 value pushed */\01243 \012MDRP[10000]	/* MoveDirectRelPt */\012PUSHW[ ]	/* 3 values pushed */\01254 33 4 \012SRP1[ ]	/* SetRefPoint1 */\012SRP2[ ]	/* SetRefPoint2 */\012IP[ ]	/* InterpolatePts */\012SVTCA[0]	/* SetFreedomAndProjectionVectorToAxis */\012PUSHW[ ]	/* 1 value pushed */\0120 \012RCVT[ ]	/* ReadCVT */\012IF[ ]	/* If */\012PUSHW[ ]	/* 1 value pushed */\01263 \012MDAP[1]	/* MoveDirectAbsPt */\012ELSE[ ]	/* Else */\012PUSHW[ ]	/* 2 values pushed */\01263 11 \012MIAP[0]	/* MoveIndirectAbsPt */\012EIF[ ]	/* EndIf */\012PUSHW[ ]	/* 1 value pushed */\0120 \012RCVT[ ]	/* ReadCVT */\012IF[ ]	/* If */\012PUSHW[ ]	/* 1 value pushed */\01275 \012MDAP[1]	/* MoveDirectAbsPt */\012ELSE[ ]	/* Else */\012PUSHW[ ]	/* 2 values pushed */\01275 7 \012MIAP[0]	/* MoveIndirectAbsPt */\012EIF[ ]	/* EndIf */\012PUSHW[ ]	/* 3 values pushed */\0128 75 63 \012SRP1[ ]	/* SetRefPoint1 */\012SRP2[ ]	/* SetRefPoint2 */\012IP[ ]	/* InterpolatePts */\012PUSHW[ ]	/* 3 values pushed */\01221 75 63 \012SRP1[ ]	/* SetRefPoint1 */\012SRP2[ ]	/* SetRefPoint2 */\012IP[ ]	/* InterpolatePts */\012PUSHW[ ]	/* 3 values pushed */\01241 75 63 \012SRP1[ ]	/* SetRefPoint1 */\012SRP2[ ]	/* SetRefPoint2 */\012IP[ ]	/* InterpolatePts */\012PUSHW[ ]	/* 3 values pushed */\01250 75 63 \012SRP1[ ]	/* SetRefPoint1 */\012SRP2[ ]	/* SetRefPoint2 */\012IP[ ]	/* InterpolatePts */\012PUSHW[ ]	/* 3 values pushed */\01254 75 63 \012SRP1[ ]	/* SetRefPoint1 */\012SRP2[ ]	/* SetRefPoint2 */\012IP[ ]	/* InterpolatePts */\012IUP[0]	/* InterpolateUntPts */\012IUP[1]	/* InterpolateUntPts */";
};
width = 449;
}
);
note = R.tabular;
},
